<svg xmlns="http://www.w3.org/2000/svg" xmlns:xlink="http://www.w3.org/1999/xlink" width="80" height="75" viewBox="0 0 80 75">
  <defs>
    <clipPath id="clip-path">
      <rect id="Rectangle_24" data-name="Rectangle 24" width="80" height="75" transform="translate(0 0)" fill="#20bdff"/>
    </clipPath>
  </defs>
  <g id="affordable" transform="translate(0 0)" clip-path="url(#clip-path)">
    <path id="Path_466" data-name="Path 466" d="M2391.806,317h0v-.5h-.492v-.5h-.483l-17.608-8.923h0c-.492,0-7.337-2.478-13.689,0l-12.723,4.958h-.483a6.132,6.132,0,0,0-2.452,4.957,4.3,4.3,0,0,0,4.4,3.471h0s.492,0,6.362-.5a50.917,50.917,0,0,0,5.869-.5c.492,0,.975-.5.975-1.488.492-.5-.483-1.487-.975-1.487s-.492,0-5.869.5c-2.935,0-5.87.5-6.362.5a1.818,1.818,0,0,1-1.468-.991c0-.991,0-1.487.984-1.983L2361,310.061v-.5c4.393-1.984,10.263,0,11.247,0l7.82,3.965-4.4,10.41c-1.95-1.487-4.885-1.487-6.845-.991l-17.608,5.453a9.168,9.168,0,0,1-6.353-.5l-27.88-15.368a1.092,1.092,0,0,1-.483-1.487c0-.5.483-.991,1.467-.991l21.519,7.435a2.513,2.513,0,0,0,1.95-.991,2.575,2.575,0,0,0-.975-1.983l-21.519-7.436h0a3.925,3.925,0,0,0-4.894,2.975c-.975,1.983,0,3.965,1.959,4.957l27.388,15.368a9.947,9.947,0,0,0,8.312.991l17.609-5.453c1.951-.5,3.418-.5,4.885.5l8.8,5.949h1.96v-.5h.483l6.362-13.881h0v-.5h0Zm-3.427.991-4.885,10.907-5.377-3.471,4.393-10.41Zm-50.365-33.709h3.91c1.95,0,3.418.991,3.418,2.974a3.285,3.285,0,0,1-3.418,2.974h-6.845a1.488,1.488,0,0,0,0,2.975h3.418v2.974a2.232,2.232,0,0,0,1.468,1.487,1.568,1.568,0,0,0,1.467-1.487v-2.974h.975a6.356,6.356,0,0,0,5.87-5.949,5.988,5.988,0,0,0-5.87-5.949h-4.393a3.177,3.177,0,0,1-2.935-2.974,3.3,3.3,0,0,1,2.935-3.47h7.328a1.3,1.3,0,0,0,1.467-1.487c0-.5-.483-.992-1.467-.992h-3.91V269.41a1.3,1.3,0,0,0-1.467-1.487,1.575,1.575,0,0,0-1.468,1.487v2.974h-.483a5.987,5.987,0,0,0-5.869,5.949A6.355,6.355,0,0,0,2338.015,284.283Zm1.951,21.812a23.224,23.224,0,0,0,23.478-23.3c0-13.385-10.272-23.8-23.478-23.8-12.714,0-22.986,10.41-22.986,23.8A23.118,23.118,0,0,0,2339.966,306.094Zm0-44.12a20.81,20.81,0,0,1,20.543,20.821,20.385,20.385,0,0,1-20.543,20.325,19.97,19.97,0,0,1-20.052-20.325C2319.914,271.393,2328.719,261.974,2339.966,261.974Z" transform="translate(-2312.596 -257.634)" fill="#20bdff" fill-rule="evenodd"/>
  </g>
</svg>
