<svg xmlns="http://www.w3.org/2000/svg" width="922.13" height="699.251" viewBox="0 0 922.13 699.251">
  <g id="Blowing_out_Birthday_candles-rafiki_1_" data-name="Blowing out Birthday candles-rafiki (1)" transform="translate(0 -55)">
    <g id="freepik--background-complete--inject-58" transform="translate(0 55)">
      <rect id="Rectangle_134" data-name="Rectangle 134" width="922.13" height="0.461" transform="translate(0 603.811)" fill="#ebebeb"/>
      <rect id="Rectangle_135" data-name="Rectangle 135" width="61.082" height="0.461" transform="translate(768.65 633.485)" fill="#ebebeb"/>
      <rect id="Rectangle_136" data-name="Rectangle 136" width="16.027" height="0.461" transform="translate(594.829 638.501)" fill="#ebebeb"/>
      <rect id="Rectangle_137" data-name="Rectangle 137" width="35.391" height="0.461" transform="translate(731.415 616.37)" fill="#ebebeb"/>
      <rect id="Rectangle_138" data-name="Rectangle 138" width="79.654" height="0.461" transform="translate(96.75 619.468)" fill="#ebebeb"/>
      <rect id="Rectangle_139" data-name="Rectangle 139" width="11.674" height="0.461" transform="translate(192.836 619.468)" fill="#ebebeb"/>
      <rect id="Rectangle_140" data-name="Rectangle 140" width="172.77" height="0.461" transform="translate(242.465 627.251)" fill="#ebebeb"/>
      <path id="Path_3928" data-name="Path 3928" d="M404.83,576.557H48.722A10.531,10.531,0,0,1,38.21,566.026V65.439A10.531,10.531,0,0,1,48.722,55H404.83a10.531,10.531,0,0,1,10.531,10.531v500.5A10.531,10.531,0,0,1,404.83,576.557ZM48.722,55.369a10.07,10.07,0,0,0-10.051,10.07V566.026A10.07,10.07,0,0,0,48.722,576.1H404.83a10.088,10.088,0,0,0,10.07-10.07V65.439a10.088,10.088,0,0,0-10.07-10.07Z" transform="translate(32.259 -55)" fill="#ebebeb"/>
      <path id="Path_3929" data-name="Path 3929" d="M621.157,576.557H265.031A10.549,10.549,0,0,1,254.5,566.026V65.439A10.549,10.549,0,0,1,265.031,55H621.157a10.531,10.531,0,0,1,10.494,10.439V566.026A10.531,10.531,0,0,1,621.157,576.557ZM265.031,55.369a10.088,10.088,0,0,0-10.07,10.07V566.026a10.088,10.088,0,0,0,10.07,10.07H621.157a10.088,10.088,0,0,0,10.07-10.07V65.439a10.088,10.088,0,0,0-10.07-10.07Z" transform="translate(214.864 -55)" fill="#ebebeb"/>
      <rect id="Rectangle_141" data-name="Rectangle 141" width="211.371" height="233.907" transform="translate(531.811 152.17)" fill="#e9e9e9"/>
      <rect id="Rectangle_142" data-name="Rectangle 142" width="193.334" height="215.852" transform="translate(541.106 161.428)" fill="#f5f5f5"/>
      <path id="Path_3930" data-name="Path 3930" d="M348.045,142.53,293.4,347.169V236.384l25.008-93.854Z" transform="translate(247.706 18.898)" fill="#fff"/>
      <path id="Path_3931" data-name="Path 3931" d="M367.626,142.53,309.993,358.382H299.13L356.763,142.53Z" transform="translate(252.543 18.898)" fill="#fff"/>
      <path id="Path_3932" data-name="Path 3932" d="M417.4,174.45v110.8l-12.246,46.18H375.52Z" transform="translate(317.036 45.847)" fill="#fff"/>
      <rect id="Rectangle_143" data-name="Rectangle 143" width="7.506" height="233.907" transform="translate(633.743 152.17)" fill="#e9e9e9"/>
      <rect id="Rectangle_144" data-name="Rectangle 144" width="203.643" height="7.506" transform="translate(535.481 199.623)" fill="#e9e9e9"/>
      <rect id="Rectangle_145" data-name="Rectangle 145" width="211.371" height="233.907" transform="translate(171.59 152.17)" fill="#e9e9e9"/>
      <rect id="Rectangle_146" data-name="Rectangle 146" width="193.334" height="215.852" transform="translate(180.903 161.428)" fill="#f5f5f5"/>
      <path id="Path_3933" data-name="Path 3933" d="M152.717,142.53,98.09,347.169V236.384l24.99-93.854Z" transform="translate(82.813 18.898)" fill="#fff"/>
      <path id="Path_3934" data-name="Path 3934" d="M172.316,142.53,114.683,358.382H103.82L161.435,142.53Z" transform="translate(87.651 18.898)" fill="#fff"/>
      <path id="Path_3935" data-name="Path 3935" d="M222.075,174.45v110.8l-12.227,46.18H180.21Z" transform="translate(152.144 45.847)" fill="#fff"/>
      <rect id="Rectangle_147" data-name="Rectangle 147" width="7.506" height="233.907" transform="translate(273.541 152.17)" fill="#e9e9e9"/>
      <rect id="Rectangle_148" data-name="Rectangle 148" width="203.643" height="7.506" transform="translate(175.26 199.623)" fill="#e9e9e9"/>
      <path id="Path_3936" data-name="Path 3936" d="M290.84,122.288s41.9,57.633,123.676,57.633S547.69,107.7,547.69,107.7l7.709,6.805s-9,117.516,3.209,136.844-17.373,33.953-5.127,60.381-.646,30.854,1.273,60.123-9,64.346-7.063,93.393,7.063,31.168,7.063,31.168l-9,9.221s-19.273-28.531-7.709-72.59-8.354-44.262,1.936-65.693,16.063-32.551,5.773-55.623,12.209-29.508,5.791-53.3-12.209-99.166-3.209-136.143c0,0-42.086,67.094-133.819,67.094S286.727,131.97,286.727,131.97s8.355,75.744,0,90.516.646,20.8-4.5,39.947,20.287,61.248,8.557,77.459-17.391,26.059-9.221,49.8-13.611,36.774-3.818,61.967-5.791,49.242-5.791,49.242l-10.844-4.463s15.1-20.729,4-52.229,16.709-33.455,7.617-60.1,19.033-39.781,9.221-63.424-14.754-40.168-9.221-66.615-1.051-28.328,4.887-43.764,6.307-55.863,1.936-72.277C279.571,138,282.669,123.007,290.84,122.288Z" transform="translate(220.445 -10.508)" fill="#e0e0e0"/>
      <path id="Path_3937" data-name="Path 3937" d="M298.011,116.72s40.7,52.137,124.248,52.137S555.378,103.81,555.378,103.81l8,5.994s-4.113,107.8,9.5,126.276-16.6,33.049-2.527,59.219c14.385,26.613.793,31.131,4.334,61.229,3.6,30.688-6.676,68.238-3.061,100.014,3.689,32.4,9.59,34.783,9.59,34.783l-9.7,10.365s-23.109-31.906-12.191-80.318c10.6-47.029-11.066-47.066-.885-69.492,10.107-22.131,15.787-33.363,3.689-56.582-11.914-22.887,11.545-29.268,3.689-52.377-7.764-22.777-16.8-92.951-9.221-126.2,0,0-40.316,60.861-134.336,60.861s-128.711-52.248-128.711-52.248,5.68,69.326-3.523,83.213-.148,19.789-6.307,38.232,19.051,60.492,5.809,76.906-19.9,26.742-12.172,51.455c7.838,25.082-16.783,39.1-7.193,66.393,9.738,27.793-9.037,54.775-9.037,54.775L249.12,491.27s18.148-23.219,7.377-57.873c-10.549-33.934,20.158-36.037,11.471-64.18-8.539-27.664,22.408-41.09,12.818-65.029-9.443-23.588-13.887-39.873-6.695-65.563,7.082-25.266.184-27.055,6.99-41.606s8.723-51.51,4.961-66.393C286.079,130.755,289.786,117.347,298.011,116.72Z" transform="translate(210.322 -13.792)" fill="#f0f0f0"/>
      <path id="Path_3938" data-name="Path 3938" d="M342.759,122.288s-41.92,57.633-123.676,57.633S85.909,107.7,85.909,107.7L78.2,114.505s8.982,117.516-3.227,136.844S92.327,285.3,80.118,311.73s.645,30.854-1.291,60.123,9,64.346,7.082,93.393-7.082,31.168-7.082,31.168l9,9.221s19.254-28.531,7.709-72.59,8.354-44.262-1.844-65.693S77.573,334.8,87.827,311.73s-12.209-29.508-5.773-53.3,12.209-99.166,3.209-136.143c0,0,42.068,67.094,133.819,67.094S346.835,131.97,346.835,131.97s-8.354,75.744,0,90.516-.646,20.8,4.5,39.947-20.287,61.248-8.557,77.459,17.373,26.059,9.221,49.8,13.629,36.774,3.836,61.967,5.791,49.242,5.791,49.242l10.826-4.463S357.366,475.7,368.468,444.2s-16.727-33.455-7.617-60.1-19.051-39.781-9.221-63.424,14.754-40.168,9.221-66.615,1.051-28.328-4.887-43.764-6.307-55.863-1.955-72.277C354.009,138,350.929,123.007,342.759,122.288Z" transform="translate(60.746 -10.508)" fill="#e0e0e0"/>
      <path id="Path_3939" data-name="Path 3939" d="M350.043,116.72s-40.721,52.137-124.285,52.137-133.1-65.047-133.1-65.047l-8,5.994s4.094,107.8-9.5,126.276,16.6,33.049,2.527,59.219c-14.385,26.613-.811,31.131-4.334,61.229-3.689,30.688,6.658,68.238,3.061,100.014-3.689,32.4-9.59,34.783-9.59,34.783l9.7,10.365s23.109-31.906,12.191-80.318c-10.623-47.029,11.066-47.066.885-69.492C79.49,329.75,73.81,318.519,85.908,295.3c11.914-22.887-11.545-29.268-3.689-52.377,7.746-22.777,16.8-92.951,9.221-126.2,0,0,40.3,60.861,134.336,60.861s128.711-52.248,128.711-52.248-5.68,69.326,3.5,83.213.166,19.789,6.326,38.232-19.07,60.51-5.773,76.85,19.918,26.742,12.191,51.455c-7.857,25.082,16.764,39.1,7.193,66.393-9.756,27.793,9.018,54.775,9.018,54.775l12.025-5.035S380.824,468,391.594,433.342c10.549-33.934-20.158-36.037-11.49-64.18,8.539-27.664-22.408-41.09-12.8-65.029,9.443-23.588,13.887-39.873,6.695-65.563-7.082-25.266-.184-27.055-6.99-41.607s-8.723-51.51-4.961-66.393C361.975,130.755,358.268,117.347,350.043,116.72Z" transform="translate(56.413 -13.792)" fill="#f0f0f0"/>
      <path id="Path_3940" data-name="Path 3940" d="M248.732,608.64l-.922-.092c0-.258,2.453-27.018,2.453-48.947,0-4.021,0-17.5-.2-37.9-.572-92.047-1.844-307.641.2-334,2.49-31.777,2.822-79.027,2.822-79.506h.922c0,.461-.332,47.748-2.822,79.561-2.084,26.318-.775,241.875-.2,333.922.111,20.4.2,33.861.2,37.9C251.185,581.585,248.751,608.363,248.732,608.64Z" transform="translate(209.216 -10.085)" fill="#e0e0e0"/>
      <path id="Path_3941" data-name="Path 3941" d="M255,618.894l-.9-.166c1.162-6.51-.424-68.238-2.268-139.832-2.453-95.238-5.533-213.768-2.8-238.168,4.537-41.994,26.207-145.272,26.428-146.268l.9.2c-.221,1.033-21.8,104.293-26.41,146.158-2.674,24.344.35,142.838,2.8,238.039C254.6,550.453,256.185,612.291,255,618.894Z" transform="translate(209.343 -21.686)" fill="#e0e0e0"/>
      <path id="Path_3942" data-name="Path 3942" d="M263.877,592.39c-7.156-5.92-19.992-336.43-14.035-360.866s13.2-45.406,20.379-59.109,16.709-58.334,16.8-58.795l.9.2c-.092.443-9.572,45.055-16.893,59.016-7.137,13.629-14.348,34.543-20.287,58.887-2.969,12.172-.977,105.326,2.139,186.731,3.689,97.912,8.613,170.742,11.582,173.194Z" transform="translate(209.637 -5.51)" fill="#e0e0e0"/>
      <path id="Path_3943" data-name="Path 3943" d="M247.318,609.278l-.848-.369c7.377-17.723,6.934-334.567,6.676-349.284-.148-8.244-1.42-23.662-2.748-40-1.641-19.881-3.486-42.418-3.689-56.084-.277-25.82-2.121-67.647-4.74-75.5l.867-.3c2.656,7.949,4.518,49.8,4.8,75.8.148,13.647,1.992,36.147,3.689,56.01,1.346,16.34,2.619,31.8,2.766,40.057C254.327,274.342,254.788,591.426,247.318,609.278Z" transform="translate(204.285 -27.359)" fill="#e0e0e0"/>
      <path id="Path_3944" data-name="Path 3944" d="M252.685,612.627c-.516-6.695,2.25-14.754,5.533-24.16s6.676-19.531,7.672-30.6c.443-4.482.756-7.727,1.014-10.18a60.215,60.215,0,0,0,.627-11.066c0-2.453-.166-6.584-.148-15.363.111-33.824-.148-67.906-.775-101.305-.369-19.365-.867-38.287-1.457-56.213v-7.377a86.849,86.849,0,0,0-1-16.229,107.908,107.908,0,0,1-2.139-28.254c.258-2.859.682-5.717,1.107-8.5.516-3.357,1.051-6.824,1.236-10.273a107.923,107.923,0,0,0-1.2-18.922l-7.193-58.168c-1.512-12.32-3.08-25.045-5.348-37.457a67.665,67.665,0,0,0-5.182-14.994c-1.328-3.08-2.711-6.27-3.8-9.572-2.361-7.193-4.518-14.975-7.008-25.248-2.545-10.586-4.777-21.135-6.639-31.352l.9-.166c1.844,10.18,4.094,20.711,6.639,31.352,2.471,10.254,4.629,18.018,6.99,25.193,1.07,3.246,2.434,6.418,3.689,9.479a68.808,68.808,0,0,1,5.238,15.2c2.268,12.449,3.854,25.193,5.367,37.512l7.193,58.168a109.584,109.584,0,0,1,1.2,19.088c-.185,3.486-.719,6.99-1.236,10.365-.424,2.766-.867,5.533-1.107,8.428A106.2,106.2,0,0,0,265,340.027a88.733,88.733,0,0,1,1,16.4v7.266c.59,17.945,1.088,36.885,1.457,56.232.627,33.418.885,67.5.775,101.324,0,8.76.092,12.91.148,15.344a60.147,60.147,0,0,1-.646,11.231c-.24,2.435-.572,5.7-1,10.18-1.088,11.176-4.648,21.633-7.8,30.836s-5.9,17.281-5.422,23.809Z" transform="translate(192.483 -19.347)" fill="#e0e0e0"/>
      <path id="Path_3945" data-name="Path 3945" d="M259.219,602.768c-1.457-7.727.314-100.567,2.029-190.346,1.512-80.188,2.969-155.932,2.047-166.555a263.147,263.147,0,0,0-4.389-28c-2.287-11.748-4.463-22.832-4.463-34.654,0-20.545-24.344-68.754-24.6-69.234l.83-.424c.24.5,24.695,48.891,24.695,69.658,0,11.729,2.158,22.777,4.445,34.469a269.251,269.251,0,0,1,4.408,28.107c.922,10.66-.535,86.422-2.047,166.647-1.715,89.742-3.486,182.582-2.029,190.162Z" transform="translate(194.045 -5.56)" fill="#e0e0e0"/>
      <path id="Path_3946" data-name="Path 3946" d="M235.665,88.161c-29.674,5.09-14.625,50.57,7.211,49.15h.627a17.768,17.768,0,0,0-.111,2.416,7.377,7.377,0,0,0,3.689-1.18,17.19,17.19,0,0,0-1.328-1.7C264.749,131.151,264.38,83.255,235.665,88.161Z" transform="translate(184.973 -27.301)" fill="#ebebeb"/>
      <path id="Path_3947" data-name="Path 3947" d="M274.427,80.152c-29.932-3.246-27.941,44.613-6.547,49.242a3.52,3.52,0,0,0,.609.111,18.439,18.439,0,0,0-.756,2.305,7.377,7.377,0,0,0,3.873-.111,16.6,16.6,0,0,0-.793-1.992C290.6,129.449,303.4,83.287,274.427,80.152Z" transform="translate(212.642 -33.898)" fill="#f5f5f5"/>
      <path id="Path_3948" data-name="Path 3948" d="M249.008,75.678c-29.859,3.928-16.6,49.961,5.275,49.408h.627a17.312,17.312,0,0,0-.184,2.416,7.377,7.377,0,0,0,3.689-1.033,16.232,16.232,0,0,0-1.254-1.752C276.377,119.756,277.889,71.879,249.008,75.678Z" transform="translate(195.569 -37.723)" fill="#e0e0e0"/>
      <path id="Path_3949" data-name="Path 3949" d="M262.292,92.114c-30.006-2.527-26.852,45.277-5.367,49.389l.609.092a16.836,16.836,0,0,0-.7,2.324,7.488,7.488,0,0,0,3.873-.2,18.674,18.674,0,0,0-.848-1.992C279.646,141.006,291.394,94.567,262.292,92.114Z" transform="translate(202.867 -23.748)" fill="#e6e6e6"/>
      <path id="Path_3950" data-name="Path 3950" d="M282.842,107.792c-21.412-7.912-28.77,27.664-13.887,35.041l.424.184a12.911,12.911,0,0,0-.977,1.568,5.7,5.7,0,0,0,2.877.627,11.633,11.633,0,0,0-.24-1.623C285.645,147.038,303.571,115.446,282.842,107.792Z" transform="translate(220.475 -11.393)" fill="#ebebeb"/>
      <path id="Path_3951" data-name="Path 3951" d="M230.412,109.31c-20.748,9.516-.867,39.91,14.865,34.635l.443-.184a12.9,12.9,0,0,0,.406,1.844,5.532,5.532,0,0,0,2.471-1.586,13.946,13.946,0,0,0-1.291-1C260.1,135.148,250.5,100.107,230.412,109.31Z" transform="translate(186.999 -10.439)" fill="#e0e0e0"/>
      <path id="Path_3952" data-name="Path 3952" d="M410.415,608.631c0-.277-2.453-27.055-2.453-49.039,0-4.039.092-17.5.2-37.9.572-92.047,1.844-307.6-.2-333.922-2.49-31.813-2.822-79.1-2.822-79.561h.922c0,.48.332,47.729,2.822,79.506,2.066,26.354.775,241.948.2,334-.111,20.4-.2,33.879-.2,37.9,0,21.928,2.416,48.688,2.453,48.947Z" transform="translate(342.043 -10.077)" fill="#e0e0e0"/>
      <path id="Path_3953" data-name="Path 3953" d="M414.307,618.894c-1.18-6.6.406-68.44,2.25-140.035,2.434-95.2,5.533-213.694,2.8-238.039C414.749,198.956,393.171,95.7,392.95,94.663l.9-.2c.221,1.051,21.8,104.348,26.428,146.268,2.674,24.4-.369,142.93-2.8,238.168-1.844,71.539-3.43,133.322-2.268,139.832Z" transform="translate(331.752 -21.686)" fill="#e0e0e0"/>
      <path id="Path_3954" data-name="Path 3954" d="M410.569,592.381l-.59-.719c2.969-2.453,7.838-75.283,11.582-173.194,3.117-81.406,5.109-174.559,2.139-186.731-5.939-24.344-13.15-45.258-20.287-58.887-7.377-13.979-16.8-58.592-16.893-59.016l.885-.2c.111.461,9.553,44.945,16.82,58.795s14.4,34.691,20.379,59.109S417.725,586.443,410.569,592.381Z" transform="translate(326.323 -5.501)" fill="#e0e0e0"/>
      <path id="Path_3955" data-name="Path 3955" d="M414.582,609.278c-7.469-17.852-7.008-334.936-6.75-349.672.148-8.262,1.42-23.7,2.748-40.057,1.641-19.863,3.486-42.418,3.689-56.01.277-25.949,2.139-67.869,4.8-75.8l.867.3c-2.619,7.838-4.463,49.629-4.74,75.5-.148,13.684-1.992,36.2-3.689,56.084-1.346,16.34-2.6,31.758-2.748,40-.258,14.754-.738,331.561,6.676,349.284Z" transform="translate(344.22 -27.359)" fill="#e0e0e0"/>
      <path id="Path_3956" data-name="Path 3956" d="M422.167,612.635h-.9c.48-6.529-2.25-14.533-5.422-23.809s-6.732-19.66-7.8-30.836c-.424-4.482-.756-7.746-1-10.18a60.138,60.138,0,0,1-.645-11.232c0-2.471.166-6.584.129-15.344-.092-33.787.166-67.869.793-101.324.369-19.383.848-38.287,1.457-56.231v-7.266a88.722,88.722,0,0,1,1-16.4A106.2,106.2,0,0,0,411.912,312c-.258-2.822-.682-5.662-1.107-8.428-.516-3.375-1.051-6.879-1.236-10.365a107.816,107.816,0,0,1,1.2-19.088l7.193-58.168c1.512-12.32,3.1-25.063,5.348-37.512a69.8,69.8,0,0,1,5.256-15.2,91.733,91.733,0,0,0,3.688-9.479c2.361-7.174,4.518-14.939,6.99-25.193,2.545-10.586,4.777-21.117,6.639-31.352l.9.166c-1.844,10.18-4.094,20.729-6.658,31.352-2.471,10.273-4.629,18.055-6.99,25.248-1.088,3.3-2.471,6.492-3.8,9.572a67.668,67.668,0,0,0-5.182,14.994c-2.268,12.412-3.836,25.137-5.367,37.457l-7.174,58.168A109.855,109.855,0,0,0,410.4,293.1c.2,3.449.719,6.916,1.236,10.272.424,2.785.867,5.643,1.125,8.5a107.092,107.092,0,0,1-2.158,28.254,88.528,88.528,0,0,0-.978,16.229c0,2.379,0,4.832,0,7.377-.609,17.926-1.088,36.885-1.457,56.213-.627,33.436-.885,67.518-.793,101.305,0,8.779,0,12.91-.129,15.363a60.215,60.215,0,0,0,.627,11.066c.258,2.453.572,5.7,1.014,10.18,1.07,11.066,4.611,21.467,7.746,30.633S422.683,605.941,422.167,612.635Z" transform="translate(343.072 -19.355)" fill="#e0e0e0"/>
      <path id="Path_3957" data-name="Path 3957" d="M412.942,602.785l-.9-.166c1.457-7.635-.314-100.42-2.029-190.143-1.531-80.225-2.969-156.006-2.047-166.666a269.247,269.247,0,0,1,4.408-28.144c2.287-11.693,4.426-22.74,4.426-34.469,0-20.766,24.473-69.16,24.713-69.658l.83.424c-.258.48-24.6,48.688-24.621,69.234,0,11.822-2.158,22.906-4.445,34.654a263.162,263.162,0,0,0-4.389,28c-.922,10.623.516,86.367,2.047,166.574C412.647,502.236,414.418,595.058,412.942,602.785Z" transform="translate(344.182 -5.577)" fill="#e0e0e0"/>
      <path id="Path_3958" data-name="Path 3958" d="M438.828,88.161c29.674,5.09,14.625,50.57-7.211,49.15h-.627a17.778,17.778,0,0,1,.111,2.416,7.377,7.377,0,0,1-3.688-1.18,17.193,17.193,0,0,1,1.328-1.7C409.744,131.151,410.113,83.255,438.828,88.161Z" transform="translate(350.939 -27.301)" fill="#ebebeb"/>
      <path id="Path_3959" data-name="Path 3959" d="M399.982,80.152c29.932-3.246,27.922,44.613,6.547,49.242a3.52,3.52,0,0,1-.609.111,18.444,18.444,0,0,1,.756,2.305,7.377,7.377,0,0,1-3.891-.111,18.556,18.556,0,0,1,.811-1.992C383.808,129.449,371.009,83.287,399.982,80.152Z" transform="translate(323.355 -33.898)" fill="#f5f5f5"/>
      <path id="Path_3960" data-name="Path 3960" d="M425.411,75.678c29.859,3.928,16.6,49.961-5.275,49.408h-.627a17.312,17.312,0,0,1,.184,2.416,7.377,7.377,0,0,1-3.689-1.033,17.974,17.974,0,0,1,1.273-1.752C398.042,119.756,396.53,71.879,425.411,75.678Z" transform="translate(340.418 -37.723)" fill="#e0e0e0"/>
      <path id="Path_3961" data-name="Path 3961" d="M412.083,92.114c30.006-2.527,26.852,45.277,5.367,49.389l-.609.092a20.3,20.3,0,0,1,.7,2.324,7.488,7.488,0,0,1-3.873-.2,15.108,15.108,0,0,1,.848-1.992C394.728,141.006,383.054,94.567,412.083,92.114Z" transform="translate(333.164 -23.748)" fill="#e6e6e6"/>
      <path id="Path_3962" data-name="Path 3962" d="M387.706,107.792c21.412-7.912,28.77,27.664,13.887,35.041l-.424.184a12.908,12.908,0,0,1,.977,1.568,5.7,5.7,0,0,1-2.877.627,11.629,11.629,0,0,1,.24-1.623C384.885,147.038,366.977,115.446,387.706,107.792Z" transform="translate(319.383 -11.393)" fill="#ebebeb"/>
      <path id="Path_3963" data-name="Path 3963" d="M440.4,109.31c20.748,9.516.848,39.91-14.865,34.635l-.443-.184a12.9,12.9,0,0,1-.406,1.844,5.533,5.533,0,0,1-2.49-1.586,12.918,12.918,0,0,1,1.31-1C410.669,135.148,420.278,100.107,440.4,109.31Z" transform="translate(352.633 -10.439)" fill="#e0e0e0"/>
      <path id="Path_3964" data-name="Path 3964" d="M92.422,608.64l-.922-.092c0-.258,2.453-27.018,2.453-48.947,0-4.021,0-17.5-.2-37.9-.572-92.047-1.844-307.641.2-334,2.49-31.777,2.822-79.027,2.822-79.506H97.7c0,.461-.332,47.748-2.822,79.561-2.066,26.318-.775,241.875-.2,333.922.111,20.4.2,33.861.2,37.9C94.875,581.585,92.422,608.363,92.422,608.64Z" transform="translate(77.25 -10.085)" fill="#e0e0e0"/>
      <path id="Path_3965" data-name="Path 3965" d="M98.693,618.894l-.9-.166c1.162-6.51-.424-68.238-2.268-139.832-2.434-95.238-5.533-213.768-2.8-238.168,4.629-41.994,26.207-145.272,26.428-146.268l.9.2c-.221,1.033-21.8,104.293-26.41,146.158-2.674,24.344.369,142.838,2.8,238.039C98.287,550.453,99.873,612.291,98.693,618.894Z" transform="translate(77.379 -21.686)" fill="#e0e0e0"/>
      <path id="Path_3966" data-name="Path 3966" d="M107.567,592.39c-7.156-5.938-19.992-336.43-14.035-360.866s13.2-45.406,20.287-59.109,16.709-58.334,16.82-58.795l.885.2c0,.443-9.572,45.055-16.893,59.016-7.137,13.629-14.348,34.543-20.287,58.887-2.969,12.172-.977,105.326,2.139,186.731,3.689,97.912,8.613,170.742,11.582,173.194Z" transform="translate(77.671 -5.51)" fill="#e0e0e0"/>
      <path id="Path_3967" data-name="Path 3967" d="M91.008,609.278l-.848-.369c7.377-17.723,6.934-334.567,6.676-349.284-.148-8.244-1.4-23.662-2.748-40-1.641-19.881-3.486-42.418-3.689-56.084-.277-25.82-2.121-67.666-4.74-75.5l.867-.3c2.656,7.93,4.518,49.8,4.8,75.8.148,13.647,1.992,36.147,3.689,56.01,1.328,16.359,2.6,31.8,2.748,40.057C98.017,274.342,98.478,591.426,91.008,609.278Z" transform="translate(72.319 -27.359)" fill="#e0e0e0"/>
      <path id="Path_3968" data-name="Path 3968" d="M96.375,612.627c-.516-6.695,2.25-14.754,5.533-24.16s6.6-19.531,7.672-30.6c.443-4.482.756-7.727,1.014-10.18a60.216,60.216,0,0,0,.627-11.066c0-2.453-.166-6.584-.129-15.363,0-33.787-.166-67.869-.793-101.305-.369-19.365-.848-38.287-1.457-56.213v-7.377a88.527,88.527,0,0,0-.977-16.229,107.094,107.094,0,0,1-2.158-28.254c.258-2.859.7-5.717,1.125-8.5.516-3.357,1.033-6.824,1.236-10.273a109.842,109.842,0,0,0-1.217-18.922l-7.174-58.168c-1.531-12.32-3.1-25.045-5.367-37.457a67.667,67.667,0,0,0-5.182-14.994c-1.328-3.08-2.711-6.27-3.8-9.572-2.361-7.193-4.518-14.975-6.99-25.248-2.564-10.6-4.8-21.154-6.658-31.352l.9-.166c1.844,10.162,4.094,20.693,6.639,31.352,2.471,10.254,4.629,18.018,6.99,25.193,1.07,3.246,2.434,6.418,3.689,9.479a69.806,69.806,0,0,1,5.256,15.2c2.25,12.449,3.836,25.193,5.348,37.512l7.193,58.168a107.815,107.815,0,0,1,1.2,19.088c-.184,3.486-.719,6.99-1.236,10.365-.424,2.766-.848,5.533-1.107,8.428a106.193,106.193,0,0,0,2.139,28.014,88.727,88.727,0,0,1,1,16.4v7.266c.609,17.945,1.088,36.885,1.457,56.232.627,33.455.885,67.537.793,101.324,0,8.76,0,12.91.129,15.344a60.142,60.142,0,0,1-.645,11.231c-.24,2.435-.572,5.7-1,10.18-1.07,11.176-4.648,21.633-7.8,30.836s-5.9,17.281-5.422,23.809Z" transform="translate(60.517 -19.347)" fill="#e0e0e0"/>
      <path id="Path_3969" data-name="Path 3969" d="M102.928,602.768c-1.475-7.727.3-100.549,2.01-190.328,1.531-80.207,2.969-155.951,2.047-166.574a263.181,263.181,0,0,0-4.389-28c-2.287-11.748-4.445-22.832-4.445-34.654,0-20.545-24.363-68.754-24.621-69.234l.83-.424c.24.5,24.695,48.891,24.713,69.658,0,11.729,2.139,22.777,4.426,34.469a269.273,269.273,0,0,1,4.408,28.107c.922,10.66-.516,86.44-2.047,166.666-1.715,89.723-3.486,182.582-2.029,190.143Z" transform="translate(62.078 -5.56)" fill="#e0e0e0"/>
      <path id="Path_3970" data-name="Path 3970" d="M79.355,88.161c-29.674,5.09-14.625,50.57,7.211,49.15h.627a17.779,17.779,0,0,0-.111,2.416,7.377,7.377,0,0,0,3.689-1.18,17.186,17.186,0,0,0-1.328-1.7C108.439,131.151,108.07,83.255,79.355,88.161Z" transform="translate(53.007 -27.301)" fill="#ebebeb"/>
      <path id="Path_3971" data-name="Path 3971" d="M118.114,80.152c-29.932-3.246-27.922,44.613-6.547,49.242a3.52,3.52,0,0,0,.609.111,18.438,18.438,0,0,0-.756,2.305,7.377,7.377,0,0,0,3.891-.111,18.553,18.553,0,0,0-.811-1.992C134.288,129.449,147.087,83.287,118.114,80.152Z" transform="translate(80.679 -33.898)" fill="#f5f5f5"/>
      <path id="Path_3972" data-name="Path 3972" d="M92.7,75.678c-29.859,3.928-16.6,49.961,5.275,49.408H98.6a17.314,17.314,0,0,0-.184,2.416,7.377,7.377,0,0,0,3.689-1.033,18,18,0,0,0-1.273-1.752C120.067,119.756,121.579,71.879,92.7,75.678Z" transform="translate(63.603 -37.723)" fill="#e0e0e0"/>
      <path id="Path_3973" data-name="Path 3973" d="M105.982,92.114c-30.006-2.527-26.852,45.277-5.367,49.389l.609.092a20.293,20.293,0,0,0-.7,2.324,7.488,7.488,0,0,0,3.873-.2,15.105,15.105,0,0,0-.848-1.992C123.336,141.006,135.011,94.567,105.982,92.114Z" transform="translate(70.901 -23.748)" fill="#e6e6e6"/>
      <path id="Path_3974" data-name="Path 3974" d="M126.532,107.792c-21.412-7.912-28.77,27.664-13.887,35.041l.424.184a12.91,12.91,0,0,0-.977,1.568,5.7,5.7,0,0,0,2.877.627,11.642,11.642,0,0,0-.24-1.623C129.354,147.038,147.261,115.446,126.532,107.792Z" transform="translate(88.509 -11.393)" fill="#ebebeb"/>
      <path id="Path_3975" data-name="Path 3975" d="M74.08,109.31c-20.748,9.516-.848,39.91,14.865,34.635l.443-.184a12.909,12.909,0,0,0,.406,1.844,5.533,5.533,0,0,0,2.49-1.586,12.91,12.91,0,0,0-1.309-1C103.81,135.148,94.2,100.107,74.08,109.31Z" transform="translate(55.018 -10.439)" fill="#e0e0e0"/>
    </g>
    <g id="freepik--Shadow--inject-58" transform="translate(53.576 700.325)">
      <ellipse id="freepik--path--inject-58" cx="396.258" cy="26.963" rx="396.258" ry="26.963" fill="#f5f5f5"/>
    </g>
    <g id="freepik--Confetti--inject-58" transform="translate(119.434 126.465)">
      <path id="Path_3976" data-name="Path 3976" d="M226.392,140.98,219.07,150.5l14.625,6.584Z" transform="translate(65.518 -53.876)" fill="#407bff"/>
      <path id="Path_3977" data-name="Path 3977" d="M250.2,256.511l9.406-7.432L247.03,239.12Z" transform="translate(89.123 28.98)" fill="#407bff"/>
      <path id="Path_3978" data-name="Path 3978" d="M191.994,140.248l-.7-11.988-15.363,4.629Z" transform="translate(29.096 -64.615)" fill="#407bff"/>
      <path id="Path_3979" data-name="Path 3979" d="M212.093,241.34l-7.3,9.516,14.625,6.584Z" transform="translate(53.462 30.854)" fill="#407bff"/>
      <path id="Path_3980" data-name="Path 3980" d="M72.063,205.66l-7.3,9.5,14.625,6.584Z" transform="translate(-64.76 0.731)" fill="#407bff"/>
      <path id="Path_3981" data-name="Path 3981" d="M204.872,171.92l11.711.738-1.475,13.168-13.887-3.652Z" transform="translate(50.448 -27.754)" fill="#407bff"/>
      <path id="Path_3982" data-name="Path 3982" d="M231.742,218.028l-5.551,10.346-11.361-6.824,9.129-11.121Z" transform="translate(61.938 4.758)" fill="#407bff"/>
      <path id="Path_3983" data-name="Path 3983" d="M415.132,241.89l-5.551,10.346-11.361-6.824,9.129-11.1Z" transform="translate(216.767 24.919)" fill="#407bff"/>
      <path id="Path_3984" data-name="Path 3984" d="M186.242,257.04l11.711.719L196.5,270.927l-13.906-3.652Z" transform="translate(34.719 44.109)" fill="#407bff"/>
      <path id="Path_3985" data-name="Path 3985" d="M241.686,182.24l7.377,1.457s-11.066,7.377-5.846,13.168-3.689,11.066-3.689,11.066L233,203.449s5.865-4.389,2.932-10.236S241.686,182.24,241.686,182.24Z" transform="translate(77.278 -19.041)" fill="#407bff"/>
      <path id="Path_3986" data-name="Path 3986" d="M329.812,177.33l7.377,1.475s-10.973,7.377-5.846,13.168-3.688,10.973-3.688,10.973l-6.584-4.389s5.846-4.389,2.914-10.254S329.812,177.33,329.812,177.33Z" transform="translate(151.632 -23.187)" fill="#407bff"/>
      <path id="Path_3987" data-name="Path 3987" d="M248.893,130.48l-6.713,9.941,15.012,5.68Z" transform="translate(85.028 -62.74)" fill="#407bff"/>
      <path id="Path_3988" data-name="Path 3988" d="M308.083,113.36,301.37,123.3l15.012,5.68Z" transform="translate(135 -77.194)" fill="#407bff"/>
      <path id="Path_3989" data-name="Path 3989" d="M397.813,108.18l-6.713,9.941,15.012,5.662Z" transform="translate(210.756 -81.567)" fill="#407bff"/>
      <path id="Path_3990" data-name="Path 3990" d="M280.459,122.243l4.094-11.287L268.6,109.13Z" transform="translate(107.334 -80.765)" fill="#407bff"/>
      <path id="Path_3991" data-name="Path 3991" d="M273.39,145.867l2.158-11.527,12.891,3.043-5.311,13.371Z" transform="translate(111.378 -59.482)" fill="#407bff"/>
      <path id="Path_3992" data-name="Path 3992" d="M370.18,142.845l2.139-11.545,12.891,3.061L379.9,147.714Z" transform="translate(193.094 -62.048)" fill="#407bff"/>
      <path id="Path_3993" data-name="Path 3993" d="M401.87,204.247l2.139-11.527,12.891,3.043-5.311,13.352Z" transform="translate(219.848 -10.194)" fill="#407bff"/>
      <path id="Path_3994" data-name="Path 3994" d="M287.65,172.017l2.139-11.527,12.91,3.043-5.33,13.352Z" transform="translate(123.417 -37.404)" fill="#407bff"/>
      <path id="Path_3995" data-name="Path 3995" d="M345.988,159.783l-7.377.811s8.244-10.291,1.586-14.311.148-11.564.148-11.564l7.488,2.176s-4.242,5.957.314,10.641S345.988,159.783,345.988,159.783Z" transform="translate(165.314 -59.161)" fill="#407bff"/>
      <path id="Path_3996" data-name="Path 3996" d="M187.672,280.18l7.377,1.457s-10.973,7.377-5.846,13.168-3.689,10.973-3.689,10.973l-6.584-4.389s5.865-4.389,2.932-10.236S187.672,280.18,187.672,280.18Z" transform="translate(31.629 63.645)" fill="#407bff"/>
      <path id="Path_3997" data-name="Path 3997" d="M300.992,234.8l-7.322,9.516,14.643,6.584Z" transform="translate(128.499 25.333)" fill="#407bff"/>
      <path id="Path_3998" data-name="Path 3998" d="M434.322,287.82,427,297.336l14.625,6.584Z" transform="translate(241.065 70.095)" fill="#407bff"/>
      <path id="Path_3999" data-name="Path 3999" d="M319.472,210.28l11.711.738-1.475,13.168-13.887-3.652Z" transform="translate(147.2 4.632)" fill="#407bff"/>
      <path id="Path_4000" data-name="Path 4000" d="M343.2,270.52l11.693.738-1.457,13.168-13.906-3.652Z" transform="translate(167.217 55.49)" fill="#407bff"/>
      <path id="Path_4001" data-name="Path 4001" d="M314.21,276.93l7.377,1.457s-10.973,7.377-5.865,13.168-3.689,10.973-3.689,10.973l-6.584-4.389s5.846-4.389,2.932-10.236S314.21,276.93,314.21,276.93Z" transform="translate(138.445 60.901)" fill="#407bff"/>
      <path id="Path_4002" data-name="Path 4002" d="M219.969,133.422l-4.592,1.07s1.955-9.738-3.689-13.113S208,110.83,208,110.83l5.717,1.66a11.656,11.656,0,0,0,3.688,9.682C221.924,126.248,219.969,133.422,219.969,133.422Z" transform="translate(55.895 -79.33)" fill="#407bff"/>
      <path id="Path_4003" data-name="Path 4003" d="M184.83,119.342l-4.611,1.07s1.973-9.756-3.689-13.131-3.689-10.531-3.689-10.531l5.736,1.641a11.693,11.693,0,0,0,3.781,9.7C186.767,112.094,184.83,119.342,184.83,119.342Z" transform="translate(26.209 -91.217)" fill="#407bff"/>
      <path id="Path_4004" data-name="Path 4004" d="M352.629,116.342l-4.592,1.07s1.955-9.738-3.688-13.113S340.66,93.75,340.66,93.75l5.717,1.66a11.656,11.656,0,0,0,3.781,9.682C354.473,109.131,352.629,116.342,352.629,116.342Z" transform="translate(167.895 -93.75)" fill="#407bff"/>
      <path id="Path_4005" data-name="Path 4005" d="M435.32,238.692l-4.611,1.088s1.973-9.756-3.689-13.131-3.688-10.549-3.688-10.549l5.736,1.66a11.637,11.637,0,0,0,3.781,9.682C437.275,231.518,435.32,238.692,435.32,238.692Z" transform="translate(237.687 9.545)" fill="#407bff"/>
      <path id="Path_4006" data-name="Path 4006" d="M193.52,229.722l-6.916,2.8s5.145-12.135-2.342-14.219-2.988-11.176-2.988-11.176h7.912s-2.471,6.879,3.191,10.162S193.52,229.722,193.52,229.722Z" transform="translate(32.476 1.972)" fill="#407bff"/>
      <path id="Path_4007" data-name="Path 4007" d="M176.136,183.383a5.533,5.533,0,1,1-5.533-5.533A5.533,5.533,0,0,1,176.136,183.383Z" transform="translate(19.928 -22.748)" fill="#407bff"/>
      <circle id="Ellipse_79" data-name="Ellipse 79" cx="5.496" cy="5.496" r="5.496" transform="translate(325.401 20.969)" fill="#407bff"/>
      <path id="Path_4008" data-name="Path 4008" d="M298.576,205.053a5.533,5.533,0,1,1-5.533-5.533A5.533,5.533,0,0,1,298.576,205.053Z" transform="translate(123.299 -4.453)" fill="#407bff"/>
      <path id="Path_4009" data-name="Path 4009" d="M416.956,166.173a5.533,5.533,0,1,1-5.533-5.533,5.533,5.533,0,0,1,5.533,5.533Z" transform="translate(223.242 -37.277)" fill="#407bff"/>
      <path id="Path_4010" data-name="Path 4010" d="M365.806,202.433a5.533,5.533,0,1,1-5.533-5.533A5.533,5.533,0,0,1,365.806,202.433Z" transform="translate(180.058 -6.665)" fill="#407bff"/>
      <path id="Path_4011" data-name="Path 4011" d="M431.526,136.873a5.533,5.533,0,1,1-5.533-5.533,5.533,5.533,0,0,1,5.533,5.533Z" transform="translate(235.543 -62.014)" fill="#407bff"/>
      <path id="Path_4012" data-name="Path 4012" d="M86.066,132.533A5.533,5.533,0,1,1,80.533,127,5.533,5.533,0,0,1,86.066,132.533Z" transform="translate(-56.115 -65.678)" fill="#407bff"/>
      <path id="Path_4013" data-name="Path 4013" d="M157.132,132.91l-8.742,8.225,13.408,8.816Z" transform="translate(5.845 -60.689)" fill="#407bff"/>
      <path id="Path_4014" data-name="Path 4014" d="M143.107,248.908l5.828-10.494L133.48,234.08Z" transform="translate(-6.742 24.725)" fill="#407bff"/>
      <path id="Path_4015" data-name="Path 4015" d="M100.45,250.92l-3.08,11.6,16.045.424Z" transform="translate(-37.229 38.942)" fill="#407bff"/>
      <path id="Path_4016" data-name="Path 4016" d="M83.068,237.294l-1.125,11.693L68.83,247.068l4.113-13.758Z" transform="translate(-61.324 24.075)" fill="#407bff"/>
      <path id="Path_4017" data-name="Path 4017" d="M133.839,187.475,141.216,186s-7.285,10.973-.314,14.4.867,11.527.867,11.527l-7.764-1.494s3.689-6.307-1.254-10.586S133.839,187.475,133.839,187.475Z" transform="translate(-9.001 -15.867)" fill="#407bff"/>
      <path id="Path_4018" data-name="Path 4018" d="M104.885,189.911l6.436-10.107L96.18,174.53Z" transform="translate(-38.233 -25.551)" fill="#407bff"/>
      <path id="Path_4019" data-name="Path 4019" d="M129.389,164.967l-11.729.314.3-13.26,14.164,2.434Z" transform="translate(-20.099 -44.555)" fill="#407bff"/>
      <path id="Path_4020" data-name="Path 4020" d="M121.547,128.829l-7.377-.811s10.291-8.262,4.684-13.648,2.674-11.25,2.674-11.25l6.934,3.8s-5.533,4.887-2.01,10.457S121.547,128.829,121.547,128.829Z" transform="translate(-23.045 -85.839)" fill="#407bff"/>
      <path id="Path_4021" data-name="Path 4021" d="M151.392,267.718a5.533,5.533,0,1,1,5.939,4.98,5.533,5.533,0,0,1-5.939-4.98Z" transform="translate(8.358 48)" fill="#407bff"/>
      <g id="Group_244" data-name="Group 244" transform="translate(7.506 5.533)" opacity="0.7">
        <path id="Path_4022" data-name="Path 4022" d="M226.392,140.98,219.07,150.5l14.625,6.584Z" transform="translate(58.012 -59.408)" fill="#fff"/>
        <path id="Path_4023" data-name="Path 4023" d="M250.2,256.511l9.406-7.432L247.03,239.12Z" transform="translate(81.617 23.447)" fill="#fff"/>
        <path id="Path_4024" data-name="Path 4024" d="M212.093,241.34l-7.3,9.516,14.625,6.584Z" transform="translate(45.956 25.321)" fill="#fff"/>
        <path id="Path_4025" data-name="Path 4025" d="M204.872,171.92l11.711.738-1.475,13.168-13.887-3.652Z" transform="translate(42.942 -33.287)" fill="#fff" opacity="0.5"/>
        <path id="Path_4026" data-name="Path 4026" d="M415.132,241.89l-5.551,10.346-11.361-6.824,9.129-11.1Z" transform="translate(209.261 19.386)" fill="#fff"/>
        <path id="Path_4027" data-name="Path 4027" d="M241.686,182.24l7.377,1.457s-11.066,7.377-5.846,13.168-3.689,11.066-3.689,11.066L233,203.449s5.865-4.389,2.932-10.236S241.686,182.24,241.686,182.24Z" transform="translate(69.772 -24.574)" fill="#fff"/>
        <path id="Path_4028" data-name="Path 4028" d="M397.813,108.18l-6.713,9.941,15.012,5.662Z" transform="translate(203.249 -87.1)" fill="#fff"/>
        <path id="Path_4029" data-name="Path 4029" d="M280.459,122.243l4.094-11.287L268.6,109.13Z" transform="translate(99.828 -86.298)" fill="#fff" opacity="0.5"/>
        <path id="Path_4030" data-name="Path 4030" d="M273.39,145.867l2.158-11.527,12.891,3.043-5.311,13.371Z" transform="translate(103.872 -65.014)" fill="#fff"/>
        <path id="Path_4031" data-name="Path 4031" d="M370.18,142.845l2.139-11.545,12.891,3.061L379.9,147.714Z" transform="translate(185.588 -67.581)" fill="#fff" opacity="0.5"/>
        <path id="Path_4032" data-name="Path 4032" d="M401.87,204.247l2.139-11.527,12.891,3.043-5.311,13.352Z" transform="translate(212.342 -15.726)" fill="#fff" opacity="0.5"/>
        <path id="Path_4033" data-name="Path 4033" d="M345.988,159.783l-7.377.811s8.244-10.291,1.586-14.311.148-11.564.148-11.564l7.488,2.176s-4.242,5.957.314,10.641S345.988,159.783,345.988,159.783Z" transform="translate(157.808 -64.693)" fill="#fff"/>
        <path id="Path_4034" data-name="Path 4034" d="M187.672,280.18l7.377,1.457s-10.973,7.377-5.846,13.168-3.689,10.973-3.689,10.973l-6.584-4.389s5.865-4.389,2.932-10.236S187.672,280.18,187.672,280.18Z" transform="translate(24.123 58.113)" fill="#fff" opacity="0.5"/>
        <path id="Path_4035" data-name="Path 4035" d="M300.992,234.8l-7.322,9.516,14.643,6.584Z" transform="translate(120.993 19.8)" fill="#fff"/>
        <path id="Path_4036" data-name="Path 4036" d="M434.322,287.82,427,297.336l14.625,6.584Z" transform="translate(233.558 64.563)" fill="#fff"/>
        <path id="Path_4037" data-name="Path 4037" d="M319.472,210.28l11.711.738-1.475,13.168-13.887-3.652Z" transform="translate(139.694 -0.901)" fill="#fff"/>
        <path id="Path_4038" data-name="Path 4038" d="M314.21,276.93l7.377,1.457s-10.973,7.377-5.865,13.168-3.689,10.973-3.689,10.973l-6.584-4.389s5.846-4.389,2.932-10.236S314.21,276.93,314.21,276.93Z" transform="translate(130.939 55.369)" fill="#fff" opacity="0.5"/>
        <path id="Path_4039" data-name="Path 4039" d="M219.969,133.422l-4.592,1.07s1.955-9.738-3.689-13.113S208,110.83,208,110.83l5.717,1.66a11.656,11.656,0,0,0,3.688,9.682C221.924,126.248,219.969,133.422,219.969,133.422Z" transform="translate(48.389 -84.863)" fill="#fff"/>
        <path id="Path_4040" data-name="Path 4040" d="M184.83,119.342l-4.611,1.07s1.973-9.756-3.689-13.131-3.689-10.531-3.689-10.531l5.736,1.641a11.693,11.693,0,0,0,3.781,9.7C186.767,112.094,184.83,119.342,184.83,119.342Z" transform="translate(18.702 -96.75)" fill="#fff" opacity="0.5"/>
        <path id="Path_4041" data-name="Path 4041" d="M193.52,229.722l-6.916,2.8s5.145-12.135-2.342-14.219-2.988-11.176-2.988-11.176h7.912s-2.471,6.879,3.191,10.162S193.52,229.722,193.52,229.722Z" transform="translate(24.97 -3.561)" fill="#fff"/>
        <circle id="Ellipse_80" data-name="Ellipse 80" cx="5.496" cy="5.496" r="5.496" transform="translate(317.895 15.436)" fill="#fff"/>
        <path id="Path_4042" data-name="Path 4042" d="M298.576,205.053a5.533,5.533,0,1,1-5.533-5.533A5.533,5.533,0,0,1,298.576,205.053Z" transform="translate(115.793 -9.985)" fill="#fff" opacity="0.5"/>
        <path id="Path_4043" data-name="Path 4043" d="M416.956,166.173a5.533,5.533,0,1,1-5.533-5.533,5.533,5.533,0,0,1,5.533,5.533Z" transform="translate(215.736 -42.81)" fill="#fff"/>
        <path id="Path_4044" data-name="Path 4044" d="M365.806,202.433a5.533,5.533,0,1,1-5.533-5.533A5.533,5.533,0,0,1,365.806,202.433Z" transform="translate(172.552 -12.197)" fill="#fff" opacity="0.5"/>
        <path id="Path_4045" data-name="Path 4045" d="M86.066,132.533A5.533,5.533,0,1,1,80.533,127,5.533,5.533,0,0,1,86.066,132.533Z" transform="translate(-63.621 -71.211)" fill="#fff"/>
        <path id="Path_4046" data-name="Path 4046" d="M157.132,132.91l-8.742,8.225,13.408,8.816Z" transform="translate(-1.661 -66.222)" fill="#fff"/>
        <path id="Path_4047" data-name="Path 4047" d="M100.45,250.92l-3.08,11.6,16.045.424Z" transform="translate(-44.735 33.409)" fill="#fff" opacity="0.5"/>
        <path id="Path_4048" data-name="Path 4048" d="M83.068,237.294l-1.125,11.693L68.83,247.068l4.113-13.758Z" transform="translate(-68.83 18.542)" fill="#fff"/>
        <path id="Path_4049" data-name="Path 4049" d="M133.839,187.475,141.216,186s-7.285,10.973-.314,14.4.867,11.527.867,11.527l-7.764-1.494s3.689-6.307-1.254-10.586S133.839,187.475,133.839,187.475Z" transform="translate(-16.507 -21.4)" fill="#fff"/>
        <path id="Path_4050" data-name="Path 4050" d="M104.885,189.911l6.436-10.107L96.18,174.53Z" transform="translate(-45.739 -31.083)" fill="#fff"/>
        <path id="Path_4051" data-name="Path 4051" d="M129.389,164.967l-11.729.314.3-13.26,14.164,2.434Z" transform="translate(-27.605 -50.088)" fill="#fff" opacity="0.5"/>
        <path id="Path_4052" data-name="Path 4052" d="M151.392,267.718a5.533,5.533,0,1,1,5.939,4.98,5.533,5.533,0,0,1-5.939-4.98Z" transform="translate(0.852 42.468)" fill="#fff"/>
      </g>
    </g>
    <g id="freepik--Table--inject-58" transform="translate(682.69 495.852)">
      <path id="Path_4053" data-name="Path 4053" d="M370.17,316.37H532.465c0,8.133-4.684,14.754-10.641,15.178-17.447,1.07-44.262,4.832-52.783,18.018-15.861,24.547-14.33,110.822,4.666,130.813,5.975,6.252,23.33,18.7,23.33,18.7h-91.42s16.229-12.689,21.854-18.7c18.9-20.158,19.439-106.377,3.5-130.813-8.17-12.541-33.326-16.6-50.2-17.871C374.836,331.235,370.17,324.5,370.17,316.37Z" transform="translate(-370.17 -275.188)" fill="#407bff"/>
      <path id="Path_4054" data-name="Path 4054" d="M504.352,325c-16.488,1.844-36.24,6.252-43.322,17.225a49.111,49.111,0,0,0-5.367,12.688H428.405a49.388,49.388,0,0,0-5.533-12.688c-7.1-10.9-27.018-15.4-43.193-17.225Z" transform="translate(-362.141 -267.902)" opacity="0.2"/>
      <path id="Path_4055" data-name="Path 4055" d="M370.17,316.37H532.465c0,8.133-4.684,14.754-10.641,15.178-17.447,1.07-44.262,4.832-52.783,18.018-15.861,24.547-14.33,110.822,4.666,130.813,5.975,6.252,23.33,18.7,23.33,18.7h-91.42s16.229-12.689,21.854-18.7c18.9-20.158,19.439-106.377,3.5-130.813-8.17-12.541-33.326-16.6-50.2-17.871C374.836,331.235,370.17,324.5,370.17,316.37Z" transform="translate(-370.17 -275.188)" fill="#fff" opacity="0.4"/>
      <path id="Path_4056" data-name="Path 4056" d="M455.168,299.776a5.754,5.754,0,1,1-5.736-5.736,5.754,5.754,0,0,1,5.736,5.736Z" transform="translate(-308.125 -294.04)" fill="#407bff"/>
      <path id="Path_4057" data-name="Path 4057" d="M455.168,299.776a5.754,5.754,0,1,1-5.736-5.736,5.754,5.754,0,0,1,5.736,5.736Z" transform="translate(-308.125 -294.04)" fill="#fff" opacity="0.4"/>
      <path id="Path_4058" data-name="Path 4058" d="M444.187,329.867l-5.072,2.729H452.21l-5.072-2.729v-13.8l11.877-18.922h-26.7l11.877,18.922Z" transform="translate(-317.708 -291.414)" fill="#407bff"/>
      <path id="Path_4059" data-name="Path 4059" d="M444.187,329.867l-5.072,2.729H452.21l-5.072-2.729v-13.8l11.877-18.922h-26.7l11.877,18.922Z" transform="translate(-317.708 -291.414)" fill="#fff" opacity="0.7"/>
      <path id="Path_4060" data-name="Path 4060" d="M435.47,301.08h15.123l-6.178,9.221a1.7,1.7,0,0,1-2.84,0Z" transform="translate(-315.04 -288.096)" fill="#407bff"/>
      <path id="Path_4061" data-name="Path 4061" d="M409.31,299.776a5.754,5.754,0,1,0,5.754-5.736A5.754,5.754,0,0,0,409.31,299.776Z" transform="translate(-337.126 -294.04)" fill="#407bff"/>
      <path id="Path_4062" data-name="Path 4062" d="M409.31,299.776a5.754,5.754,0,1,0,5.754-5.736A5.754,5.754,0,0,0,409.31,299.776Z" transform="translate(-337.126 -294.04)" fill="#fff" opacity="0.4"/>
      <path id="Path_4063" data-name="Path 4063" d="M427.239,329.867l5.072,2.729H419.235l5.072-2.729v-13.8L412.43,297.15h26.686l-11.877,18.922Z" transform="translate(-334.492 -291.414)" fill="#407bff"/>
      <path id="Path_4064" data-name="Path 4064" d="M427.239,329.867l5.072,2.729H419.235l5.072-2.729v-13.8L412.43,297.15h26.686l-11.877,18.922Z" transform="translate(-334.492 -291.414)" fill="#fff" opacity="0.7"/>
      <path id="Path_4065" data-name="Path 4065" d="M430.681,301.08H415.54l6.178,9.221a1.7,1.7,0,0,0,2.84,0Z" transform="translate(-331.866 -288.096)" fill="#407bff"/>
      <path id="Path_4066" data-name="Path 4066" d="M407.168,299.776a5.754,5.754,0,1,1-5.736-5.736A5.754,5.754,0,0,1,407.168,299.776Z" transform="translate(-348.65 -294.04)" fill="#407bff"/>
      <path id="Path_4067" data-name="Path 4067" d="M407.168,299.776a5.754,5.754,0,1,1-5.736-5.736A5.754,5.754,0,0,1,407.168,299.776Z" transform="translate(-348.65 -294.04)" fill="#fff" opacity="0.4"/>
      <path id="Path_4068" data-name="Path 4068" d="M396.187,329.867l-5.072,2.729H404.21l-5.072-2.729v-13.8l11.877-18.922h-26.7l11.877,18.922Z" transform="translate(-358.232 -291.414)" fill="#407bff"/>
      <path id="Path_4069" data-name="Path 4069" d="M396.187,329.867l-5.072,2.729H404.21l-5.072-2.729v-13.8l11.877-18.922h-26.7l11.877,18.922Z" transform="translate(-358.232 -291.414)" fill="#fff" opacity="0.7"/>
      <path id="Path_4070" data-name="Path 4070" d="M387.47,301.08h15.123l-6.178,9.221a1.7,1.7,0,0,1-2.84,0Z" transform="translate(-355.564 -288.096)" fill="#407bff"/>
    </g>
    <g id="freepik--gifts-2--inject-58" transform="translate(611.188 638.551)">
      <path id="Path_4071" data-name="Path 4071" d="M370.3,396.119l-1.678-4.408c-22.408,1.033-24.916-7.377-25.156-10.107-.424-4.979,4.094-9.516,10.051-10.125,8.207-.83,13.684,6.529,16.469,11.361,4.242-5.09,12.412-9.221,18.59-9.221h0c4.721,0,8.078,2.232,9.221,6.732a7.377,7.377,0,0,1-1.6,7.23c-5.219,5.883-20.287,4.74-24.768,4.279Zm2.656-9c6.805.609,16.6.2,19.475-2.951a2.379,2.379,0,0,0,.5-2.637c-.572-2.268-1.844-3.08-4.352-3.08h0c-5.367,0-13.076,4.684-15.566,8.668Zm-18.166-10.7h-.775c-3.393.332-5.736,2.785-5.533,4.721.184,2.213,4.316,5.957,18.166,5.533-1.678-3.338-5.846-10.254-11.8-10.254Z" transform="translate(-321.239 -371.415)" fill="#407bff"/>
      <rect id="Rectangle_149" data-name="Rectangle 149" width="97.266" height="66.818" transform="translate(0 17.677)" fill="#407bff"/>
      <rect id="Rectangle_150" data-name="Rectangle 150" width="97.266" height="66.818" transform="translate(0 17.677)" fill="#fff" opacity="0.6"/>
      <rect id="Rectangle_151" data-name="Rectangle 151" width="97.266" height="43.727" transform="translate(0 40.749)" opacity="0.1"/>
      <rect id="Rectangle_152" data-name="Rectangle 152" width="38.637" height="66.818" transform="translate(0 17.677)" fill="#fff" opacity="0.2"/>
      <rect id="Rectangle_153" data-name="Rectangle 153" width="7.912" height="66.818" transform="translate(64.807 17.677)" fill="#407bff"/>
      <rect id="Rectangle_154" data-name="Rectangle 154" width="5.809" height="66.818" transform="translate(13.648 17.677)" fill="#407bff"/>
      <path id="Path_4072" data-name="Path 4072" d="M397.88,402.793l-1.273-3.3c-16.8.775-18.682-5.533-18.848-7.58-.314-3.689,3.062-7.137,7.525-7.58,6.16-.627,10.273,4.887,12.357,8.521a20.692,20.692,0,0,1,13.943-6.99h0a6.455,6.455,0,0,1,6.9,5.053,5.533,5.533,0,0,1-1.2,5.422c-3.91,4.408-15.178,3.559-18.572,3.209Zm1.973-6.732c5.109.443,12.541.129,14.625-2.213a1.844,1.844,0,0,0,.369-1.992c-.424-1.7-1.439-2.305-3.264-2.305h0a16.949,16.949,0,0,0-11.73,6.51Zm-13.611-8.041h-.59c-2.527.258-4.3,2.084-4.168,3.541s3.246,4.463,13.629,4.2c-1.291-2.545-4.408-7.746-8.871-7.746Z" transform="translate(-292.278 -360.551)" fill="#407bff"/>
      <rect id="Rectangle_155" data-name="Rectangle 155" width="72.94" height="50.109" transform="translate(68.754 36.987)" fill="#263238"/>
      <rect id="Rectangle_156" data-name="Rectangle 156" width="72.94" height="32.791" transform="translate(68.754 54.286)" opacity="0.2"/>
      <rect id="Rectangle_157" data-name="Rectangle 157" width="28.973" height="50.109" transform="translate(68.754 36.987)" fill="#fff" opacity="0.1"/>
      <rect id="Rectangle_158" data-name="Rectangle 158" width="5.92" height="50.109" transform="translate(117.369 36.987)" fill="#407bff"/>
      <rect id="Rectangle_159" data-name="Rectangle 159" width="4.352" height="50.109" transform="translate(79.008 36.987)" fill="#407bff"/>
    </g>
    <g id="freepik--gifts-1--inject-58" transform="translate(80.041 584.954)">
      <path id="Path_4073" data-name="Path 4073" d="M91.66,377.1c-4.039.424-17.5,1.438-22.131-3.818a6.621,6.621,0,0,1-1.438-6.473,7.691,7.691,0,0,1,8.207-5.938h0a24.639,24.639,0,0,1,16.6,8.318c2.49-4.334,7.377-10.918,14.754-10.162,5.348.535,9.369,4.592,9,9.055-.2,2.4-2.453,9.959-22.518,9.018l-1.494,3.947ZM76.3,365.261h0c-2.195,0-3.393.682-3.91,2.711-.35,1.439,0,1.844.461,2.342,2.49,2.8,11.342,3.209,17.428,2.674A20.1,20.1,0,0,0,76.3,365.261Zm19.66,7.377c12.393.314,16.082-3.043,16.248-5.016s-1.936-3.928-4.979-4.223a4.252,4.252,0,0,0-.682,0c-5.33-.037-9.074,6.141-10.586,9.24Z" transform="translate(-22.814 -328.327)" fill="#fff"/>
      <g id="Group_245" data-name="Group 245" transform="translate(44.969 30.641)" opacity="0.2">
        <path id="Path_4074" data-name="Path 4074" d="M91.66,377.1c-4.039.424-17.5,1.438-22.131-3.818a6.621,6.621,0,0,1-1.438-6.473,7.691,7.691,0,0,1,8.207-5.938h0a24.639,24.639,0,0,1,16.6,8.318c2.49-4.334,7.377-10.918,14.754-10.162,5.348.535,9.369,4.592,9,9.055-.2,2.4-2.453,9.959-22.518,9.018l-1.494,3.947ZM76.3,365.261h0c-2.195,0-3.393.682-3.91,2.711-.35,1.439,0,1.844.461,2.342,2.49,2.8,11.342,3.209,17.428,2.674A20.1,20.1,0,0,0,76.3,365.261Zm19.66,7.377c12.393.314,16.082-3.043,16.248-5.016s-1.936-3.928-4.979-4.223a4.252,4.252,0,0,0-.682,0c-5.33-.037-9.074,6.141-10.586,9.24Z" transform="translate(-67.783 -358.968)"/>
      </g>
      <rect id="Rectangle_160" data-name="Rectangle 160" width="87.049" height="91.143" transform="translate(113.791 137.502) rotate(180)" fill="#407bff"/>
      <rect id="Rectangle_161" data-name="Rectangle 161" width="87.049" height="91.143" transform="translate(113.791 137.502) rotate(180)" fill="#fff" opacity="0.4"/>
      <rect id="Rectangle_162" data-name="Rectangle 162" width="87.049" height="70.488" transform="translate(113.791 137.52) rotate(180)" opacity="0.2"/>
      <rect id="Rectangle_163" data-name="Rectangle 163" width="7.064" height="91.143" transform="translate(55.789 137.502) rotate(180)" fill="#fff"/>
      <rect id="Rectangle_164" data-name="Rectangle 164" width="5.201" height="91.143" transform="translate(101.582 137.502) rotate(180)" fill="#fff"/>
      <rect id="Rectangle_165" data-name="Rectangle 165" width="34.58" height="91.143" transform="translate(113.791 137.502) rotate(180)" opacity="0.2"/>
      <rect id="Rectangle_166" data-name="Rectangle 166" width="7.064" height="91.143" transform="translate(55.789 137.502) rotate(180)" opacity="0.1"/>
      <path id="Path_4075" data-name="Path 4075" d="M132.922,388.679c-5.016.516-21.67,1.844-27.443-4.74a8.207,8.207,0,0,1-1.844-8c1.254-5,4.961-7.377,10.2-7.377h0c6.842,0,15.916,4.666,20.6,10.309,3.1-5.385,9.221-13.537,18.277-12.615,6.6.664,11.6,5.7,11.066,11.232-.258,2.969-3.043,12.32-27.867,11.176l-1.789,4.85Zm-19.088-14.662h0c-2.711,0-4.2.83-4.832,3.357a2.619,2.619,0,0,0,.553,2.9c3.1,3.486,14.053,3.984,21.6,3.32C128.459,379.163,119.938,374.017,113.834,374.017Zm24.344,9.129c15.363.369,19.936-3.781,20.139-6.215s-2.416-4.869-6.16-5.238a6.823,6.823,0,0,0-.867,0c-6.547-.037-11.158,7.617-13.057,11.453Z" transform="translate(7.149 -322.237)" fill="#263238"/>
      <rect id="Rectangle_167" data-name="Rectangle 167" width="107.815" height="74.065" transform="translate(195.75 137.52) rotate(180)" fill="#407bff"/>
      <rect id="Rectangle_168" data-name="Rectangle 168" width="107.815" height="48.467" transform="translate(195.75 137.502) rotate(180)" opacity="0.2"/>
      <rect id="Rectangle_169" data-name="Rectangle 169" width="8.76" height="74.065" transform="translate(123.897 137.52) rotate(180)" fill="#263238"/>
      <rect id="Rectangle_170" data-name="Rectangle 170" width="6.436" height="74.065" transform="translate(180.627 137.52) rotate(180)" fill="#263238"/>
      <rect id="Rectangle_171" data-name="Rectangle 171" width="42.842" height="74.065" transform="translate(195.75 137.52) rotate(180)" opacity="0.2"/>
      <path id="Path_4076" data-name="Path 4076" d="M126.45,360.864l-1.254-3.3c-16.8.775-18.7-5.533-18.867-7.562-.314-3.688,3.061-7.156,7.525-7.6,6.16-.627,10.273,4.887,12.357,8.521a20.73,20.73,0,0,1,13.943-6.99h0a6.436,6.436,0,0,1,6.9,5.145,5.533,5.533,0,0,1-1.2,5.441c-3.91,4.408-15.178,3.541-18.572,3.191Zm1.992-6.732c5.109.443,12.523.148,14.607-2.213a1.844,1.844,0,0,0,.369-1.973c-.424-1.715-1.42-2.324-3.264-2.324h0A16.875,16.875,0,0,0,128.442,354.132Zm-13.629-8.023h-.572c-2.545.258-4.3,2.084-4.186,3.559s3.246,4.445,13.629,4.186c-1.346-2.564-4.408-7.746-8.871-7.746Z" transform="translate(9.712 -342.353)" fill="#407bff"/>
      <rect id="Rectangle_172" data-name="Rectangle 172" width="72.94" height="50.109" transform="translate(99.332 13.254)" fill="#263238"/>
      <rect id="Rectangle_173" data-name="Rectangle 173" width="72.94" height="32.791" transform="translate(99.332 30.553)" opacity="0.2"/>
      <rect id="Rectangle_174" data-name="Rectangle 174" width="28.973" height="50.109" transform="translate(99.332 13.254)" fill="#fff" opacity="0.1"/>
      <rect id="Rectangle_175" data-name="Rectangle 175" width="5.92" height="50.109" transform="translate(147.928 13.254)" fill="#407bff"/>
      <rect id="Rectangle_176" data-name="Rectangle 176" width="4.352" height="50.109" transform="translate(109.567 13.254)" fill="#407bff"/>
      <path id="Path_4077" data-name="Path 4077" d="M72.59,401.092l-1.254-3.32c-16.8.775-18.7-5.533-18.867-7.561-.314-3.689,3.061-7.137,7.525-7.6,6.16-.627,10.273,4.887,12.357,8.521a20.674,20.674,0,0,1,13.943-6.971h0a6.455,6.455,0,0,1,6.9,5.035,5.533,5.533,0,0,1-1.2,5.441c-3.91,4.408-15.178,3.559-18.572,3.191Zm1.992-6.658c5.109.461,12.523.148,14.607-2.213a1.844,1.844,0,0,0,.369-1.973c-.424-1.715-1.42-2.305-3.264-2.305h0a16.857,16.857,0,0,0-11.711,6.492Zm-13.629-8.023h-.572c-2.545.258-4.3,2.084-4.186,3.559s3.246,4.445,13.629,4.186c-1.273-2.656-4.408-7.838-8.871-7.838Z" transform="translate(-35.76 -308.406)" fill="#407bff"/>
      <rect id="Rectangle_177" data-name="Rectangle 177" width="72.94" height="50.109" transform="translate(0 87.412)" fill="#407bff"/>
      <rect id="Rectangle_178" data-name="Rectangle 178" width="72.94" height="50.109" transform="translate(0 87.412)" fill="#fff" opacity="0.6"/>
      <rect id="Rectangle_179" data-name="Rectangle 179" width="72.94" height="32.791" transform="translate(0 104.729)" opacity="0.1"/>
      <rect id="Rectangle_180" data-name="Rectangle 180" width="28.973" height="50.109" transform="translate(0 87.412)" fill="#fff" opacity="0.2"/>
      <rect id="Rectangle_181" data-name="Rectangle 181" width="5.92" height="50.109" transform="translate(48.596 87.412)" fill="#407bff"/>
      <rect id="Rectangle_182" data-name="Rectangle 182" width="4.352" height="50.109" transform="translate(10.236 87.412)" fill="#407bff"/>
    </g>
    <g id="freepik--character-4--inject-58" transform="translate(622.677 244.986)">
      <g id="freepik--group--inject-58">
        <path id="Path_4078" data-name="Path 4078" d="M356.07,210.18l3.1-8.76a30.563,30.563,0,0,0-1.549-7.285C356.42,191.2,365,182.83,365,182.83l8.945,11.656s-5.662,7.8-6.75,8.742a2.711,2.711,0,0,1-2.195.7l-2.268,8.816Z" transform="translate(-322.062 -137.064)" fill="#b97964"/>
        <path id="Path_4079" data-name="Path 4079" d="M394.605,200.735c-3.578.387-21.633,22.758-27.553,22.279s0-25.045,0-25.045L358.2,194.28s-8.5,31.186,0,40.906,36.406-5.828,36.406-5.828Z" transform="translate(-323.454 -127.397)" fill="#263238"/>
        <path id="Path_4080" data-name="Path 4080" d="M394.609,200.743v28.6a97.951,97.951,0,0,1-14.477,6.381c-8.17,2.785-17.576,4.426-21.928-.553-8.521-9.719,0-40.906,0-40.906l8.834,3.689s-5.92,24.547,0,25.045S391.031,201.149,394.609,200.743Z" transform="translate(-323.458 -127.406)" fill="#fff" opacity="0.4"/>
        <path id="Path_4081" data-name="Path 4081" d="M382.837,209.694v6.99a97.951,97.951,0,0,1-14.477,6.381c2.305-9.572,12.725-13.8,12.725-13.8Z" transform="translate(-311.686 -114.742)" opacity="0.2"/>
        <path id="Path_4082" data-name="Path 4082" d="M416.923,413.43h16.027a1.162,1.162,0,0,1,1.125.9l2.6,11.748a1.955,1.955,0,0,1-1.494,2.324h-.424c-5.2-.092-8.963-.406-15.492-.406-4,0-16.1.424-21.633.424s-6.27-5.533-4-5.975c10.162-2.213,17.816-5.293,21.08-8.207A3.209,3.209,0,0,1,416.923,413.43Z" transform="translate(-291.366 57.622)" fill="#263238"/>
        <path id="Path_4083" data-name="Path 4083" d="M380.063,413.211h16.027a1.125,1.125,0,0,1,1.125.9l2.6,11.748a1.844,1.844,0,0,1-1.494,2.305H397.9c-5.182,0-8.963-.406-15.473-.406-4.02,0-16.119.424-21.652.424s-6.27-5.533-4-5.975C366.95,420,374.6,416.918,377.85,414a3.19,3.19,0,0,1,2.213-.793Z" transform="translate(-322.485 57.436)" fill="#263238"/>
        <path id="Path_4084" data-name="Path 4084" d="M416.923,413.43h16.027a1.162,1.162,0,0,1,1.125.9l2.6,11.748a1.955,1.955,0,0,1-1.494,2.324h-.424c-5.2-.092-8.963-.406-15.492-.406-4,0-16.1.424-21.633.424s-6.27-5.533-4-5.975c10.162-2.213,17.816-5.293,21.08-8.207A3.209,3.209,0,0,1,416.923,413.43Z" transform="translate(-291.366 57.622)" fill="#fff" opacity="0.3"/>
        <path id="Path_4085" data-name="Path 4085" d="M380.063,413.211h16.027a1.125,1.125,0,0,1,1.125.9l2.6,11.748a1.844,1.844,0,0,1-1.494,2.305H397.9c-5.182,0-8.963-.406-15.473-.406-4.02,0-16.119.424-21.652.424s-6.27-5.533-4-5.975C366.95,420,374.6,416.918,377.85,414a3.19,3.19,0,0,1,2.213-.793Z" transform="translate(-322.485 57.436)" fill="#fff" opacity="0.3"/>
        <path id="Path_4086" data-name="Path 4086" d="M450.567,252.33H380.485c-6.658,36.35-27.5,184-12.559,298.641H391.7S389.5,376.854,410.436,320.586c2.4,30.117,26.889,230.274,26.889,230.274h24.123s-3.688-75.3-7.211-146.416C451.969,359.666,450.659,261.514,450.567,252.33Z" transform="translate(-316.508 -78.388)" fill="#407bff"/>
        <path id="Path_4087" data-name="Path 4087" d="M392.291,300.756a187.466,187.466,0,0,0-7.838,30.283c-1.955-26.779,5.883-55.2,5.883-55.2Z" transform="translate(-298.363 -58.539)" opacity="0.2"/>
        <path id="Path_4088" data-name="Path 4088" d="M372.444,252.78h70.488v8.391L371.54,260.3Z" transform="translate(-309.001 -78.008)"/>
        <rect id="Rectangle_183" data-name="Rectangle 183" width="2.527" height="14.902" transform="translate(108.756 170.991)" fill="#407bff"/>
        <rect id="Rectangle_184" data-name="Rectangle 184" width="2.527" height="14.902" transform="translate(73.088 170.991)" fill="#407bff"/>
        <rect id="Rectangle_185" data-name="Rectangle 185" width="13.039" height="9.387" transform="translate(82.531 173.297)" fill="#fff"/>
        <path id="Path_4089" data-name="Path 4089" d="M372.2,300.684h70.672c1.6-34.4,10.494-81.018,13-93.633a3.393,3.393,0,0,0-2.6-4c-3.541-.775-7.211-1.439-10.9-2.01A342.285,342.285,0,0,0,392,197.664c-7.377,0-12.135.221-12.135.221C371.293,228.518,371.458,277.926,372.2,300.684Z" transform="translate(-308.717 -124.547)" fill="#263238"/>
        <path id="Path_4090" data-name="Path 4090" d="M372.2,300.684h70.672a574.339,574.339,0,0,1,7.193-61.4c2.4-14.662,4.721-26.723,5.809-32.238a3.682,3.682,0,0,0,0-.9,3.375,3.375,0,0,0-2.656-3.1c-3.559-.775-7.211-1.438-10.9-2.01a342.282,342.282,0,0,0-50.367-3.375c-7.377,0-12.135.221-12.135.221C371.293,228.518,371.459,277.926,372.2,300.684Z" transform="translate(-308.717 -124.547)" fill="#fff" opacity="0.5"/>
        <path id="Path_4091" data-name="Path 4091" d="M393.763,230.738l39.67-29.508-.277-.221a342.281,342.281,0,0,0-50.367-3.375Z" transform="translate(-299.503 -124.573)" fill="#263238"/>
        <path id="Path_4092" data-name="Path 4092" d="M416.754,213.221c-6.049,5.533-20.9,3.467-20.9,3.467s-9.221-2.545-7.377-5.441c5.533-.9,8.1-3.449,9.221-6.695a16.137,16.137,0,0,0,.553-6.234c-.092-1.162-.258-2.324-.461-3.486l18.332-13.574C413.766,190.223,410.834,206.711,416.754,213.221Z" transform="translate(-294.904 -138.389)" fill="#b97964"/>
        <path id="Path_4093" data-name="Path 4093" d="M407.591,185.94c-.738,11.066-9.775,14.035-14.2,14.662a16.138,16.138,0,0,0,.553-6.234Z" transform="translate(-290.554 -134.438)" opacity="0.2"/>
        <path id="Path_4094" data-name="Path 4094" d="M405.3,238.112c5.533,3.08,12.707.184,17.7-2.711,2.4-14.662,4.721-26.723,5.809-32.238a3.682,3.682,0,0,0,0-.9C417.323,213.99,398.715,234.442,405.3,238.112Z" transform="translate(-281.66 -120.66)" opacity="0.2"/>
        <path id="Path_4095" data-name="Path 4095" d="M390.925,165.06s-6.953,15.916.148,24.658,15.344-22.131,15.344-22.131Z" transform="translate(-295.208 -152.066)" fill="#263238"/>
        <path id="Path_4096" data-name="Path 4096" d="M416.642,207.076a19.268,19.268,0,0,1-2.729,2.766,15.6,15.6,0,0,1-18.848,1.217,17.41,17.41,0,0,1-7.488-10.346,18.126,18.126,0,0,1-.369-1.844,34.262,34.262,0,0,1-.35-4.5c-.3-11.066,3.689-25.377,14.57-28.678a16.875,16.875,0,0,1,21.117,11.066,16.6,16.6,0,0,1,.535,7.838C421.584,195.015,420.976,201.783,416.642,207.076Z" transform="translate(-296.082 -152.181)" fill="#b97964"/>
        <path id="Path_4097" data-name="Path 4097" d="M397.326,177.458c0,1-.682,1.844-1.346,1.7a1.676,1.676,0,0,1-1.014-1.936c.092-1,.7-1.752,1.346-1.7S397.418,176.407,397.326,177.458Z" transform="translate(-289.234 -143.237)" fill="#263238"/>
        <path id="Path_4098" data-name="Path 4098" d="M391.2,176.851c0,1-.7,1.844-1.346,1.7a1.654,1.654,0,0,1-1.033-1.844c.074-.922.719-1.844,1.365-1.7A1.613,1.613,0,0,1,391.2,176.851Z" transform="translate(-294.416 -143.682)" fill="#263238"/>
        <path id="Path_4099" data-name="Path 4099" d="M394.533,176.45A34.858,34.858,0,0,1,389,184.565a5.846,5.846,0,0,0,4.74,1.346Z" transform="translate(-294.26 -142.45)" fill="#a24e3f"/>
        <path id="Path_4100" data-name="Path 4100" d="M400.483,176.491a.682.682,0,0,1-.553-.3,4.74,4.74,0,0,0-3.578-2.305.609.609,0,0,1-.572-.609.59.59,0,0,1,.59-.572h0a5.883,5.883,0,0,1,4.537,2.859.572.572,0,0,1-.166.811h0Z" transform="translate(-288.536 -145.608)" fill="#263238"/>
        <path id="Path_4101" data-name="Path 4101" d="M387.962,175.346a.571.571,0,0,1-.35,0,.59.59,0,0,1-.2-.811h0a5.791,5.791,0,0,1,4.537-2.914.59.59,0,0,1,.609.572h0a.627.627,0,0,1-.572.609h0a4.721,4.721,0,0,0-3.559,2.361.554.554,0,0,1-.461.184Z" transform="translate(-295.675 -146.528)" fill="#263238"/>
        <path id="Path_4102" data-name="Path 4102" d="M403.06,166.87l-1.42,5.293a4.076,4.076,0,0,1,1.309,5.348c-2.379,4.279-.793,11.674,2.287,14.957,0,0,.387-1.936,1.973-1.236s-.3,10.844-4.223,15.27c0,0,5.533-3.689,9.775-14.072,3.947-9.553,5.441-17.8,3.928-21.91Z" transform="translate(-283.589 -150.538)" fill="#263238"/>
        <path id="Path_4103" data-name="Path 4103" d="M415.132,185.3a11.766,11.766,0,0,1-7.248,5.311c-4,.941-5.846-2.693-4.611-6.4,1.143-3.264,4.592-7.82,8.557-7.082a5.238,5.238,0,0,1,3.3,8.17Z" transform="translate(-282.53 -141.946)" fill="#b97964"/>
        <path id="Path_4104" data-name="Path 4104" d="M391.49,184.36a39.157,39.157,0,0,1,1.088,5.533h1.014c4.555.148,6.713-1.291,7.727-2.932a5.846,5.846,0,0,0,.812-2.656,5.526,5.526,0,0,0-.092-1.6,21.356,21.356,0,0,1-9,1.568A8.72,8.72,0,0,1,391.49,184.36Z" transform="translate(-292.158 -137.174)" fill="#263238"/>
        <path id="Path_4105" data-name="Path 4105" d="M391.93,184.434l.369,1.641c3.891.221,7.709-.443,9.092-1.7a2.932,2.932,0,0,0-.277-1.549,21.984,21.984,0,0,1-9.184,1.6Z" transform="translate(-291.787 -137.064)" fill="#fff"/>
        <path id="Path_4106" data-name="Path 4106" d="M392.63,188c4.555.148,6.713-1.291,7.727-2.932a14.883,14.883,0,0,0-5.09.848A5.533,5.533,0,0,0,392.63,188Z" transform="translate(-291.196 -135.173)" fill="#de5753"/>
        <path id="Path_4107" data-name="Path 4107" d="M432.289,180.229c3.6-9.387-6.492-17.723-16.93-20.416s-17.225,1.383-17.225,1.383-4.113-3.965-8.041-3.043c-4.426,1.014-8.023,12.264,4.3,18.775,9.221,4.869,20.49,2.711,20.49,2.711S429.394,187.736,432.289,180.229Z" transform="translate(-296.828 -158.015)" fill="#263238"/>
        <path id="Path_4108" data-name="Path 4108" d="M380.313,208.347a9.22,9.22,0,0,1-2.139-.258A9.48,9.48,0,0,1,371.885,202c-1.752-4.316-8.631-9.959-8.7-10.014l1.162-1.439c.3.258,7.377,6.012,9.221,10.752a7.58,7.58,0,0,0,5.035,5c2.877.719,6.492-.5,9.922-3.357a11.969,11.969,0,0,1,11.324-2.693,9.646,9.646,0,0,1,6.215,7.377l-1.844.424a7.82,7.82,0,0,0-5-6.068,10.107,10.107,0,0,0-9.553,2.361A15.27,15.27,0,0,1,380.313,208.347Z" transform="translate(-316.059 -130.546)" fill="#407bff"/>
        <path id="Path_4109" data-name="Path 4109" d="M356.589,164l1.955,3.781,1.346,2.545,3.467,6.695,1.309,2.564,3.486,6.676,1.309,2.564,3.006,5.772-5.441,5.072-1.789-1.107-1.918-1.162-5.053-3.1-1.9-1.18-5.053-3.1-1.936-1.18-5.035-3.08-1.9-1.18-4.813-2.932Z" transform="translate(-337.63 -152.961)" fill="#407bff"/>
        <rect id="Rectangle_186" data-name="Rectangle 186" width="7.432" height="28.236" transform="translate(29.389 46.654) rotate(-42.97)" fill="#263238"/>
        <path id="Path_4110" data-name="Path 4110" d="M349.719,166.35l-7.58,17.428-1.9-1.18,5.4-12.449Z" transform="translate(-335.427 -150.977)" fill="#fff" opacity="0.7"/>
        <path id="Path_4111" data-name="Path 4111" d="M353.166,166.05l1.346,2.545-8.576,19.7L344,187.111Z" transform="translate(-332.252 -151.231)" fill="#fff" opacity="0.7"/>
        <path id="Path_4112" data-name="Path 4112" d="M354.78,171.06l1.309,2.564-6.4,14.717-1.9-1.18Z" transform="translate(-329.052 -147.001)" fill="#fff" opacity="0.7"/>
        <path id="Path_4113" data-name="Path 4113" d="M356.392,176.07l1.309,2.564-4.223,9.738-1.918-1.162Z" transform="translate(-325.869 -142.771)" fill="#fff" opacity="0.7"/>
        <rect id="Rectangle_187" data-name="Rectangle 187" width="7.432" height="28.236" transform="translate(29.389 46.654) rotate(-42.97)" fill="#fff" opacity="0.4"/>
        <path id="Path_4114" data-name="Path 4114" d="M393.063,218.769,387.7,208.755V203.48c0,.221-9.479-6.713-12.393-8.115s-5.533,9.719-5.348,11.711,9.885,5.975,9.885,5.975h1.936l5.2,8.041Z" transform="translate(-310.348 -126.583)" fill="#b97964"/>
        <path id="Path_4115" data-name="Path 4115" d="M451.325,203.692c2.508,15.418-18.848,48.522-39.541,46.383S377.26,214,377.26,214l9.443-6.934s11.656,34.082,26.078,28.346S436,206.4,442.16,202.216,451.325,203.692,451.325,203.692Z" transform="translate(-304.172 -121.999)" fill="#263238"/>
        <path id="Path_4116" data-name="Path 4116" d="M451.325,203.692c2.508,15.418-18.848,48.522-39.541,46.383S377.26,214,377.26,214l9.443-6.934s11.656,34.082,26.078,28.346S436,206.4,442.16,202.216,451.325,203.692,451.325,203.692Z" transform="translate(-304.172 -121.999)" fill="#fff" opacity="0.4"/>
      </g>
    </g>
    <g id="freepik--character-1--inject-58" transform="translate(128.187 306.317)">
      <path id="Path_4117" data-name="Path 4117" d="M116.9,200.4s9.037-11.287,23.975-8.76,12.172,29.969,12.172,29.969a19.752,19.752,0,0,1,6.307,19.586c-2.877,12.412-36.664,19.6-49.574,10.955s-2.932-36.018,3.283-39.891S116.9,200.4,116.9,200.4Z" transform="translate(-40.814 -191.27)" fill="#263238"/>
      <path id="Path_4118" data-name="Path 4118" d="M135.936,233.625a.5.5,0,0,1-.277,0,.461.461,0,0,1-.092-.646,14.957,14.957,0,0,0,3.541-11.9c-1.328-7.857-9.479-13.223-9.553-13.279a.443.443,0,0,1-.129-.627.461.461,0,0,1,.627-.148c.35.24,8.557,5.625,9.959,13.906a15.805,15.805,0,0,1-3.689,12.6A.461.461,0,0,1,135.936,233.625Z" transform="translate(-18.984 -178.02)" fill="#263238"/>
      <path id="Path_4119" data-name="Path 4119" d="M161.3,218.7l-9.609-4.334s-5.939-5.846-8.816-6.658-10.955,3.264-10.623,4.02a100,100,0,0,0,9.018,8.779c1.051.738,7.746-.793,7.746-.793l9.018,3.689,3.947-4.979" transform="translate(-16.538 -177.481)" fill="#ebb376"/>
      <path id="Path_4120" data-name="Path 4120" d="M157.485,253.311a166.915,166.915,0,0,1-17.871,2.471l-.461-7.377-.553-8.65c12.91-.184,27.867-2.379,31.887-5.293s-24.086-16.6-24.086-16.6L151.51,212s31.352,12.725,34.654,21.523C188.838,240.586,180.3,248.775,157.485,253.311Z" transform="translate(-11.173 -173.769)" fill="#263238"/>
      <path id="Path_4121" data-name="Path 4121" d="M157.232,236.646a166.915,166.915,0,0,1-17.871,2.471l-.461-7.377C144.617,231.906,154.429,232.662,157.232,236.646Z" transform="translate(-10.919 -157.103)" opacity="0.2"/>
      <path id="Path_4122" data-name="Path 4122" d="M95.773,421.069l-6.123-8.023,10.383-10,9.443-9.111,8.871,8.3L106.414,412.2Z" transform="translate(-52.499 -20.164)" fill="#ebb376"/>
      <path id="Path_4123" data-name="Path 4123" d="M95.584,403.013c.885-.664,8.5,10.734,8.5,10.734s-1.7,11.859,1.734,19.531-3.246,6.99-8.779-.258-9.775-12.781-13.7-17.945S86.252,409.763,95.584,403.013Z" transform="translate(-58.783 -12.528)" fill="#263238"/>
      <path id="Path_4124" data-name="Path 4124" d="M96.859,416.683c-1.715-.406-2.84-5.33-3.043-6.307a.2.2,0,0,1,0-.148h0a.258.258,0,0,1,0-.111h.129c.148,0,3.375-1.07,5.109,0a2.047,2.047,0,0,1,1.033,1.42,1.277,1.277,0,0,1-.369,1.42c-.369.258-1.844,0-2.914-.461a5.533,5.533,0,0,1,1.6,2.637,1.438,1.438,0,0,1-.3,1.143,1.4,1.4,0,0,1-1.107.645Zm.166-.7a.943.943,0,0,0,.627-.369A.756.756,0,0,0,97.8,415c-.148-1.125-1.844-2.766-3.043-3.781C95.292,413.345,96.214,415.835,97.025,415.982Zm-1.973-5.533c1.844,1.143,3.854,2.066,4.371,1.715.166-.111.111-.479,0-.664a1.42,1.42,0,0,0-.7-.977,3.32,3.32,0,0,0-1.641-.332,9.77,9.77,0,0,0-2.029.24Z" transform="translate(-48.993 -6.907)" fill="#407bff"/>
      <path id="Path_4125" data-name="Path 4125" d="M101.661,412.2l-6.381-9.148,9.443-9.111,8.871,8.3Z" transform="translate(-47.746 -20.164)" opacity="0.2"/>
      <path id="Path_4126" data-name="Path 4126" d="M132.292,428.751H122.2l-1.66-14.035-1.494-12.891,11.988-1.955.664,15.289Z" transform="translate(-27.678 -15.158)" fill="#ebb376"/>
      <path id="Path_4127" data-name="Path 4127" d="M120.276,415.438c0-1.107,13.684-.24,13.684-.24s8.41,8.557,16.6,10.475,3.6,6.824-5.533,6.824H122.433C115.96,432.5,120,426.964,120.276,415.438Z" transform="translate(-27.908 -2.49)" fill="#263238"/>
      <path id="Path_4128" data-name="Path 4128" d="M127.894,418.135l-.111-.092h0v-.111h0a.35.35,0,0,1,0-.148c0-.166,1.2-3.338,3.043-4.094a2.047,2.047,0,0,1,1.844,0c.627.3.922.682.9,1.162s-1.014,1.439-2.121,2.029a5.533,5.533,0,0,1,3.062.332,1.42,1.42,0,0,1,.719.922,1.31,1.31,0,0,1-.314,1.457,1.844,1.844,0,0,1-1.217.332A17.023,17.023,0,0,1,127.894,418.135Zm1.254-.221c2.01.848,4.518,1.6,5.164,1.07,0,0,.221-.184.092-.719a.738.738,0,0,0-.406-.479,3.282,3.282,0,0,0-1.6-.3,15.33,15.33,0,0,0-3.246.443Zm1.844-3.689a5.958,5.958,0,0,0-2.361,2.932c2.029-.775,3.984-1.844,4.02-2.453,0-.184-.3-.369-.479-.443a1.4,1.4,0,0,0-.646-.166,1.511,1.511,0,0,0-.479.184Z" transform="translate(-20.311 -3.675)" fill="#407bff"/>
      <path id="Path_4129" data-name="Path 4129" d="M131.7,415.439l-11.158-.479L119.05,401.92l11.988-2.01Z" transform="translate(-27.678 -15.124)" opacity="0.2"/>
      <path id="Path_4130" data-name="Path 4130" d="M175.391,283.92s29.8,70.469,34.488,101.434S108.666,499.182,108.666,499.182L97.84,487.655s78.787-81,78.787-94.924S145.9,315.272,145.9,315.272,142.932,289.49,175.391,283.92Z" transform="translate(-45.585 -113.05)" fill="#407bff"/>
      <path id="Path_4131" data-name="Path 4131" d="M153.855,460.523c-10.826,9.959-21.3,18.941-29.508,25.82-9.443,7.893-15.732,12.8-15.732,12.8L97.79,487.633s10.826-11.066,24.436-25.82c10.7-11.563,23.164-25.359,33.436-37.7,11.9-14.311,20.914-26.686,20.914-31.352,0-7.377-8.557-28.494-16.6-46.881-7.248-16.451-14.109-30.67-14.109-30.67a25.948,25.948,0,0,1,.848-8.7c2.066-7.986,8.613-19.07,28.641-22.518,0,0,29.8,70.469,34.488,101.434C212.521,402.152,182,434.592,153.855,460.523Z" transform="translate(-45.627 -112.99)" fill="#fff" opacity="0.6"/>
      <path id="Path_4132" data-name="Path 4132" d="M144.607,359.92l-1.844,36.5c-10.826,9.959-21.3,18.941-29.508,25.82a86.366,86.366,0,0,1-2.121-24.547C121.868,386.053,134.335,372.258,144.607,359.92Z" transform="translate(-34.479 -48.886)" opacity="0.2"/>
      <path id="Path_4133" data-name="Path 4133" d="M138.04,336.163c-7.248-16.451-14.109-30.67-14.109-30.67a25.948,25.948,0,0,1,.848-8.7,10.752,10.752,0,0,1,3.375-1.439S137.025,309.2,138.04,336.163Z" transform="translate(-23.614 -103.4)" opacity="0.2"/>
      <path id="Path_4134" data-name="Path 4134" d="M143.437,317.211l1.955,99.24V517.885H128.2c-40.352-192.393-12.688-240.639-12.688-240.639h.111a.793.793,0,0,1,0-.221c6.473-14.422,48.984-3.8,48.984-3.8,3.061,11.951,5.016,36.2,5.016,36.2Z" transform="translate(-38.472 -125.261)" fill="#407bff"/>
      <path id="Path_4135" data-name="Path 4135" d="M143.437,317.211l1.955,99.24V517.885H128.2c-40.352-192.393-12.688-240.639-12.688-240.639h.111a.793.793,0,0,1,0-.221c6.473-14.422,48.984-3.8,48.984-3.8,3.061,11.951,5.016,36.2,5.016,36.2Z" transform="translate(-38.472 -125.261)" fill="#fff" opacity="0.6"/>
      <path id="Path_4136" data-name="Path 4136" d="M111.3,272.04v7.211l49.223-3.781V266.95Z" transform="translate(-34.221 -127.377)" fill="#263238"/>
      <rect id="Rectangle_188" data-name="Rectangle 188" width="2.453" height="12.449" transform="translate(90.859 141.753) rotate(-2.92)" fill="#407bff"/>
      <rect id="Rectangle_189" data-name="Rectangle 189" width="10.807" height="8.189" transform="translate(103.907 142.274) rotate(-5.12)" fill="#fff"/>
      <rect id="Rectangle_190" data-name="Rectangle 190" width="2.453" height="12.449" transform="translate(120.916 138.455) rotate(-2.92)" fill="#407bff"/>
      <rect id="Rectangle_191" data-name="Rectangle 191" width="2.453" height="12.449" transform="translate(90.859 141.753) rotate(-2.92)" fill="#fff" opacity="0.6"/>
      <rect id="Rectangle_192" data-name="Rectangle 192" width="2.453" height="12.449" transform="translate(120.916 138.455) rotate(-2.92)" fill="#fff" opacity="0.6"/>
      <path id="Path_4137" data-name="Path 4137" d="M167.971,301.653l-49.223,4.26c-1.162-18.3-2.342-30.1-13.168-62.7-.941-2.859-1.955-5.883-3.08-9.092a149.828,149.828,0,0,1,20.434-4.924,161.758,161.758,0,0,1,22.131-2.342c9.59,0,20.582,1.014,20.582,1.014s1.568.387,2.545,10.531C168.986,247.93,169.815,266.981,167.971,301.653Z" transform="translate(-41.65 -161.231)" fill="#407bff"/>
      <path id="Path_4138" data-name="Path 4138" d="M167.971,301.653l-49.223,4.26c-1.162-18.3-2.342-30.1-13.168-62.7-.941-2.859-1.955-5.883-3.08-9.092a149.828,149.828,0,0,1,20.434-4.924,161.758,161.758,0,0,1,22.131-2.342c9.59,0,20.582,1.014,20.582,1.014s1.568.387,2.545,10.531C168.986,247.93,169.815,266.981,167.971,301.653Z" transform="translate(-41.65 -161.231)" opacity="0.3"/>
      <path id="Path_4139" data-name="Path 4139" d="M130.528,244.916c-12.135-1.549-15.768-6.732-15.768-6.732,7.691-7.266,1.291-19.844,1.291-19.844l14.607,2.73a41.681,41.681,0,0,0-.572,6.141c-.129,8.945,3.91,8.945,3.91,8.945C136.559,240.969,130.528,244.916,130.528,244.916Z" transform="translate(-31.3 -168.416)" fill="#ebb376"/>
      <path id="Path_4140" data-name="Path 4140" d="M130.067,221.07a41.685,41.685,0,0,0-.572,6.141c-7.045-1.623-14.035-8.871-14.035-8.871Z" transform="translate(-30.709 -168.416)" opacity="0.2"/>
      <path id="Path_4141" data-name="Path 4141" d="M121.744,198.247c12.375-2.932,17.926,2.748,21.854,15.289,4.906,15.658,4.057,27.811-12.209,28.07C109.277,241.974,101.2,203.116,121.744,198.247Z" transform="translate(-35.407 -186.02)" fill="#ebb376"/>
      <path id="Path_4142" data-name="Path 4142" d="M123.74,206.84a27.165,27.165,0,0,0,4.832,4.279,3.5,3.5,0,0,1-2.932,2.176Z" transform="translate(-23.718 -178.125)" fill="#d58745"/>
      <path id="Path_4143" data-name="Path 4143" d="M121.991,206.5l-1.494,1.07c-.332-.775-.959-1.273-1.531-1.107a1.748,1.748,0,0,0-.738,2.139,1.844,1.844,0,0,0,.221.553c-.221-.977,0-2.01.756-2.047s.811.83.811.83a1.2,1.2,0,0,0,.645.111h0C121.567,207.9,121.991,206.5,121.991,206.5Z" transform="translate(-28.443 -178.469)" fill="#263238"/>
      <path id="Path_4144" data-name="Path 4144" d="M129.159,204.687l-1.475,1.07c-.35-.775-.959-1.273-1.549-1.125s-1,1.143-.738,2.158a2.9,2.9,0,0,0,.221.553c-.2-.977,0-2.01.756-2.047s.811.83.811.83a1.2,1.2,0,0,0,.645.111h0C128.734,206.089,129.159,204.687,129.159,204.687Z" transform="translate(-22.387 -180.011)" fill="#263238"/>
      <path id="Path_4145" data-name="Path 4145" d="M115.97,206.73h-.277a.682.682,0,0,1-.314-.9,7.23,7.23,0,0,1,5.533-3.5.646.646,0,0,1,.719.59.664.664,0,0,1-.59.738,5.957,5.957,0,0,0-4.389,2.766A.646.646,0,0,1,115.97,206.73Z" transform="translate(-30.832 -181.943)" fill="#263238"/>
      <path id="Path_4146" data-name="Path 4146" d="M123.451,202.49a.7.7,0,0,1-.553-.3.682.682,0,0,1,.184-.922,6.492,6.492,0,0,1,5.773-.221.664.664,0,0,1,.406.848.682.682,0,0,1-.867.406,5.348,5.348,0,0,0-4.574,0,.664.664,0,0,1-.369.184Z" transform="translate(-24.518 -183.494)" fill="#263238"/>
      <path id="Path_4147" data-name="Path 4147" d="M115.238,224.267s3.375-11.527.645-19.162c0,0,22.131-15.824,29.25,8.76,0,0-2.84-22.648-24.234-18.111s-13.924,35.65-.738,42.307C120.162,238.062,113.173,231.478,115.238,224.267Z" transform="translate(-37.477 -187.991)" fill="#263238"/>
      <path id="Path_4148" data-name="Path 4148" d="M117.344,213.866a5.533,5.533,0,0,0-7.008-3.578c-3.689,1.328-3.689,9.627,6.289,9.221C118.045,219.509,118.506,217.978,117.344,213.866Z" transform="translate(-36.945 -175.45)" fill="#ebb376"/>
      <path id="Path_4149" data-name="Path 4149" d="M168.106,238.4c-18.443,9.221-46.807,7.008-62.576,4.814-.941-2.859-1.955-5.883-3.08-9.092a149.828,149.828,0,0,1,20.434-4.924,161.753,161.753,0,0,1,22.131-2.342c9.59,0,20.582,1.014,20.582,1.014S167.128,228.252,168.106,238.4Z" transform="translate(-41.693 -161.231)" fill="#ebb376"/>
      <path id="Path_4150" data-name="Path 4150" d="M115.754,366.448,101,362.261a443.88,443.88,0,0,0,3.688-100.309c-.572-6.75-1.365-13.592-2.379-20.434-.369-2.471-.775-4.924-1.217-7.377L114,228.11s13.26,16.93,13.666,35.3S115.754,366.448,115.754,366.448Z" transform="translate(-42.917 -160.168)" fill="#263238"/>
      <path id="Path_4151" data-name="Path 4151" d="M130.33,227.1s5.422,17.557,4.684,30.172S147.924,332,147.924,332l3.965,9.553-3.928-38.527s2.379-56.545-2.416-75.928Z" transform="translate(-18.155 -161.02)" fill="#263238"/>
      <path id="Path_4152" data-name="Path 4152" d="M129.452,200.452s4.592,15.584-9.369,22.647c-16.838,8.52-15.252,26.945,1.2,29.287,0,0-16.6-1.66-19.826-12.5s5.92-27.535,5.92-27.535-5.035-9.221,8.576-16.377C123.642,191.913,129.452,200.452,129.452,200.452Z" transform="translate(-43.114 -188.225)" fill="#263238"/>
      <path id="Path_4153" data-name="Path 4153" d="M116.98,404.308l21.135-3.1-1.77,8.447L118.916,412Z" transform="translate(-29.425 -14.026)" fill="#407bff"/>
      <path id="Path_4154" data-name="Path 4154" d="M99.6,392.26l14.182,15.4-7.1,4.057-10.918-11.6Z" transform="translate(-47.341 -21.582)" fill="#407bff"/>
      <path id="Path_4155" data-name="Path 4155" d="M117.291,214.085h-.166a.461.461,0,0,1-.258-.59c4.518-11.453-1.217-15.824-1.457-15.99a.463.463,0,1,1,.535-.756c.277.2,6.584,4.924,1.844,17.078a.443.443,0,0,1-.5.258Z" transform="translate(-30.917 -186.717)" fill="#263238"/>
      <path id="Path_4156" data-name="Path 4156" d="M173.535,206.245a4.847,4.847,0,0,1-.111.9,4.5,4.5,0,0,1-.258.848,4.317,4.317,0,0,1-1.125,1.4,9.216,9.216,0,0,1-.977.83,36.069,36.069,0,0,1-3.154,2.084l-1.383.775c-1.162.645-2.453,1.328-3.855,2.01l-1.586.756c-1.365.646-2.8,1.309-4.334,1.955l-1.844.738c-1.549.646-3.135,1.291-4.8,1.844l-1.844.719c-1.715.646-3.467,1.273-5.238,1.844l-2.139.7c-3.32,1.088-6.713,2.084-10.07,2.951l-4.482,1.143v-1.143s3.91-1.439,9.221-3.486l1.844-.719,4.906-1.844,1.844-.738,4.814-1.844,1.844-.738c1.623-.646,3.209-1.291,4.684-1.844l1.844-.738c1.641-.7,3.135-1.365,4.408-1.955.59-.258,1.125-.516,1.6-.756l1.143-.59c.922-.5,1.734-1,2.434-1.457a11.883,11.883,0,0,0,1.2-.793,8.023,8.023,0,0,0,2.084-2.176,5.184,5.184,0,0,0,.387-.885,3.394,3.394,0,0,0-.221-2.4,7.19,7.19,0,0,0-.516-.978,15.155,15.155,0,0,0-.922-1.217,3.855,3.855,0,0,0-1.586-1.2,2.784,2.784,0,0,0-1.328-.129,2.619,2.619,0,0,0-2.01,3.928l-.959,1.254-.129.166v-.184a6.529,6.529,0,0,1,.148-5.533,3.687,3.687,0,0,1,.848-.848,4.833,4.833,0,0,1,1.844-.811,5.385,5.385,0,0,1,5.072,1.494,6.935,6.935,0,0,1,.922,1.014,9.019,9.019,0,0,1,1.254,2.305,9.541,9.541,0,0,1,.332.941,7.82,7.82,0,0,1,.184,2.4Z" transform="translate(-21.523 -185.626)" fill="#407bff"/>
      <path id="Path_4157" data-name="Path 4157" d="M138.8,211.823l-2.139.7-5.275-.535,1.844-.719Z" transform="translate(-17.26 -174.385)" fill="#fff" opacity="0.6"/>
      <path id="Path_4158" data-name="Path 4158" d="M142.8,210.43l-1.844.719-5.846-.572,1.844-.738Z" transform="translate(-14.119 -175.592)" fill="#fff" opacity="0.6"/>
      <path id="Path_4159" data-name="Path 4159" d="M146.351,208.982l-1.844.738-5.846-.572,1.844-.738Z" transform="translate(-11.122 -176.8)" fill="#fff" opacity="0.6"/>
      <path id="Path_4160" data-name="Path 4160" d="M149.208,207.486l-1.586.756-5.422-.535,1.844-.738Z" transform="translate(-8.133 -178.015)" fill="#fff" opacity="0.6"/>
      <path id="Path_4161" data-name="Path 4161" d="M151.649,205.943l-1.383.775-4.666-.461c.59-.258,1.125-.516,1.6-.756Z" transform="translate(-5.263 -179.256)" fill="#fff" opacity="0.6"/>
      <path id="Path_4162" data-name="Path 4162" d="M153.408,204.3a9.22,9.22,0,0,1-.977.83l-4.02-.406A11.884,11.884,0,0,0,149.5,204Z" transform="translate(-2.89 -180.523)" fill="#fff" opacity="0.6"/>
      <path id="Path_4163" data-name="Path 4163" d="M146.16,201.88h.2l-.129.166Z" transform="translate(-4.79 -182.313)" fill="#fff" opacity="0.6"/>
      <path id="Path_4164" data-name="Path 4164" d="M153.433,202.585a4.847,4.847,0,0,1-.111.9l-3.172-.314a5.187,5.187,0,0,0,.387-.885Z" transform="translate(-1.421 -181.966)" fill="#fff" opacity="0.6"/>
      <path id="Path_4165" data-name="Path 4165" d="M153.335,201.714l-2.859-.277a7.2,7.2,0,0,0-.516-.977l3.043.314A9.521,9.521,0,0,1,153.335,201.714Z" transform="translate(-1.582 -183.511)" fill="#fff" opacity="0.6"/>
      <path id="Path_4166" data-name="Path 4166" d="M154.89,200.157l-4.3-.424-1.328-.129-3.025-.3a3.69,3.69,0,0,1,.848-.848l6.879.682A6.932,6.932,0,0,1,154.89,200.157Z" transform="translate(-4.722 -185.2)" fill="#fff" opacity="0.6"/>
      <path id="Path_4167" data-name="Path 4167" d="M104.089,256c-.572-6.75-1.365-13.592-2.379-20.434a31.243,31.243,0,0,1,7.377-.332S111.245,252.224,104.089,256Z" transform="translate(-42.317 -154.22)" opacity="0.2"/>
      <path id="Path_4168" data-name="Path 4168" d="M89.708,213.8l-3.172-8.447a26.813,26.813,0,0,1-.369-3.689A123.163,123.163,0,0,0,76.946,191.3c-.553-.129-8.207,2.047-7.377,4.242s7.1,10.107,8.023,10.715,3.818,1.992,3.818,1.992l2.379,7.654Z" transform="translate(-69.506 -191.247)" fill="#ebb376"/>
      <path id="Path_4169" data-name="Path 4169" d="M135.152,250.8s-29.619-7.23-32.551-8.281S83.642,201.21,83.642,201.21l-7.672,1.236s15.326,49.924,19.7,53.484,29.139,16.008,29.139,16.008S137.347,257.829,135.152,250.8Z" transform="translate(-64.049 -182.878)" fill="#263238"/>
    </g>
  </g>
</svg>
