<svg xmlns="http://www.w3.org/2000/svg" xmlns:xlink="http://www.w3.org/1999/xlink" width="92" height="98" viewBox="0 0 92 98">
  <defs>
    <clipPath id="clip-path">
      <rect id="Rectangle_23" data-name="Rectangle 23" width="98" height="92" transform="translate(0.034 -0.473)" fill="#20bdff"/>
    </clipPath>
  </defs>
  <g id="book" transform="translate(91.527 -0.034) rotate(90)" clip-path="url(#clip-path)">
    <path id="Path_423" data-name="Path 423" d="M1595.2,967.326h-13.76c-2.219,0-4.439-1.747-4.439-3.927v-65.47c0-2.182,2.219-3.928,4.439-3.928h13.76c2.663,0,4.439,1.746,4.439,3.928V963.4C1599.637,965.579,1597.861,967.326,1595.2,967.326Zm-13.76-70.271c-.443,0-1.334.436-1.334.873V963.4c0,.433.891.871,1.334.871h13.76c.886,0,1.334-.438,1.334-.871v-65.47c0-.437-.448-.873-1.334-.873Z" transform="translate(-1573.441 -875.773)" fill="#20bdff" fill-rule="evenodd"/>
    <path id="Path_424" data-name="Path 424" d="M1638.145,954.121h-18.159a3.942,3.942,0,0,1-3.986-3.932V872.371a4.335,4.335,0,0,1,3.986-4.371h18.159a4.732,4.732,0,0,1,4.429,4.371v77.817C1642.574,952.374,1640.36,954.121,1638.145,954.121ZM1619.986,871.5a.946.946,0,0,0-.886.874v77.817a.947.947,0,0,0,.886.871h18.159a.947.947,0,0,0,.886-.871V872.371a.946.946,0,0,0-.886-.874Z" transform="translate(-1593.249 -862.568)" fill="#20bdff" fill-rule="evenodd"/>
    <path id="Path_425" data-name="Path 425" d="M1675.441,958.692h-8.149A4.263,4.263,0,0,1,1663,954.76V881.368a4.338,4.338,0,0,1,4.291-4.369h8.149a4.338,4.338,0,0,1,4.291,4.369V954.76A4.263,4.263,0,0,1,1675.441,958.692Zm-8.149-78.634c-.428,0-.861.437-.861,1.311V954.76a.936.936,0,0,0,.861.876h8.149a.936.936,0,0,0,.861-.876V881.368c0-.874-.433-1.311-.861-1.311Z" transform="translate(-1617.119 -867.139)" fill="#20bdff" fill-rule="evenodd"/>
    <path id="Path_426" data-name="Path 426" d="M1709.685,948.534h-15.31c-2.19,0-4.375-1.752-4.375-3.942V861.38a4.385,4.385,0,0,1,4.375-4.38h15.31c2.185,0,3.937,1.752,3.937,4.38v83.212A3.924,3.924,0,0,1,1709.685,948.534Zm-15.31-88.468c-.438,0-.876.438-.876,1.314v83.212a.942.942,0,0,0,.876.876h15.31a.942.942,0,0,0,.876-.876V861.38c0-.876-.438-1.314-.876-1.314Z" transform="translate(-1630.832 -856.981)" fill="#20bdff" fill-rule="evenodd"/>
    <path id="Path_427" data-name="Path 427" d="M1741.473,954.121h-5.167a4,4,0,0,1-4.306-3.932V872.371a4.35,4.35,0,0,1,4.306-4.371h5.167a4.35,4.35,0,0,1,4.306,4.371v8.743a1.867,1.867,0,0,1-1.722,1.748c-.861,0-1.289-.874-1.289-1.748v-8.743c0-.437-.433-.874-1.294-.874h-5.167c-.861,0-1.294.437-1.294.874v77.817c0,.433.433.871,1.294.871h5.167c.861,0,1.294-.438,1.294-.871V890.732a1.149,1.149,0,0,1,1.289-1.311c.861,0,1.722.437,1.722,1.311v59.456A4,4,0,0,1,1741.473,954.121Z" transform="translate(-1652.163 -862.568)" fill="#20bdff" fill-rule="evenodd"/>
    <path id="Path_428" data-name="Path 428" d="M1597.861,931.858h-19.084c-.891,0-1.776-.443-1.776-1.329v-5.758a1.906,1.906,0,0,1,1.776-1.772h19.084a1.906,1.906,0,0,1,1.776,1.772v5.758C1599.637,931.415,1598.751,931.858,1597.861,931.858Zm-17.756-3.1h16.427v-2.215h-16.427Z" transform="translate(-1573.441 -890.501)" fill="#20bdff" fill-rule="evenodd"/>
    <path id="Path_429" data-name="Path 429" d="M1597.861,953.366h-19.084c-.891,0-1.776-.44-1.776-1.321v-5.724c0-.88.886-1.321,1.776-1.321h19.084c.891,0,1.776.44,1.776,1.321v5.724C1599.637,952.925,1598.751,953.366,1597.861,953.366Zm-17.756-3.082h16.427v-2.2h-16.427Z" transform="translate(-1573.441 -901.675)" fill="#20bdff" fill-rule="evenodd"/>
    <path id="Path_430" data-name="Path 430" d="M1598.693,1010.953h-5.438c-.837,0-1.255-.841-1.255-1.688a1.114,1.114,0,0,1,1.255-1.265h5.438c.837,0,1.673.423,1.673,1.265A1.805,1.805,0,0,1,1598.693,1010.953Z" transform="translate(-1581.06 -933.671)" fill="#20bdff" fill-rule="evenodd"/>
    <path id="Path_431" data-name="Path 431" d="M1598.693,999.445h-5.438q-1.255,0-1.255-1.476c0-.984.418-1.969,1.255-1.969h5.438a1.979,1.979,0,0,1,1.673,1.969A1.527,1.527,0,0,1,1598.693,999.445Z" transform="translate(-1581.06 -927.577)" fill="#20bdff" fill-rule="evenodd"/>
    <path id="Path_432" data-name="Path 432" d="M1641.086,1010.953h-5.758c-.886,0-1.328-.841-1.328-1.688s.443-1.265,1.328-1.265h5.758c.886,0,1.772.423,1.772,1.265A1.86,1.86,0,0,1,1641.086,1010.953Z" transform="translate(-1602.391 -933.671)" fill="#20bdff" fill-rule="evenodd"/>
    <path id="Path_433" data-name="Path 433" d="M1641.086,999.445h-5.758q-1.329,0-1.328-1.476c0-.984.443-1.969,1.328-1.969h5.758a2.02,2.02,0,0,1,1.772,1.969A1.588,1.588,0,0,1,1641.086,999.445Z" transform="translate(-1602.391 -927.577)" fill="#20bdff" fill-rule="evenodd"/>
    <path id="Path_434" data-name="Path 434" d="M1638.473,935.972h-5.167a4.363,4.363,0,0,1-4.306-4.4V906.957a4.01,4.01,0,0,1,4.306-3.957h5.167a4.284,4.284,0,0,1,4.306,3.957v24.619A4.682,4.682,0,0,1,1638.473,935.972Zm-5.167-29.895c-.861,0-1.294.44-1.294.879v24.619c0,.44.433.879,1.294.879h5.167a.938.938,0,0,0,.861-.879V906.957a.938.938,0,0,0-.861-.879Z" transform="translate(-1599.851 -880.344)" fill="#20bdff" fill-rule="evenodd"/>
    <path id="Path_435" data-name="Path 435" d="M1685.13,1005.953h-6.417c-.856,0-1.713-.423-1.713-1.265a1.827,1.827,0,0,1,1.713-1.688h6.417a1.827,1.827,0,0,1,1.712,1.688C1686.842,1005.529,1685.986,1005.953,1685.13,1005.953Z" transform="translate(-1624.229 -931.132)" fill="#20bdff" fill-rule="evenodd"/>
    <path id="Path_436" data-name="Path 436" d="M1684.612,909.953h-7.323c-.856,0-1.289-.844-1.289-1.687a1.13,1.13,0,0,1,1.289-1.265h7.323c.861,0,1.722.422,1.722,1.265A1.834,1.834,0,0,1,1684.612,909.953Z" transform="translate(-1623.722 -882.375)" fill="#20bdff" fill-rule="evenodd"/>
    <path id="Path_437" data-name="Path 437" d="M1712.308,891.366h-20.556A1.889,1.889,0,0,1,1690,889.6v-5.284c0-.88.876-1.321,1.752-1.321h20.556a1.165,1.165,0,0,1,1.314,1.321V889.6C1713.622,890.486,1713.183,891.366,1712.308,891.366Zm-18.809-3.082h17.062v-2.2H1693.5Z" transform="translate(-1630.832 -870.186)" fill="#20bdff" fill-rule="evenodd"/>
    <path id="Path_438" data-name="Path 438" d="M1712.308,943.366h-20.556c-.876,0-1.752-.44-1.752-1.321v-5.284a1.889,1.889,0,0,1,1.752-1.761h20.556c.876,0,1.314.88,1.314,1.761v5.284A1.165,1.165,0,0,1,1712.308,943.366Zm-18.809-3.082h17.062v-2.2H1693.5Z" transform="translate(-1630.832 -896.596)" fill="#20bdff" fill-rule="evenodd"/>
    <path id="Path_439" data-name="Path 439" d="M1712.308,996.366h-20.556a1.843,1.843,0,0,1-1.752-1.673v-5.02a1.843,1.843,0,0,1,1.752-1.673h20.556c.876,0,1.314.837,1.314,1.673v5.02C1713.622,995.529,1713.183,996.366,1712.308,996.366ZM1693.5,993.02h17.062v-1.673H1693.5Z" transform="translate(-1630.832 -923.514)" fill="#20bdff" fill-rule="evenodd"/>
    <path id="Path_440" data-name="Path 440" d="M1712.5,1022.445h-9.183c-.876,0-1.314-.984-1.314-1.969s.438-1.476,1.314-1.476h9.183q1.314,0,1.314,1.476C1713.811,1021.461,1713.373,1022.445,1712.5,1022.445Z" transform="translate(-1636.927 -939.258)" fill="#20bdff" fill-rule="evenodd"/>
    <path id="Path_441" data-name="Path 441" d="M1743.722,1018.382a1.858,1.858,0,0,1-1.722-1.737v-3.907a1.722,1.722,0,1,1,3.445,0v3.907A1.858,1.858,0,0,1,1743.722,1018.382Z" transform="translate(-1657.242 -935.195)" fill="#20bdff" fill-rule="evenodd"/>
    <path id="Path_442" data-name="Path 442" d="M1743.722,989.763a1.858,1.858,0,0,1-1.722-1.737v-11.29a1.722,1.722,0,1,1,3.445,0v11.29A1.858,1.858,0,0,1,1743.722,989.763Z" transform="translate(-1657.242 -916.911)" fill="#20bdff" fill-rule="evenodd"/>
    <path id="Path_443" data-name="Path 443" d="M1743.722,897.319a1.9,1.9,0,0,1-1.722-1.811v-8.149c0-.906.861-1.358,1.722-1.358s1.723.453,1.723,1.358v8.149A1.9,1.9,0,0,1,1743.722,897.319Z" transform="translate(-1657.242 -871.71)" fill="#20bdff" fill-rule="evenodd"/>
    <path id="Path_444" data-name="Path 444" d="M1665.184,1039.445h-94.437a1.574,1.574,0,0,1-1.747-1.476,2.012,2.012,0,0,1,1.747-1.968h94.437a2.012,2.012,0,0,1,1.747,1.968A1.574,1.574,0,0,1,1665.184,1039.445Z" transform="translate(-1569.378 -947.892)" fill="#20bdff" fill-rule="evenodd"/>
  </g>
</svg>
