<svg xmlns="http://www.w3.org/2000/svg" xmlns:xlink="http://www.w3.org/1999/xlink" width="78" height="79" viewBox="0 0 78 79">
  <defs>
    <clipPath id="clip-path">
      <rect id="Rectangle_25" data-name="Rectangle 25" width="78" height="79" transform="translate(-0.298 -0.011)" fill="#20bdff"/>
    </clipPath>
  </defs>
  <g id="bulb" transform="translate(0.298 0.011)" clip-path="url(#clip-path)">
    <path id="Path_467" data-name="Path 467" d="M1561.661,113.313h-6.737a1.946,1.946,0,0,0,0,3.892h6.737a1.946,1.946,0,0,0,0-3.892Zm66.363,0h-6.737a1.946,1.946,0,0,0,0,3.892h6.737a1.946,1.946,0,0,0,0-3.892Zm-58.668,24.325a1.8,1.8,0,0,0-2.89,0l-4.8,4.866a3.121,3.121,0,0,0,0,2.92c.474,0,.957.486,1.441.486s.957-.486,1.441-.486l4.814-5.352A2.258,2.258,0,0,0,1569.356,137.638ZM1617.922,88.5a3.026,3.026,0,0,0-2.881,0l-4.814,4.865a2.219,2.219,0,0,0,0,2.433c.483.487.966.973,1.44.973s.966-.486,1.449-.973l4.8-4.379A3.121,3.121,0,0,0,1617.922,88.5Zm-45.2,4.865-4.814-4.865a3.026,3.026,0,0,0-2.881,0,3.121,3.121,0,0,0,0,2.919l4.8,4.379c.483.487.966.973,1.45.973s.957-.486,1.441-.973A2.258,2.258,0,0,0,1572.72,93.366Zm48.566,49.138-4.8-4.866a1.8,1.8,0,0,0-2.89,0,2.258,2.258,0,0,0,0,2.433l4.814,5.352c.483,0,.966.486,1.44.486s.966-.486,1.441-.486A3.121,3.121,0,0,0,1621.286,142.5Zm-29.812-49.138c-12.983,0-23.567,10.7-23.567,24.326,0,6.325,2.407,13.136,6.254,18.974a23.393,23.393,0,0,1,4.814,13.622v11.676c0,2.433,1.44,3.892,3.364,3.892h17.8a3.557,3.557,0,0,0,3.838-3.892V150.288a20.556,20.556,0,0,1,4.814-13.622,34.994,34.994,0,0,0,5.771-18.974C1614.558,104.069,1604.456,93.366,1591.474,93.366Zm8.661,68.6h-17.8v-2.433h9.135a1.946,1.946,0,0,0,0-3.892h-9.135v-2.433h17.8Zm-11.542-35.029-2.407-5.351h10.1l-2.407,5.351v.487l-1.449,22.379h-1.915l-1.449-22.379A.473.473,0,0,0,1588.593,126.935Zm16.83,7.3a31.589,31.589,0,0,0-5.288,15.568h-3.847l1.441-21.407,3.364-7.784a1.487,1.487,0,0,0,0-1.946c-.483-.487-.957-.973-1.44-.973H1583.3c-.483,0-.957.486-1.441.973a1.488,1.488,0,0,0,0,1.946l3.364,7.784,1.44,21.407h-4.322a27.572,27.572,0,0,0-5.288-15.568,29.31,29.31,0,0,1-5.3-16.541c0-11.19,8.661-20.92,19.72-20.92,10.576,0,19.72,9.73,19.72,20.92C1611.194,123.53,1608.787,129.368,1605.423,134.233Z" transform="translate(-1551.984 -87.606)" fill="#20bdff" fill-rule="evenodd"/>
  </g>
</svg>
