<svg xmlns="http://www.w3.org/2000/svg" xmlns:xlink="http://www.w3.org/1999/xlink" width="1605" height="577.901" viewBox="0 0 1605 577.901">
  <defs>
    <clipPath id="clip-path">
      <rect id="Rectangle_14" data-name="Rectangle 14" width="1605" height="572" transform="translate(0.474 0.32)"/>
    </clipPath>
    <linearGradient id="linear-gradient" x2="1" y2="0.091" gradientUnits="objectBoundingBox">
      <stop offset="0" stop-color="#a5fecb"/>
      <stop offset="0.634" stop-color="#20bdff"/>
      <stop offset="1" stop-color="#775dff"/>
    </linearGradient>
    <clipPath id="clip-path-2">
      <rect id="Rectangle_26" data-name="Rectangle 26" width="169" height="142" transform="translate(0.425 -0.148)" fill="#172671"/>
    </clipPath>
    <clipPath id="clip-path-3">
      <rect id="Rectangle_29" data-name="Rectangle 29" width="147" height="161" transform="translate(-0.142 -0.254)" fill="#12154c"/>
    </clipPath>
    <clipPath id="clip-path-4">
      <rect id="Rectangle_35" data-name="Rectangle 35" width="199" height="201" transform="translate(-0.287 -0.413)" fill="#172671"/>
    </clipPath>
    <clipPath id="clip-path-5">
      <rect id="Rectangle_36" data-name="Rectangle 36" width="92" height="80" transform="translate(-0.128 -0.358)" fill="#172671"/>
    </clipPath>
  </defs>
  <g id="Group_31" data-name="Group 31" transform="translate(-0.474 5.581)">
    <g id="Group_29" data-name="Group 29" transform="translate(0 0)">
      <g id="Process" transform="translate(0 0)" clip-path="url(#clip-path)">
        <path id="Path_248" data-name="Path 248" d="M674.713,666.149c0,90.553-73.319,163.961-163.762,163.961S347.188,756.7,347.188,666.149,420.506,502.188,510.95,502.188,674.713,575.6,674.713,666.149Z" transform="translate(-244.842 -371.285)" fill="#f1f2f2" fill-rule="evenodd"/>
        <path id="Path_249" data-name="Path 249" d="M1380.711,645.769c0,90.352-73.317,163.6-163.761,163.6s-163.761-73.244-163.761-163.6,73.317-163.6,163.761-163.6S1380.711,555.417,1380.711,645.769Z" transform="translate(-420.279 -366.311)" fill="#f1f2f2" fill-rule="evenodd"/>
        <path id="Path_250" data-name="Path 250" d="M961.685,575.193q2.705-5.926,5.75-11.659" transform="translate(-397.54 -386.529)" fill="none" stroke="#a7a9ac" stroke-linecap="round" stroke-miterlimit="8" stroke-width="1.416" fill-rule="evenodd"/>
        <path id="Path_251" data-name="Path 251" d="M987.623,491.492c55.82-85.96,161.271-133.814,266.73-116.283A268.793,268.793,0,0,1,1440.1,503.577" transform="translate(-403.986 -338.838)" fill="none" stroke="#a7a9ac" stroke-linecap="round" stroke-miterlimit="8" stroke-width="1.416" stroke-dasharray="11.909 14.741" fill-rule="evenodd"/>
        <path id="Path_252" data-name="Path 252" d="M1598.42,563.534q2.886,5.7,5.479,11.551" transform="translate(-555.765 -386.529)" fill="none" stroke="#a7a9ac" stroke-linecap="round" stroke-miterlimit="8" stroke-width="1.416" fill-rule="evenodd"/>
        <path id="Path_253" data-name="Path 253" d="M2101.711,672.149c0,90.553-73.317,163.961-163.761,163.961S1774.19,762.7,1774.19,672.149s73.317-163.961,163.761-163.961S2101.711,581.6,2101.711,672.149Z" transform="translate(-599.443 -372.776)" fill="#f1f2f2" fill-rule="evenodd"/>
        <path id="Path_254" data-name="Path 254" d="M1017.027,908.847c-147.806,0-269.32-119.006-272.856-266.2h-.332v-6.627c0-143.125-116.494-259.565-259.686-259.565S224.466,492.9,224.466,636.024,340.96,895.591,484.152,895.591h4.42v13.257h-4.42c-150.507,0-272.946-122.386-272.946-272.823S333.645,363.205,484.152,363.205c147.812,0,269.323,119.024,272.858,266.192h.31v6.628c0,143.125,116.492,259.567,259.684,259.567s259.69-116.441,259.69-259.567V629.4H1277c3.555-147.19,125.043-266.192,272.857-266.192h4.419v13.254h-4.419c-143.192,0-259.683,116.44-259.683,259.565v6.627h-.315C1286.329,789.841,1164.841,908.847,1017.027,908.847Z" transform="translate(-211.051 -336.748)" fill-rule="evenodd" fill="url(#linear-gradient)"/>
        <path id="Path_255" data-name="Path 255" d="M2082.69,384.685q6.561,1.725,12.986,3.766" transform="translate(-676.103 -342.086)" fill="none" stroke="#a7a9ac" stroke-linecap="round" stroke-miterlimit="8" stroke-width="1.416" fill-rule="evenodd"/>
        <path id="Path_256" data-name="Path 256" d="M2021.67,401.622c94.306,40.939,160.266,134.925,160.266,244.355,0,147.033-119.129,266.232-266.086,266.232-99.74,0-186.674-54.928-232.23-136.189" transform="translate(-576.937 -346.295)" fill="none" stroke="#a7a9ac" stroke-linecap="round" stroke-miterlimit="8" stroke-width="1.416" stroke-dasharray="11.526 14.358" fill-rule="evenodd"/>
        <path id="Path_257" data-name="Path 257" d="M1673.394,880.215q-3.01-5.766-5.7-11.681" transform="translate(-572.978 -462.319)" fill="none" stroke="#a7a9ac" stroke-linecap="round" stroke-miterlimit="8" stroke-width="1.416" fill-rule="evenodd"/>
      </g>
      <g id="shake_hands" data-name="shake hands" transform="translate(179.049 225.469)" clip-path="url(#clip-path-2)">
        <path id="Path_468" data-name="Path 468" d="M813.159,604.372l13.4,4.387a1.055,1.055,0,0,0,.579.16,2.987,2.987,0,0,0,1.528-.546l4.215-3.042,29.5,38.31-4.987,3.618c-.193-.384-.773-.576-.949-.768L805.486,618.86l1.93-3.042a2.465,2.465,0,0,0-.771-3.442,2.348,2.348,0,0,0-1.3-.4,2.154,2.154,0,0,0-1.947,1.169l-5.372,8.581a5.745,5.745,0,0,0-.579,1.137v20.779a7.863,7.863,0,0,1-7.85,7.812,7.992,7.992,0,0,1-7.85-7.812V623.055l4.794-18.683Zm-58.987-7.62,3.828,2.1-32.188,55.47-3.829-2.1Zm8.413,48.795a6.041,6.041,0,0,1,4.408,2.1,5.3,5.3,0,0,1-1.336,7.62l-17.42,12.2a5.182,5.182,0,0,1-3.088.992,5.528,5.528,0,0,1-4.391-2.128,5.429,5.429,0,0,1,1.351-7.443l17.42-12.391A4.9,4.9,0,0,1,762.585,645.547Zm9.587,12.2a5.353,5.353,0,0,1,2.863,9.717l-13.4,9.717a5.052,5.052,0,0,1-3.088,1.008,5.515,5.515,0,0,1-4.375-2.145,5.3,5.3,0,0,1,1.335-7.62l12.837-9.348c.563-.192.948-.753,1.527-.945A8.232,8.232,0,0,1,772.172,657.746Zm9.717,12.486a5.121,5.121,0,0,1,4.263,2.193c1.914,2.289,1.141,5.907-1.336,7.62l-9.587,6.675a4.5,4.5,0,0,1-3.008,1.008,7.505,7.505,0,0,1-1.013-.064,5.953,5.953,0,0,1-3.636-2.1,5.418,5.418,0,0,1,1.335-7.427l9.2-6.677.579-.192A5.277,5.277,0,0,1,781.889,670.232Zm-24.468-60.705,4.408,2.658a3.166,3.166,0,0,0,1.061.272,1.267,1.267,0,0,0,.468-.08l11.485-1.521,4.215,1.713-2.285,9.525v21.163a12.925,12.925,0,1,0,25.849,0v-20.2l.387-.769,51.33,27.648c2.284,2.289,3.25,5.522,1.916,8.2a5.532,5.532,0,0,1-4.762,2.818,5.456,5.456,0,0,1-2.719-.721l-28.536-15.448a1.959,1.959,0,0,0-1.111-.337,2.691,2.691,0,0,0-2.139,1.3,2.267,2.267,0,0,0,.949,3.233L841.7,661.939a5.669,5.669,0,0,1,2.107,7.429,5.791,5.791,0,0,1-4.905,2.706,5.715,5.715,0,0,1-2.574-.609l-24.129-13.142a2.045,2.045,0,0,0-1.158-.352,2.866,2.866,0,0,0-2.284,1.3,2.743,2.743,0,0,0,.948,3.442l19.738,10.47a5.185,5.185,0,0,1,2.107,7.251,5.427,5.427,0,0,1-4.9,2.882,5.872,5.872,0,0,1-2.575-.593l-20.3-11.254a2.029,2.029,0,0,0-1.143-.336,2.39,2.39,0,0,0-2.107,1.3,2.146,2.146,0,0,0,.95,3.233l15.716,8.58a5.385,5.385,0,0,1,2.107,7.428,5.235,5.235,0,0,1-4.665,2.834,5.008,5.008,0,0,1-2.623-.736l-11.1-5.908a11.418,11.418,0,0,0-2.107-6.484,11.256,11.256,0,0,0-7.658-4,1.475,1.475,0,0,1,.177-.753,9.1,9.1,0,0,0-1.914-7.635,11.283,11.283,0,0,0-7.656-4,1.4,1.4,0,0,1,.192-.751,9.1,9.1,0,0,0-1.914-7.62,11.269,11.269,0,0,0-7.656-4.018c0-.177,0-.369.386-.753a10.662,10.662,0,0,0-1.931-7.62,10.183,10.183,0,0,0-8.124-3.938,10.972,10.972,0,0,0-6.048,1.841L739.42,654.511l-6.322-3.248Zm34.023,73.08a4.707,4.707,0,0,1,4.084,2.21,5.28,5.28,0,0,1,1.159,3.809,6.709,6.709,0,0,1-2.3,3.618l-5.743,4a5.183,5.183,0,0,1-3.088.993,5.531,5.531,0,0,1-4.392-2.13,5.426,5.426,0,0,1,1.352-7.444l5.162-3.811.58-.192A5.315,5.315,0,0,1,791.444,682.606ZM713.8,568a2.716,2.716,0,0,0-2.156,1.3,2.174,2.174,0,0,0,.964,3.25l37.353,21.53-32.366,55.471-2.686-1.329a2.175,2.175,0,0,0-1.223-.4,2.4,2.4,0,0,0-2.042,1.344,2.205,2.205,0,0,0,.964,3.25l12.837,7.428a2.475,2.475,0,0,0,1.238.352,2.725,2.725,0,0,0,2.2-1.312l1.915-3.427,5.179,2.866a11.009,11.009,0,0,0,.755,10.854,10.187,10.187,0,0,0,8.429,4.2,16.819,16.819,0,0,0,3.073-.384,10.858,10.858,0,0,0,1.914,5.923,10.037,10.037,0,0,0,8.414,4,16.825,16.825,0,0,0,3.071-.384,11.429,11.429,0,0,0,1.914,5.907,10.728,10.728,0,0,0,6.708,4c.386,0,1.141.192,1.722.192a16.494,16.494,0,0,0,3.055-.385,11.418,11.418,0,0,0,1.915,5.907,10.749,10.749,0,0,0,6.707,4c.387,0,1.158.384,1.722.384a11.012,11.012,0,0,0,5.935-1.9l5.759-4.195a11.567,11.567,0,0,0,2.863-3.25l9.957,5.54a15.093,15.093,0,0,0,5.18,1.135,7.618,7.618,0,0,0,2.863-.576,9.711,9.711,0,0,0,6.128-4.946,9.338,9.338,0,0,0,1.158-5.908c.758,0,1.336.192,1.915.192a10.746,10.746,0,0,0,9.185-5.155,11.5,11.5,0,0,0,1.158-6.1c.756,0,1.143.384,1.914.384a10.542,10.542,0,0,0,9.186-5.33,10.838,10.838,0,0,0,1.158-5.908c.756,0,1.141.192,1.914.192a14.65,14.65,0,0,0,2.863-.384,10.217,10.217,0,0,0,6.13-5.155,8.576,8.576,0,0,0,.771-7.812,7.878,7.878,0,0,0-.771-1.9l4.406-3.042,2.3,2.85a2.575,2.575,0,0,0,2.011.848,2.873,2.873,0,0,0,1.625-.464l6.709-5.155a3.845,3.845,0,0,0,.385-4,3.779,3.779,0,0,0-2.269-.977,1.785,1.785,0,0,0-1.173.417l-4.794,3.809-39.073-50.7,22.214-14.3a2.3,2.3,0,0,0,.772-3.426,2.193,2.193,0,0,0-1.833-1.042,2.66,2.66,0,0,0-1.432.464l-24.514,15.624a2.919,2.919,0,0,0-.758,3.619l4.6,5.731-3.073,2.274-12.643-4c-.192,0-.562-.192-.756-.192H784.623a2.273,2.273,0,0,0-2.3,1.921l-1.722,6.467-4.214-1.713a2.1,2.1,0,0,0-1.158-.192l-11.485,1.346-3.829-2.1,3.636-6.483a2.278,2.278,0,0,0-.965-3.248l-47.679-27.44A2.015,2.015,0,0,0,713.8,568Z" transform="translate(-710.401 -560.365)" fill="#172671" fill-rule="evenodd"/>
        <path id="Path_469" data-name="Path 469" d="M826.438,563.011a3.157,3.157,0,0,0-1.327.3l-13.684,8.92a2.074,2.074,0,0,0-.759,3.218,2.4,2.4,0,0,0,2.118,1.147,4.607,4.607,0,0,0,1.537-.382l13.667-8.73a2.4,2.4,0,0,0,.582-3.409A2.523,2.523,0,0,0,826.438,563.011Z" transform="translate(-659.77 -562.918)" fill="#172671" fill-rule="evenodd"/>
      </g>
      <g id="box" transform="translate(726.615 205.574)" clip-path="url(#clip-path-3)">
        <path id="Path_472" data-name="Path 472" d="M177.735,632.908v-2c-.991-1-1.983-2-2.974-2L106.354,595H103.38l-69.4,33.918A5.193,5.193,0,0,0,32,632.908h0v83.8a5.193,5.193,0,0,0,1.983,3.99l69.4,33.918h2.974l69.4-33.918a5.191,5.191,0,0,0,1.983-3.99v-83.8Zm-72.372-28.93,59.483,28.93-21.81,10.974L82.561,613.954Zm0,57.86-60.475-28.93,28.75-13.966,59.483,28.93ZM39.931,638.894l60.475,29.928v74.819l-60.475-28.93Zm69.4,104.747V668.821l27.759-13.966v19.952a4.278,4.278,0,0,0,3.966,3.99c2.974,0,3.966-2,3.966-3.99V650.865L169.8,638.894v75.817Z" transform="translate(-32.266 -593.546)" fill="#12154c" fill-rule="evenodd"/>
      </g>
    </g>
    <g id="Group_33" data-name="Group 33" transform="translate(1245.761 202.732)">
      <g id="web" transform="translate(0 0)" clip-path="url(#clip-path-4)">
        <path id="Path_492" data-name="Path 492" d="M1505.833,160.46l2.9,11.235-11.56-2.494Zm-63.228-27.451c-22.312,0-42.98,8.728-59.086,24.123-19.007,19.132-27.7,47.427-22.746,74.455.838,2.5,2.483,4.582,5.384,4.582h.823c3.305-.41,4.546-3.327,4.142-6.245-4.142-23.292,3.3-47.837,20.234-64.474a72.675,72.675,0,0,1,51.25-21.218,69.04,69.04,0,0,1,46.7,17.89l-7.432,7.486a5.721,5.721,0,0,0-1.66,5.414c.4,2.073,2.064,2.906,4.142,3.737L1513.7,185h1.226a5.042,5.042,0,0,0,3.305-1.663,5.455,5.455,0,0,0,1.66-5.414L1513.7,148.4a5.518,5.518,0,0,0-3.724-4.172,7.819,7.819,0,0,0-1.45-.145,3.686,3.686,0,0,0-3.514,1.808l-7.836,7.91C1482.28,140.072,1462.45,133.009,1442.605,133.009Z" transform="translate(-1340.376 -122.398)" fill="#172671" fill-rule="evenodd"/>
        <path id="Path_493" data-name="Path 493" d="M1375.787,239.833l11.186,2.9-8.7,8.687Zm142.279-63.824a3.815,3.815,0,0,0-.778.066,5.691,5.691,0,0,0-4.142,6.2c4.142,23.6-2.916,47.617-20.338,64.178A71.681,71.681,0,0,1,1441.767,268a69.93,69.93,0,0,1-47.317-17.809l7.881-7.872c1.256-1.235,2.079-3.312,1.256-4.968-.419-2.064-1.66-3.312-4.157-3.721l-29.461-6.217a5.23,5.23,0,0,0-1.181-.144,5.334,5.334,0,0,0-3.8,1.8,5.413,5.413,0,0,0-1.66,5.388l6.221,29.4c.419,2.064,2.079,3.312,3.739,4.141h1.241a4.06,4.06,0,0,0,3.739-1.657l7.881-7.872c14.94,13.669,34.859,20.7,54.779,20.7,22.4,0,43.159-8.687,59.34-24.013,19.516-19.872,28.638-47.617,23.24-74.942C1523.136,177.612,1520.429,176.009,1518.066,176.009Z" transform="translate(-1337.585 -96.49)" fill="#172671" fill-rule="evenodd"/>
      </g>
      <g id="books_2" data-name="books 2" transform="translate(56.841 54.947)" clip-path="url(#clip-path-5)">
        <path id="Path_495" data-name="Path 495" d="M1568.234,73.111a17.947,17.947,0,0,0,0,17.87h-60.979a8.935,8.935,0,1,1,0-17.87Zm-14.281,23.749V114.73h-49.874V96.861Zm12.244,0V114.73h-5.9V96.861Zm11.549,0V114.73h-5.657V96.861Zm-72.981,23.749v17.869h-6.344V120.61Zm11.784,0v17.869h-5.892V120.61Zm55.305,0v17.869h-49.413V120.61Zm-64.365-53.6a16.033,16.033,0,0,0-12.471,6.555,14.838,14.838,0,0,0,3.4,20.131V114.73h-2.95a2.854,2.854,0,0,0-2.95,2.943v23.75a3.049,3.049,0,0,0,2.95,3.166H1574.8a3.048,3.048,0,0,0,2.942-3.166V120.84h2.95a2.883,2.883,0,0,0,2.724-3.167V93.925a2.813,2.813,0,0,0-2.724-2.944h-4.76a11.945,11.945,0,0,1,.687-18.544,3.113,3.113,0,0,0-1.366-5.428Z" transform="translate(-1492.055 -66.106)" fill="#172671" fill-rule="evenodd"/>
      </g>
    </g>
    <g id="Icon_ionic-ios-rocket" data-name="Icon ionic-ios-rocket" transform="matrix(0.545, 0.839, -0.839, 0.545, 1400.539, -10.24)">
      <path id="Path_668" data-name="Path 668" d="M68.1,4.254a.691.691,0,0,0-.516-.532C59.08,1.643,39.421,9.056,28.77,19.707a46.038,46.038,0,0,0-5.177,6.115,19.263,19.263,0,0,0-9.368,1.173c-7.9,3.472-10.2,12.543-10.839,16.438a1.4,1.4,0,0,0,1.533,1.627L17.6,43.667a28.2,28.2,0,0,0,.172,2.862,2.839,2.839,0,0,0,.829,1.736l4.911,4.911a2.839,2.839,0,0,0,1.736.829,28.142,28.142,0,0,0,2.846.172L26.705,66.846a1.4,1.4,0,0,0,1.627,1.533c3.894-.626,12.981-2.925,16.438-10.823a19.35,19.35,0,0,0,1.189-9.337,46.112,46.112,0,0,0,6.131-5.177C62.787,32.406,70.153,13.185,68.1,4.254ZM42.58,29.263a6.68,6.68,0,1,1,9.447,0A6.674,6.674,0,0,1,42.58,29.263Z" transform="translate(0 0)" fill="#775eff"/>
      <path id="Path_669" data-name="Path 669" d="M20.207,30.932h0a5.933,5.933,0,0,1-3.1,1.251,4.21,4.21,0,0,1-4.848-4.848A5.816,5.816,0,0,1,13.5,24.253l.016-.016a.523.523,0,0,0-.438-.891A7.19,7.19,0,0,0,8.868,25.4C6.053,28.21,5.787,38.658,5.787,38.658s10.463-.266,13.278-3.081a7.142,7.142,0,0,0,2.049-4.207A.535.535,0,0,0,20.207,30.932Z" transform="translate(2.964 24.45)" fill="#775eff"/>
    </g>
  </g>
</svg>
