<svg id="Group_65" data-name="Group 65" xmlns="http://www.w3.org/2000/svg" width="340.381" height="274.476" viewBox="0 0 340.381 274.476">
  <g id="Group_54" data-name="Group 54" transform="translate(126.866 0)">
    <path id="Path_290" data-name="Path 290" d="M424.5,464.071H577.151V266.258a75.733,75.733,0,0,0-14.576-44.868c-.351-.478-.7-.95-1.061-1.416a76.31,76.31,0,0,0-16.245-15.767c-.348-.254-.7-.5-1.053-.752a76.145,76.145,0,0,0-16.624-8.694c-.349-.132-.7-.265-1.06-.392a76.073,76.073,0,0,0-16.432-3.875c-.347-.047-.7-.085-1.061-.122a77.269,77.269,0,0,0-16.43,0c-.356.037-.712.074-1.064.122a76.057,76.057,0,0,0-16.427,3.874c-.356.127-.711.26-1.061.392a75.957,75.957,0,0,0-16.431,8.565c-.355.244-.71.493-1.06.742a77.106,77.106,0,0,0-9.71,8.221,76.226,76.226,0,0,0-6.721,7.686c-.36.465-.709.937-1.059,1.414A75.735,75.735,0,0,0,424.5,266.258Z" transform="translate(-385.062 -189.935)" fill="rgba(0,0,0,0.61)"/>
    <path id="Path_367" data-name="Path 367" d="M8.451,0A8.451,8.451,0,1,0,16.9,8.451,8.451,8.451,0,0,0,8.451,0Z" transform="translate(83.278 168.759)" fill="#fff"/>
    <path id="Path_302" data-name="Path 302" d="M265.839,708.45H478.667c.19,0,.343-.282.343-.629s-.154-.629-.343-.629H265.839c-.19,0-.343.282-.343.629S265.649,708.45,265.839,708.45Z" transform="translate(-265.495 -433.974)" fill="#3f3d56"/>
    <path id="Path_303" data-name="Path 303" d="M500.933,457.477H569.6a3.415,3.415,0,0,0,3.433-3.389V300.819a3.415,3.415,0,0,0-3.433-3.389H500.933a3.415,3.415,0,0,0-3.433,3.389V454.088A3.415,3.415,0,0,0,500.933,457.477Z" transform="translate(-413.08 -240.651)" fill="#fff"/>
    <rect id="Rectangle_34" data-name="Rectangle 34" width="75.533" height="1.056" transform="translate(84.42 106.373)" fill="#ccc"/>
    <rect id="Rectangle_35" data-name="Rectangle 35" width="75.533" height="1.056" transform="translate(84.304 166.647)" fill="#ccc"/>
    <rect id="Rectangle_36" data-name="Rectangle 36" width="1.056" height="160.574" transform="translate(132.786 56.78)" fill="#ccc"/>
    <rect id="Rectangle_37" data-name="Rectangle 37" width="1.056" height="160.574" transform="translate(118.405 56.78)" fill="#ccc"/>
  </g>
  <g id="Group_56" data-name="Group 56" transform="translate(0 34.112)">
    <ellipse id="Ellipse_56" data-name="Ellipse 56" cx="170.19" cy="7.846" rx="170.19" ry="7.846" transform="translate(0 224.671)" fill="#3f3d56"/>
    <path id="Path_306" data-name="Path 306" d="M959.552,642.613a5.254,5.254,0,0,1,2.616-4.3l1.173,2.324-.034-2.81a5.243,5.243,0,1,1-3.736,4.783Z" transform="translate(-941.397 -458.605)" fill="#57b793"/>
    <path id="Path_307" data-name="Path 307" d="M936.722,733.217a5.231,5.231,0,1,0-.25-4.222l3.273,2.664-3.6-.837A5.228,5.228,0,0,0,936.722,733.217Z" transform="translate(-909.215 -513.713)" fill="#57b793"/>
    <path id="Path_308" data-name="Path 308" d="M945.972,701.131a5.231,5.231,0,0,0,5.478-5,5.161,5.161,0,0,0-.452-2.388,5.253,5.253,0,0,0-3.363-2.907l.026,2.163-1.188-2.354h0a5.246,5.246,0,0,0-.49,10.481Z" transform="translate(-915.876 -491.824)" fill="#57b793"/>
    <path id="Path_309" data-name="Path 309" d="M980.052,678.451a5.237,5.237,0,1,0-2.317-9.8l.927,2.541-1.906-1.831a5.231,5.231,0,0,0-1.7,3.621,5.112,5.112,0,0,0,.134,1.442A5.231,5.231,0,0,0,980.052,678.451Z" transform="translate(-962.686 -477.629)" fill="#57b793"/>
    <path id="Path_310" data-name="Path 310" d="M960.3,648.793c1.211.134,2.388.512,3.6.587a3.919,3.919,0,0,0,3.318-1.162,16.569,16.569,0,0,0,.971-1.7,3.734,3.734,0,0,1,1.319-1.244,5.231,5.231,0,1,1-9.8,3.482C959.911,648.76,960.109,648.775,960.3,648.793Z" transform="translate(-941.442 -463.403)" opacity="0.1"/>
    <path id="Path_311" data-name="Path 311" d="M979.867,683.473A5.231,5.231,0,0,0,984.855,676a3.884,3.884,0,0,0-1.054,1.057,16.9,16.9,0,0,1-1.039,1.734,4.276,4.276,0,0,1-3.479,1.214c-1.267-.06-2.485-.415-3.736-.531-.172,0-.351-.03-.527-.034A5.231,5.231,0,0,0,979.867,683.473Z" transform="translate(-962.5 -482.651)" opacity="0.1"/>
    <path id="Path_312" data-name="Path 312" d="M945.754,706.333a5.231,5.231,0,0,0,5.478-5,5.155,5.155,0,0,0-.452-2.388,4.3,4.3,0,0,0-1.121,1.065c-.407.575-.661,1.237-1.121,1.767a4.843,4.843,0,0,1-3.714,1.3c-1.341-.034-2.548-.348-3.841-.445A5.253,5.253,0,0,0,945.754,706.333Z" transform="translate(-915.657 -497.026)" opacity="0.1"/>
    <path id="Path_313" data-name="Path 313" d="M935.764,738.8a5.241,5.241,0,1,0,9.561-4.3,5.455,5.455,0,0,0-1.151,1.028,20.643,20.643,0,0,1-1.4,1.868,6.526,6.526,0,0,1-4.342,1.524A22.461,22.461,0,0,1,935.764,738.8Z" transform="translate(-908.257 -519.293)" opacity="0.1"/>
    <path id="Path_314" data-name="Path 314" d="M942.942,762.9s-4.136-.127-5.384-1.016-6.352-1.951-6.677-.523-6.221,7.1-1.547,7.122,10.858-.747,12.1-1.495S942.942,762.9,942.942,762.9Z" transform="translate(-902.339 -535.68)" fill="#656380"/>
    <path id="Path_315" data-name="Path 315" d="M929.237,771.71c4.67.037,10.858-.747,12.1-1.495.945-.575,1.326-2.649,1.45-3.605h.138s-.262,3.336-1.495,4.11-7.428,1.525-12.1,1.495c-1.349,0-1.816-.493-1.79-1.2C927.717,771.434,928.232,771.7,929.237,771.71Z" transform="translate(-902.324 -539.406)" opacity="0.2"/>
    <path id="Path_324" data-name="Path 324" d="M309.929,658.777a12.778,12.778,0,0,1-24.133-5.231,12.614,12.614,0,0,1,.833-5.186,12.805,12.805,0,0,1,2.8,2.5c1.214,1.495,2.018,3.161,3.422,4.543,2.615,2.563,6.834,3.624,10.589,3.736A54.827,54.827,0,0,0,309.929,658.777Z" transform="translate(-29.543 -465.338)" opacity="0.1"/>
    <path id="Path_325" data-name="Path 325" d="M180.22,566.237l49.32,10.088,1.121-.112L274,571.841V516.917l-53.056-8.967-38.484,4.484-.011.243,0,.12Z" transform="translate(-0.958 -340.707)" fill="#815025"/>
    <path id="Path_326" data-name="Path 326" d="M296.22,574.16l49.32,10.088,1.121-.112V527.83l-48.21-7.23Z" transform="translate(-116.958 -348.63)" opacity="0.1"/>
    <path id="Path_327" data-name="Path 327" d="M180.22,512.8l.015.011,48.2,7.1,43.342-2.989-53.056-8.967-38.484,4.484-.011.243Z" transform="translate(1.269 -340.707)" opacity="0.05"/>
    <path id="Path_328" data-name="Path 328" d="M325.22,572.237l49.32,10.088,1.121-.112L419,577.841V522.917l-53.056-8.967-38.484,4.484-.011.243,0,.12Z" transform="translate(-200.135 -344.465)" fill="#965a27"/>
    <path id="Path_329" data-name="Path 329" d="M441.22,580.161l49.32,10.088,1.121-.112V533.83l-48.21-7.23Z" transform="translate(-316.135 -352.388)" opacity="0.1"/>
    <path id="Path_330" data-name="Path 330" d="M325.22,518.8l.015.011,48.2,7.1,43.342-2.989-53.056-8.967-38.484,4.484-.011.243Z" transform="translate(-197.908 -344.465)" opacity="0.05"/>
    <path id="Path_331" data-name="Path 331" d="M234.22,428.237l49.32,10.088,1.121-.112L328,433.841V378.917l-53.056-8.967-38.484,4.484-.011.243,0,.12Z" transform="translate(-75.134 -254.268)" fill="#8d5524"/>
    <path id="Path_332" data-name="Path 332" d="M350.22,436.16l49.32,10.088,1.121-.112V389.83l-48.21-7.23Z" transform="translate(-191.134 -262.192)" opacity="0.1"/>
    <path id="Path_333" data-name="Path 333" d="M234.22,374.8l.015.011,48.2,7.1,43.341-2.989-53.056-8.967-38.484,4.484-.011.243Z" transform="translate(-72.907 -254.268)" opacity="0.05"/>
    <path id="Path_334" data-name="Path 334" d="M429.22,481.111l25.74,5.268.587-.06,22.62-2.283V455.372l-27.69-4.682-20.087,2.343-.007.127v.06Z" transform="translate(-298.157 -304.841)" fill="#d18441"/>
    <path id="Path_335" data-name="Path 335" d="M489.76,485.252l25.74,5.268.587-.06V461.074L490.922,457.3Z" transform="translate(-358.697 -308.981)" opacity="0.1"/>
    <path id="Path_336" data-name="Path 336" d="M429.22,453.219l.007.008,25.157,3.706L477,455.372l-27.69-4.682-20.087,2.343-.007.127Z" transform="translate(-296.994 -304.841)" opacity="0.05"/>
    <path id="Path_337" data-name="Path 337" d="M244.22,332.111l25.74,5.264.587-.056,22.62-2.283V306.372l-27.69-4.682-20.087,2.343-.007.127v.06Z" transform="translate(-44.034 -211.513)" fill="rgba(168,98,37,0.98)"/>
    <path id="Path_338" data-name="Path 338" d="M304.76,336.252l25.74,5.265.587-.056V312.074L305.922,308.3Z" transform="translate(-104.574 -215.653)" opacity="0.1"/>
    <path id="Path_339" data-name="Path 339" d="M244.22,304.22l.007.008,25.157,3.706L292,306.372l-27.69-4.682-20.087,2.343-.007.127Z" transform="translate(-42.872 -211.513)" opacity="0.05"/>
    <path id="Path_340" data-name="Path 340" d="M365.22,329.111l25.74,5.265.587-.056,22.62-2.283V303.372l-27.69-4.682-20.087,2.343-.007.127v.06Z" transform="translate(-210.244 -209.633)" fill="#bb7940"/>
    <path id="Path_341" data-name="Path 341" d="M425.76,333.252l25.74,5.264.587-.056V309.074L426.922,305.3Z" transform="translate(-270.784 -213.774)" opacity="0.1"/>
    <path id="Path_342" data-name="Path 342" d="M365.22,301.22l.007.007,25.157,3.706L413,303.372l-27.69-4.682-20.087,2.343-.007.127Z" transform="translate(-209.082 -209.633)" opacity="0.05"/>
    <path id="Path_343" data-name="Path 343" d="M401.22,252.111l25.74,5.265.587-.056,22.62-2.283V226.372l-27.69-4.682-20.087,2.343-.007.127v.06Z" transform="translate(-259.695 -161.403)" fill="#c27b3d"/>
    <path id="Path_344" data-name="Path 344" d="M461.76,256.252l25.74,5.265.586-.056V232.074L462.922,228.3Z" transform="translate(-320.235 -165.544)" fill="#8d5524" opacity="0.1"/>
    <path id="Path_345" data-name="Path 345" d="M401.22,224.219l.007.007,25.157,3.706L449,226.372l-27.69-4.682-20.087,2.343-.007.127Z" transform="translate(-258.533 -161.403)" opacity="0.05"/>
    <path id="Path_346" data-name="Path 346" d="M719.952,231.7c.273,2.429,2.126,4.387,2.813,6.725,1.031,3.531-.747,7.323-3.2,10.088a22.332,22.332,0,0,1-15.551,7.376,6.693,6.693,0,0,1-2.57-.28,5.582,5.582,0,0,1-1.954-1.338,12.5,12.5,0,0,1-3.221-6.991,37.363,37.363,0,0,1-.09-7.813,4.418,4.418,0,0,1,.291-1.577,4.006,4.006,0,0,1,1.012-1.244,23.542,23.542,0,0,1,4.353-3.165,4.89,4.89,0,0,0,1.823-1.394,4.563,4.563,0,0,0,.564-1.67l.482-2.451a4.8,4.8,0,0,1,.706-1.988c.848-1.143,2.473-1.3,3.9-1.356l5.231-.205c1.625-.064,3.763-.531,5.35-.209,1.495.3.99,1.663.721,2.9A20.975,20.975,0,0,0,719.952,231.7Z" transform="translate(-595.957 -199.597)" fill="#ffc0c6"/>
    <path id="Path_347" data-name="Path 347" d="M719.952,231.7c.273,2.429,2.126,4.387,2.813,6.725,1.031,3.531-.747,7.323-3.2,10.088a22.332,22.332,0,0,1-15.551,7.376,6.693,6.693,0,0,1-2.57-.28,5.582,5.582,0,0,1-1.954-1.338,12.5,12.5,0,0,1-3.221-6.991,37.363,37.363,0,0,1-.09-7.813,4.418,4.418,0,0,1,.291-1.577,4.006,4.006,0,0,1,1.012-1.244,23.542,23.542,0,0,1,4.353-3.165,4.89,4.89,0,0,0,1.823-1.394,4.563,4.563,0,0,0,.564-1.67l.482-2.451a4.8,4.8,0,0,1,.706-1.988c.848-1.143,2.473-1.3,3.9-1.356l5.231-.205c1.625-.064,3.763-.531,5.35-.209,1.495.3.99,1.663.721,2.9A20.975,20.975,0,0,0,719.952,231.7Z" transform="translate(-595.957 -199.597)" opacity="0.1"/>
    <path id="Path_348" data-name="Path 348" d="M720.927,517.04l2.219,24.331c.579,6.382,1.169,12.789,2.305,19.089.374,2.171.852,4.33,1.4,6.471,1.517,5.944,3.718,11.755,4.427,17.848.023.176.041.374.06.534a16,16,0,0,0,.747,3.961c.374.93.9,1.779,1.285,2.7a17.685,17.685,0,0,1,.96,5.862,25.277,25.277,0,0,1,8.7-2.989c1.494-.22,3.12-.374,4.11-1.495,1.121-1.218.99-3.082.8-4.719q-.882-7.622-1.756-15.237a39.7,39.7,0,0,0-1.121-6.471c-.2-.706-.445-1.4-.691-2.1-.34-.956-.684-1.913-.942-2.9a34.9,34.9,0,0,1-.74-4.794c-.6-5.111-1.326-10.211-1.962-15.319l-.034-.269a156.647,156.647,0,0,1-1.468-23.318c.03-1.154.078-2.309.153-3.467.1-1.678.258-2.567-1.121-3.617a26.142,26.142,0,0,0-5.313-2.728c-.945-.411-11.355-4.11-11.583-3.3a20.289,20.289,0,0,0-.747,5.313A59.138,59.138,0,0,0,720.927,517.04Z" transform="translate(-630.152 -375.547)" fill="#080808"/>
    <path id="Path_349" data-name="Path 349" d="M730.4,621.72c.374,2.171.852,4.33,1.4,6.471,1.517,5.945,3.718,11.755,4.428,17.849.022.176.041.374.06.534,4.64-6.628,8.549-13.757,13.077-20.456-.34-.956-.684-1.913-.942-2.9a34.9,34.9,0,0,1-.777-4.823c-.6-5.111-1.327-10.211-1.962-15.319l-.034-.269a15.872,15.872,0,0,1-1.121,3.142c-3.041,6.18-10.267,9.3-13.8,15.218Q730.549,621.447,730.4,621.72Z" transform="translate(-635.101 -436.807)" opacity="0.1"/>
    <path id="Path_350" data-name="Path 350" d="M730.885,457.557a114.933,114.933,0,0,1-1.737,14.762l-1.633,10.088c-.893,5.53-1.827,11.168-4.443,16.119-1.958,3.706-4.775,6.867-7.327,10.189-6.27,8.168-10.981,17.423-16.926,25.829-1.73,2.444-4.2,5.089-7.148,4.577-1.935-.333-3.34-1.947-4.857-3.187-1.793-1.465-3.953-2.537-5.365-4.375s-1.689-4.887.224-6.2a10.338,10.338,0,0,1,2.19-.9c2.963-1.121,4.883-4.02,6.1-6.95s1.962-6.072,3.587-8.8c3.534-5.915,10.764-9.038,13.806-15.222,1.7-3.46,1.868-7.473,2-11.31l.332-9.83a7.158,7.158,0,0,0-.374-3.176c-1.162-2.616-4.674-2.862-7.521-3.195a25.69,25.69,0,0,1-9.218-2.907,9.56,9.56,0,0,1-4.11-3.658,11.754,11.754,0,0,1-1-4.951l-.986-17.819a11.238,11.238,0,0,1,.374-4.555c1.356-3.609,5.915-4.79,9.767-4.618,7.166.321,13.78,3.4,20.55,5.489a52.5,52.5,0,0,0,5.093,1.326c1.495.3,3.363.179,4.8.665,2.571.867,2.507,6.494,2.869,8.825a74.06,74.06,0,0,1,.96,13.768Z" transform="translate(-597.931 -326.978)" fill="#080808"/>
    <path id="Path_351" data-name="Path 351" d="M798.262,709.009a4.57,4.57,0,0,0-1,2.455,83.746,83.746,0,0,0-1.42,14.837,2.459,2.459,0,0,1-.265,1.345,1.717,1.717,0,0,1-.7.56c-1.827.87-3.946-.344-5.47-1.678-2.821-2.47-5.208-5.788-5.369-9.535a21.879,21.879,0,0,0-.1-2.892,12.028,12.028,0,0,0-1.8-3.875,32.908,32.908,0,0,1-2.989-6.658c-.276-.874-.463-1.973.224-2.582a2.4,2.4,0,0,1,.811-.422l8.257-3.064c.717-.265,2.5,4.3,2.776,4.8a3.782,3.782,0,0,0,2.765,2.2c1.386.284,3.1-.127,4.42.579C800.646,706.274,799.529,707.735,798.262,709.009Z" transform="translate(-703.549 -496.112)" fill="#535070"/>
    <path id="Path_352" data-name="Path 352" d="M728.214,733.484a2.515,2.515,0,0,1,.628-.8,2.815,2.815,0,0,1,1.267-.43c1.569-.269,3.43-.444,4.517.725,1.016,1.095.841,2.877,1.689,4.11a12.79,12.79,0,0,1,.867,1.121,4.206,4.206,0,0,1,.373,2.01c.045,1.9.09,3.811-.045,5.709a7.966,7.966,0,0,1-1.371,4.51c-1.6,2-4.484,2.29-7.039,2.417l-2.074.108a4.111,4.111,0,0,1-1.7-.157,2.784,2.784,0,0,1-1.465-1.61c-1.08-2.683.628-5.571,1.681-8.261C726.76,739.843,726.544,736.409,728.214,733.484Z" transform="translate(-620.768 -517.765)" fill="#535070"/>
    <path id="Path_353" data-name="Path 353" d="M704.511,183.139a1.692,1.692,0,0,0-.116-.8c-.3-.534-1.095-.374-1.693-.239-2.4.605-4.936.056-7.413.2s-5.265,1.379-5.761,3.807a18.012,18.012,0,0,1-4.569-4.693,5.63,5.63,0,0,1-1.192-3.437c.135-1.779,1.625-3.109,2.989-4.237l4.11-3.363a6.243,6.243,0,0,1,1.846-1.173,9.183,9.183,0,0,1,2.989-.168c2.989,0,6.195-1.364,8.859,0a9.454,9.454,0,0,1,2.761,2.511l3.673,4.349a2.32,2.32,0,0,1,.59,1,4.389,4.389,0,0,1-.265,1.588c-.172.971.247,2.01-.075,2.944-.534,1.547-2.417,1.767-3.568,2.657-.426.329-1.1,1.453-1.61,1.438C705.165,185.5,704.537,183.856,704.511,183.139Z" transform="translate(-579.919 -164.725)" fill="#3f3d56"/>
    <circle id="Ellipse_57" data-name="Ellipse 57" cx="11.769" cy="11.769" r="11.769" transform="translate(106.59 7.701)" fill="#ffc0c6"/>
    <path id="Path_354" data-name="Path 354" d="M680.958,258.324a5.7,5.7,0,0,1,5.533-3.819,1.664,1.664,0,0,0,1.024-.131,1.419,1.419,0,0,0,.422-.523,20.821,20.821,0,0,0,1.715-4.058c.187-.624.445-1.36,1.076-1.521a1.444,1.444,0,0,1,1.367.6,13.074,13.074,0,0,0,.979,1.229c1.495,1.323,4.11.116,5.675,1.33.258.2.471.452.747.635a3.4,3.4,0,0,0,.863.374,82.71,82.71,0,0,1,8.923,3.486c-1.046,6.292-2.115,12.7-4.566,18.588-1.166,2.8-2.485,5.548-3.419,8.437-2.07,6.4-2.16,13.249-2.186,19.978,0,4.6,0,9.3,1.495,13.66a13.222,13.222,0,0,1,.841,2.989,3.109,3.109,0,0,1-1.054,2.795,3.554,3.554,0,0,1-1.625.572c-2.582.374-5.182-.306-7.723-.9a207.879,207.879,0,0,0-20.692-3.363l-11.62-1.495a6.8,6.8,0,0,1-2.406-.624c-2.126-1.162-2.328-4.36-1.005-6.393.632-.975,1.524-1.775,2.059-2.806a2.606,2.606,0,0,0-.34-3.195c-1.868-1.457-1.308-4.159-1.4-6.52q-.374-9.909.1-19.8a38.711,38.711,0,0,0,.067-4.11,36.25,36.25,0,0,0-1.281-6.86L651,252.981a7.247,7.247,0,0,1,4.36-2.8c1.67-.418,3.415-.542,5.063-1.054,3.363-1.046,6.382-3.7,9.905-3.452a1.812,1.812,0,0,1,.77.187c.792.452.669,1.6.717,2.507.112,2.021,1.6,3.706,3.236,4.891a58.459,58.459,0,0,1,5.018,3.393A2.241,2.241,0,0,1,680.958,258.324Z" transform="translate(-565.356 -213.099)" fill="#a91515"/>
    <path id="Path_355" data-name="Path 355" d="M598.832,307.507a13.824,13.824,0,0,0,2.473,1.274,8.219,8.219,0,0,1,2.373,1.151,3.754,3.754,0,0,1,.826,1.02,4.532,4.532,0,0,1-4.177,6.752,9.108,9.108,0,0,1-3.09-.923l-8.3-3.613c-1.4-.609-2.922-1.319-3.587-2.7a.651.651,0,0,1-.082-.43.706.706,0,0,1,.344-.374,18.6,18.6,0,0,0,4.831-4.558c.34-.463.747-1.554,1.24-1.835C593.436,302.3,597.423,306.6,598.832,307.507Z" transform="translate(-436.596 -249.096)" fill="#ffc0c6"/>
    <path id="Path_356" data-name="Path 356" d="M796.01,307l-3.06,3.5c-.658.747-1.315,1.495-1.913,2.3a26.77,26.77,0,0,0-3.5,6.6,11.544,11.544,0,0,0-.986,5.459,13.46,13.46,0,0,0,.766,2.776,34.328,34.328,0,0,0,2.081,5.007,28.489,28.489,0,0,0,2.328,3.5,81.869,81.869,0,0,0,7.76,8.874,9.986,9.986,0,0,1,1.939,4.11c.841,2.582,2.84,4.6,4.771,6.5a13.142,13.142,0,0,0,2.051,1.764,6.651,6.651,0,0,0,3.736,1.061,4.108,4.108,0,0,0,1.677-.347,4.339,4.339,0,0,0,2.133-3.613,7.734,7.734,0,0,0-.643-3.871c-1.756-3.89-6.266-5.575-9.453-8.414a30.845,30.845,0,0,1-4.712-5.821,20.2,20.2,0,0,1-2.38-4.174c-.71-1.9-.433-4.151-1.057-6.079-.262-.818-.747-1.554-1.013-2.365a2.8,2.8,0,0,1,.142-2.47,3.568,3.568,0,0,1,1.386-1.016c2.036-1.031,4.316-2.361,4.7-4.614a4.938,4.938,0,0,0-.912-3.523,14.571,14.571,0,0,0-2.567-2.69C798.4,308.655,796.9,307.77,796.01,307Z" transform="translate(-722.52 -251.522)" fill="#ffc0c6"/>
    <path id="Path_357" data-name="Path 357" d="M560.124,322.724a5.663,5.663,0,0,1,2.305-2.746,4.244,4.244,0,0,1,3.363,0,12.75,12.75,0,0,1,2.944,1.778l2.638,1.947a6.489,6.489,0,0,1,1.565,1.446,6.017,6.017,0,0,1,.815,2.242,16.282,16.282,0,0,1,.415,5.534c-.419,2.989-2.212,5.575-4.185,7.846-1.233,1.412-2.757,2.84-4.633,2.9a2.126,2.126,0,0,1-2.048-1.031,2.55,2.55,0,0,1-.183-.919c-.2-3.318.986-6.557,2.369-9.58a5.929,5.929,0,0,0,.747-2.574.7.7,0,0,0-.112-.434.725.725,0,0,0-.448-.22c-1.894-.374-5.16,1.1-6.486-1.005C558.33,326.52,559.511,323.961,560.124,322.724Z" transform="translate(-395.923 -259.433)" fill="#ffc0c6"/>
    <path id="Path_358" data-name="Path 358" d="M702.874,173.229a1.739,1.739,0,0,0-.119-.8c-.3-.538-1.095-.374-1.692-.239-2.4.605-4.936.056-7.413.2s-5.261,1.379-5.761,3.807a18.131,18.131,0,0,1-4.57-4.693,5.648,5.648,0,0,1-1.192-3.441c.134-1.778,1.629-3.109,2.989-4.233l4.11-3.363a6.225,6.225,0,0,1,1.842-1.173,9.19,9.19,0,0,1,2.989-.168c2.989,0,6.195-1.364,8.859,0a9.459,9.459,0,0,1,2.761,2.511l3.677,4.349a2.329,2.329,0,0,1,.587,1,4.394,4.394,0,0,1-.265,1.588c-.172.971.247,2.01-.075,2.94-.534,1.551-2.417,1.771-3.568,2.66-.426.329-1.1,1.453-1.611,1.438C703.536,175.59,702.908,173.946,702.874,173.229Z" transform="translate(-577.662 -158.518)" fill="#3f3d56"/>
    <path id="Path_359" data-name="Path 359" d="M630.333,277.653a4.879,4.879,0,0,1,1.233,1.147c.43.654.519,1.495.889,2.167.792,1.472,2.649,2,3.8,3.206a1.193,1.193,0,0,1,.374.628,1.385,1.385,0,0,1-.31.9l-5.582,8.773c-1.868.164-3.639-1-5.5-.844a5.546,5.546,0,0,1-2.07.09,6.017,6.017,0,0,1-1.326-.811c-1.121-.7-2.586-.785-3.516-1.708a4.7,4.7,0,0,1-1-3.538,13.966,13.966,0,0,1,.333-3.251c.822-3.363,3.4-5.956,5.011-8.937.788-1.453,1.214-2.3,2.877-1.3S628.76,276.5,630.333,277.653Z" transform="translate(-480.125 -230.69)" fill="#a91515"/>
    <path id="Path_360" data-name="Path 360" d="M800.868,267.371a13.1,13.1,0,0,0-2.81,2.458c-.848,1.095-1.33,2.44-2.148,3.561a38.875,38.875,0,0,1-2.765,2.929,22.327,22.327,0,0,0-3.191,5.2,77.912,77.912,0,0,0,7.219,8.145,2.312,2.312,0,0,0,1.1.717,1.76,1.76,0,0,0,1.547-.632c.4-.418.687-.942,1.072-1.379a5.511,5.511,0,0,1,3.411-1.648,23.441,23.441,0,0,1,3.867-.056,1.494,1.494,0,0,0,.826-.138,1.362,1.362,0,0,0,.448-.516c1.494-2.571,1.027-5.8.493-8.736l-1.222-6.725a15.12,15.12,0,0,0-1.02-3.736c-.463-.99-1.495-2.672-2.772-2.373S801.947,266.593,800.868,267.371Z" transform="translate(-718.44 -224.843)" fill="#a91515"/>
    <path id="Path_361" data-name="Path 361" d="M274.22,255.111l25.74,5.265.587-.056,22.62-2.283V229.372l-27.69-4.682-20.087,2.343-.007.127v.06Z" transform="translate(-85.243 -163.282)" fill="#8d5524"/>
    <path id="Path_362" data-name="Path 362" d="M334.76,259.252l25.74,5.265.587-.056V235.074L335.922,231.3Z" transform="translate(-145.783 -167.423)" fill="#8d5524" opacity="0.1"/>
    <path id="Path_363" data-name="Path 363" d="M274.22,227.22l.008.007,25.157,3.706L322,229.372l-27.69-4.682-20.087,2.343-.008.127Z" transform="translate(-84.081 -163.282)" opacity="0.05"/>
    <path id="Path_364" data-name="Path 364" d="M310.22,179.111l25.74,5.268.586-.06,22.62-2.283V153.372l-27.69-4.682-20.087,2.343-.007.127v.06Z" transform="translate(-134.694 -115.679)" fill="#b87a43"/>
    <path id="Path_365" data-name="Path 365" d="M370.76,183.252l25.74,5.268.587-.06V159.074L371.922,155.3Z" transform="translate(-195.234 -119.819)" opacity="0.1"/>
    <path id="Path_366" data-name="Path 366" d="M310.22,151.22l.007.007,25.157,3.706L358,153.372l-27.69-4.682-20.087,2.343-.007.127Z" transform="translate(-133.532 -115.679)" opacity="0.05"/>
  </g>
</svg>
