<svg xmlns="http://www.w3.org/2000/svg" width="1924.001" height="592.303" viewBox="0 0 1924.001 592.303">
  <g id="Group_228" data-name="Group 228" transform="translate(-1017.864 -578.898)">
    <path id="Path_3248" data-name="Path 3248" d="M12097.863,6261.7h168.193s10.334-10.421,21.761-13.926,23.826,0,23.826,0,8.273-11.2,19.148-15.666,26.108,0,26.108,0,1.822-26.018,24.371-43.845,57.881-12.076,57.881-12.076,5.656-26.981,26.543-45.258,50.047-19.583,50.047-19.583l24.369-95.522h-24.369v-8.7s-22.3,3.758-34.815,11.32-15.231,18.926-15.231,18.926l-26.11-88.875s12.482,32.83,29.158,21.967,38.855-61.736,38.855-61.736-1.236-25.93,2.484-63.161,14.8-79.636,14.8-79.636h59.183s4.787,37.67,8.378,73.544,5.223,69.253,5.223,69.253,10.448,38.27,33.076,57.292,33.507-17.523,33.507-17.523l-25.239,88.875s-4.354-13.272-14.8-18.926-31.77-11.32-31.77-11.32v8.7h-26.11l28.5,121.959s28.946-10.879,58.1,0,36.992,50.48,36.992,50.48,12.62-14.8,36.989-7.832,22.52,32.094,22.52,32.094,13.054-17.842,41.777-10.009a47.355,47.355,0,0,1,33.943,34.052s7.833-2.72,16.971,3.372,7.836,18.823,7.836,18.823,6.526-4.462,11.746-2.287a17.888,17.888,0,0,1,7.4,5.223l1148.759-.435" transform="translate(-11077.999 -5092.498)" fill="none" stroke="#1f28cf" stroke-linecap="square" stroke-width="4"/>
    <path id="Path_3249" data-name="Path 3249" d="M12288.664,5920.391Z" transform="translate(-10846.026 -4904.698)" fill="none" stroke="#1f28cf" stroke-width="1"/>
    <path id="Path_3250" data-name="Path 3250" d="M12310.1,5719.071c-1.084-.155-3.014,3.329-7.854,21.215s-11.511,50.328-11.511,50.328h40.08s-8.629-38.637-13.811-56.522S12311.182,5719.225,12310.1,5719.071Z" transform="translate(-10834.645 -5137.58)" fill="none" stroke="#1f28cf" stroke-width="5"/>
    <g id="Ellipse_71" data-name="Ellipse 71" transform="translate(1458.864 826.642)" fill="none" stroke="#1f28cf" stroke-width="4">
      <ellipse cx="14.5" cy="15.5" rx="14.5" ry="15.5" stroke="none"/>
      <ellipse cx="14.5" cy="15.5" rx="12.5" ry="13.5" fill="none"/>
    </g>
    <g id="Ellipse_72" data-name="Ellipse 72" transform="translate(1458.864 760.642)" fill="none" stroke="#1f28cf" stroke-width="4">
      <ellipse cx="14.5" cy="15" rx="14.5" ry="15" stroke="none"/>
      <ellipse cx="14.5" cy="15" rx="12.5" ry="13" fill="none"/>
    </g>
    <g id="Ellipse_73" data-name="Ellipse 73" transform="translate(1458.864 695.642)" fill="none" stroke="#1f28cf" stroke-width="4">
      <ellipse cx="14.5" cy="15.5" rx="14.5" ry="15.5" stroke="none"/>
      <ellipse cx="14.5" cy="15.5" rx="12.5" ry="13.5" fill="none"/>
    </g>
    <path id="Path_3251" data-name="Path 3251" d="M12284.931,5920.39l10.772,3.155a83.111,83.111,0,0,1,33.072,8.268c16.755,8.268,29.594,26.111,29.594,26.111s10.007-6.529,13.053-9.14" transform="translate(-10850.561 -4904.697)" fill="none" stroke="#1f28cf" stroke-width="4"/>
    <path id="Path_3252" data-name="Path 3252" d="M12283.514,5829.311s-1.632,4.895,0,30.026,6.528,77.9,6.528,77.9h77.46s5-52.766,5.657-77.9,0-30.026,0-30.026" transform="translate(-10853.167 -5015.431)" fill="none" stroke="#1f28cf" stroke-width="4"/>
  </g>
</svg>
