<svg xmlns="http://www.w3.org/2000/svg" width="611.96" height="400.98" viewBox="0 0 611.96 400.98">
  <g id="No_data-cuate" data-name="No data-cuate" transform="translate(-65.62 -55.73)">
    <g id="freepik--background-complete--inject-18">
      <path id="Path_3253" data-name="Path 3253" d="M666.95,150.27l-9.57,46.35-6.16-6.01-10.48,7.48-8.01-9.95L614.77,201.2l-15.35-25.67L582.3,185.56l-6.79-9.36-21.74,12.25-6.54-14.01,15.24-73.81,81.7,16.87Z" fill="#ebebeb"/>
      <path id="Path_3254" data-name="Path 3254" d="M644.17,117.5l22.78,32.77-28.34-5.85Z" fill="#dbdbdb"/>
      <path id="Path_3255" data-name="Path 3255" d="M655.34,205.88l-14.03,68L531.26,251.16l13.93-67.45,6.54,14,21.75-12.25,6.78,9.36,17.13-10.02,15.34,25.67,17.97-13.06,8,9.94,10.49-7.47Z" fill="#ebebeb"/>
      <path id="Path_3256" data-name="Path 3256" d="M497.83,197.91l-112.15,6.94L376.77,60.89l83.28-5.16,30.57,25.65Z" fill="#ebebeb"/>
      <path id="Path_3257" data-name="Path 3257" d="M460.05,55.73l30.57,25.65-28.88,1.79Z" fill="#dbdbdb"/>
      <path id="Path_3258" data-name="Path 3258" d="M429,152.6l-.44-3.25c-1.13-6.73.71-14.26,6.56-22.13,5.28-7,8.14-12,7.82-17.68-.36-6.4-4.61-10.44-12.52-10.12a22.31,22.31,0,0,0-12.45,4.6l-3.45-7.73c4-3.25,11-5.65,17.65-6,14.43-.8,21.45,7.74,22,17.27.48,8.53-3.94,14.94-9.56,22.43-5.16,6.83-6.85,12.46-6.12,18.83l.31,3.26Zm-1.78,17.71c-.26-4.64,2.69-8.08,7.08-8.32s7.59,2.84,7.85,7.49c.24,4.39-2.45,7.93-7.09,8.19-4.43.25-7.63-2.97-7.88-7.36Z" fill="#dbdbdb"/>
      <path id="Path_3259" data-name="Path 3259" d="M148.48,128.11,137.2,123l-1.57,3.45a3,3,0,0,1-2.57,1.72,14.48,14.48,0,0,0-1.85.18,3,3,0,0,1-2.85-1.18l-2.21-3.09-10.07,7.22,2.21,3.09a3,3,0,0,1,.2,3.07,18.289,18.289,0,0,0-.77,1.69,3,3,0,0,1-2.45,1.89l-3.77.37,1.21,12.33,3.79-.38a3,3,0,0,1,2.77,1.38c.16.26.33.51.51.76s.36.49.55.73a2.94,2.94,0,0,1,.42,3.05l-1.58,3.48,11.29,5.12,1.57-3.47a3,3,0,0,1,2.58-1.71,16.191,16.191,0,0,0,1.83-.18,3,3,0,0,1,2.85,1.18l2.21,3.09,10.08-7.22-2.21-3.09a2.91,2.91,0,0,1-.2-3.07,17.937,17.937,0,0,0,.75-1.68,2.94,2.94,0,0,1,2.45-1.89l3.79-.38-1.22-12.33-3.79.37a2.94,2.94,0,0,1-2.75-1.37c-.17-.26-.34-.51-.52-.76s-.36-.5-.55-.73a3,3,0,0,1-.42-3.07Zm-6.4,11.41a10.15,10.15,0,1,1-14.16-2.34,10.15,10.15,0,0,1,14.16,2.34Z" fill="#ebebeb"/>
      <path id="Path_3260" data-name="Path 3260" d="M658.38,291.71l-7.52,4.34,1.33,2.3a2,2,0,0,1-.07,2.17c-.23.36-.45.73-.65,1.12a2,2,0,0,1-1.83,1.14H647v8.69h2.66a2,2,0,0,1,1.83,1.14c.2.39.42.76.65,1.12a2,2,0,0,1,.07,2.17l-1.33,2.3,7.52,4.34,1.34-2.31a2.05,2.05,0,0,1,1.91-1h1.28a2.06,2.06,0,0,1,1.91,1l1.34,2.32,7.51-4.34-1.33-2.31a2.05,2.05,0,0,1,.08-2.16c.23-.36.45-.74.65-1.12a2,2,0,0,1,1.83-1.14h2.66v-8.69H674.9a2,2,0,0,1-1.83-1.14c-.2-.38-.42-.76-.65-1.12a2.05,2.05,0,0,1-.08-2.16l1.33-2.31-7.51-4.34L664.82,294a2.05,2.05,0,0,1-1.91,1h-1.28a2.08,2.08,0,0,1-1.92-1Zm3.89,8.3a2.953,2.953,0,1,1,0-.01Z" fill="#ebebeb"/>
      <path id="Path_3261" data-name="Path 3261" d="M171.3,91.16l-6.89,5.28L166,98.55a2,2,0,0,1,.21,2.15,10.471,10.471,0,0,0-.5,1.2,2.05,2.05,0,0,1-1.67,1.37l-2.64.34,1.12,8.61,2.64-.34a2.06,2.06,0,0,1,2,.9,11.141,11.141,0,0,0,.78,1,2,2,0,0,1,.36,2.13l-1,2.46,8,3.33,1-2.46a2.05,2.05,0,0,1,1.77-1.25l.64-.07.63-.1a2.06,2.06,0,0,1,2,.75l1.63,2.13,6.89-5.28-1.61-2.11a2.06,2.06,0,0,1-.21-2.16,11.12,11.12,0,0,0,.5-1.19,2.05,2.05,0,0,1,1.67-1.37l2.64-.34-1.12-8.61-2.64.34a2.06,2.06,0,0,1-2-.89,8.92,8.92,0,0,0-.79-1A2.07,2.07,0,0,1,186,96l1-2.46-8-3.33-1,2.46a2.07,2.07,0,0,1-1.77,1.25l-.64.06L175,94a2.06,2.06,0,0,1-2-.75Zm4.93,7.73a7.11,7.11,0,1,1-4.734,2.723,7.11,7.11,0,0,1,4.734-2.723Z" fill="#ebebeb"/>
      <path id="Path_3262" data-name="Path 3262" d="M119.82,316.78a275.635,275.635,0,0,0-.4-29,370.788,370.788,0,0,0-9.09-59.16c-2.54-10.94-5.66-21.7-8.92-32.45-.1-.33-.62-.24-.53.1,10.07,37.9,18.33,77,17.76,116.4-.16,11-1.44,21.85-2.48,32.81,0,.29.45.41.52.11C118.75,336.18,119.43,326.36,119.82,316.78Z" fill="#ebebeb"/>
      <path id="Path_3263" data-name="Path 3263" d="M100.88,196.24S85.64,234.94,89.05,244,99.5,255,99.5,255s-9.33,13.32-2.81,25.81,21,11.9,22,26.06C118.66,306.94,119.46,247.73,100.88,196.24Z" fill="#ebebeb"/>
      <path id="Path_3264" data-name="Path 3264" d="M117,282.49a.28.28,0,0,0,0-.2,354.311,354.311,0,0,0-14.78-77.85c0-.07-.15-.05-.13,0q4.53,17,8,34.14a16.87,16.87,0,0,0-7.28-4.06s-.08.06,0,.08a19.35,19.35,0,0,1,7.52,5c.44,2.25.88,4.49,1.29,6.74-3.41-3.81-8.13-5.7-12.86-7.5a.06.06,0,0,0,0,.11c4.93,2,9.83,4.58,13.17,8.83q1.74,9.63,3.06,19.33a18.43,18.43,0,0,0-9.09-5.21c-.11,0-.17.13-.06.16A19.16,19.16,0,0,1,115,268h.06q.45,3.4.86,6.83a23.37,23.37,0,0,0-6.37-3.84c-.06,0-.1.07,0,.09a21.889,21.889,0,0,1,6.39,4.23h.08c.25,2.17.5,4.34.72,6.51a31,31,0,0,0-12.93-9.24.08.08,0,1,0,0,.16,33.68,33.68,0,0,1,12.74,9.81.3.3,0,0,0,.32.1c.33,3.33.63,6.66.87,10a.04.04,0,0,0,.08,0Q117.43,287.62,117,282.49Z" fill="#fff"/>
      <path id="Path_3265" data-name="Path 3265" d="M104.75,230.71a19.09,19.09,0,0,0-9.16-2.86.06.06,0,0,0,0,.12,36.159,36.159,0,0,1,9.06,3C104.77,231,104.86,230.79,104.75,230.71Z" fill="#fff"/>
      <path id="Path_3266" data-name="Path 3266" d="M106.6,271.68a19.06,19.06,0,0,0-6.88-2.35c-.08,0-.09.11,0,.13a26.05,26.05,0,0,1,6.8,2.38C106.61,271.89,106.69,271.73,106.6,271.68Z" fill="#fff"/>
      <path id="Path_3267" data-name="Path 3267" d="M159.9,244.67a103.7,103.7,0,0,0-17.65,15.42,63.19,63.19,0,0,0-12.37,21,156.931,156.931,0,0,0-9.22,50.2,122.321,122.321,0,0,0,2.71,28.23.27.27,0,0,0,.53-.1,158.6,158.6,0,0,1,.28-49.35c2.62-16,6.73-33.42,16.91-46.43,5.54-7.09,12.45-12.66,19.28-18.42C160.73,244.9,160.27,244.41,159.9,244.67Z" fill="#ebebeb"/>
      <path id="Path_3268" data-name="Path 3268" d="M122.9,319.75a95,95,0,0,1,12.86-16.44c7.63-7.63,14.05-13.05,15.05-18.09s-7.64-8.76-7.64-8.76,10.55,1.9,13.44-2.53,4.28-30.09,4.28-30.09-19.2,13.71-28.15,32.93S122.9,319.75,122.9,319.75Z" fill="#ebebeb"/>
      <path id="Path_3269" data-name="Path 3269" d="M154.25,250.42c-8.08,7.93-16.21,16.39-21,26.82A102.831,102.831,0,0,0,129,288.29h0c-.24.76-.49,1.52-.72,2.28a.19.19,0,0,0,0,.12,218.275,218.275,0,0,0-5.46,23.71c0,.05.07.07.08,0,.83-4,1.74-8,2.76-12.07a.27.27,0,0,0,.12,0,17.14,17.14,0,0,1,5-1.28c.11,0,.1-.21,0-.2a18.778,18.778,0,0,0-5,.91c.93-3.63,1.94-7.26,3.08-10.83a53.321,53.321,0,0,1,11.39-1.49v-.06a43,43,0,0,0-11.2.95c.2-.61.41-1.22.61-1.83a59.117,59.117,0,0,1,7.58-1.29s0-.08,0-.08a37,37,0,0,0-7.42.9c1-3.09,2.17-6.14,3.42-9.1a55,55,0,0,1,3.63-7,45.517,45.517,0,0,1,6.15-1.1v-.1a16.67,16.67,0,0,0-5.75.57c1-1.63,2.07-3.23,3.21-4.78h0c4.31-.95,8.67-1.84,13.08-1a.07.07,0,0,0,0-.13c-4.19-1.11-8.35-.47-12.52.35.45-.6.92-1.2,1.39-1.79a28.429,28.429,0,0,1,8-1.27v-.09a21.089,21.089,0,0,0-7.5.67c3.56-4.42,7.49-8.58,11.38-12.69C154.58,250.34,154.44,250.23,154.25,250.42Z" fill="#fff"/>
      <path id="Path_3270" data-name="Path 3270" d="M154,267.91a16.838,16.838,0,0,0-3.82-.13c-.15,0-.14.26,0,.27,1.26,0,2.53-.06,3.79,0a.08.08,0,0,0,.03-.14Z" fill="#fff"/>
      <path id="Path_3271" data-name="Path 3271" d="M140.21,292.8a17.2,17.2,0,0,0-5.92,1.18v.09c2-.47,3.93-.66,5.91-1a.15.15,0,0,0,.01-.27Z" fill="#fff"/>
      <path id="Path_3272" data-name="Path 3272" d="M136.07,284.2a13.228,13.228,0,0,0-2.51.22.08.08,0,0,0,0,.15,12.389,12.389,0,0,0,2.51-.11.13.13,0,1,0,0-.26Z" fill="#fff"/>
      <path id="Path_3273" data-name="Path 3273" d="M66.61,271.89a87.15,87.15,0,0,1,17.85,8.41,53.329,53.329,0,0,1,14.87,14.12,132.2,132.2,0,0,1,19.06,38.49,102.521,102.521,0,0,1,4.32,23.48.23.23,0,0,1-.45,0,133.211,133.211,0,0,0-11.62-39.87c-5.83-12.35-13.18-25.49-24.42-33.67-6.12-4.45-13-7.37-19.86-10.45C66,272.28,66.25,271.77,66.61,271.89Z" fill="#ebebeb"/>
      <path id="Path_3274" data-name="Path 3274" d="M113.91,324.1A80.279,80.279,0,0,0,99.7,313.77c-7.94-4.41-14.39-7.31-16.36-11.16s4.16-8.85,4.16-8.85-8.1,4-11.46,1.05-10.42-23.35-10.42-23.35S84.33,278.11,96,291.6,113.91,324.1,113.91,324.1Z" fill="#ebebeb"/>
      <path id="Path_3275" data-name="Path 3275" d="M112.93,319.89C103.58,302.33,91.09,286.44,74,276h0a86.26,86.26,0,0,1,12.52,9.8,19.879,19.879,0,0,0-10.06,2.12.06.06,0,0,0,0,.11,27.5,27.5,0,0,1,10.35-1.75.25.25,0,0,0,.12,0c.61.57,1.2,1.16,1.8,1.75a31.464,31.464,0,0,0-5.38.71s0,.08,0,.08a27,27,0,0,1,5.67-.47,116.91,116.91,0,0,1,8.83,10,8.84,8.84,0,0,0-3.76.27.07.07,0,1,0,0,.14,19.92,19.92,0,0,1,4-.05c.51.65,1,1.3,1.53,2a35.87,35.87,0,0,0-11.35,1.1c-.06,0,0,.1,0,.09A45.65,45.65,0,0,1,100,301c.48.63.93,1.28,1.4,1.92a24.559,24.559,0,0,0-6.76.78.07.07,0,0,0,0,.13,26.089,26.089,0,0,1,7-.54c2,2.77,3.94,5.61,5.79,8.47a6.36,6.36,0,0,0-3,.18v.08a13.26,13.26,0,0,1,3.21.16q2.5,3.88,4.82,7.85C112.7,320.29,113.06,320.12,112.93,319.89Z" fill="#fff"/>
      <path id="Path_3276" data-name="Path 3276" d="M98.38,305.32a14.35,14.35,0,0,0-5.44.67s0,.09,0,.08a40.816,40.816,0,0,1,5.41-.56C98.48,305.51,98.51,305.33,98.38,305.32Z" fill="#fff"/>
      <path id="Path_3277" data-name="Path 3277" d="M82.06,283.92a9.191,9.191,0,0,0-2.51.14c-.09,0-.06.16,0,.15.83-.09,1.64-.06,2.46-.08a.11.11,0,0,0,.05-.21Z" fill="#fff"/>
      <path id="Path_3278" data-name="Path 3278" d="M138.04,382.18H95.81l6.02-44.11,1.54-11.31h27.11l1.54,11.31Z" fill="#dbdbdb"/>
      <path id="Path_3279" data-name="Path 3279" d="M132.02,338.07H101.83l1.54-11.31h27.11Z" fill="#c7c7c7"/>
      <rect id="Rectangle_111" data-name="Rectangle 111" width="34.86" height="9.58" transform="translate(99.49 322.84)" fill="#dbdbdb"/>
    </g>
    <g id="freepik--Floor--inject-18">
      <path id="Path_3280" data-name="Path 3280" d="M68.96,382.18l76.01-.24,76.01-.09L373,381.68l152.02.17,76.01.09,76.01.24-76.01.25-76.01.08L373,382.68l-152.02-.17-76.01-.09Z" fill="#263238"/>
    </g>
    <g id="freepik--Shadow--inject-18">
      <ellipse id="Ellipse_74" data-name="Ellipse 74" cx="286.74" cy="31.42" rx="286.74" ry="31.42" transform="translate(88.26 393.87)" fill="#ebebeb"/>
    </g>
    <g id="freepik--Character--inject-18">
      <path id="Path_3281" data-name="Path 3281" d="M308.25,420.09c-2.33.79-69.14,1-71.7-.58-1-.6-1.57-10.33-2-22.11-.09-2.54-.16-5.17-.22-7.83L229,353.93l44.67-.29,4.21,35.65-.17,7.84s25.62,11.35,28.24,13.41S310.58,419.3,308.25,420.09Z" fill="#eb9481"/>
      <path id="Path_3282" data-name="Path 3282" d="M308.25,420.09c-2.33.79-69.14,1-71.7-.58-1.18-.74-1.82-14.95-2.18-29.94l43.46-.28-.17,7.84s25.62,11.35,28.24,13.41S310.58,419.3,308.25,420.09Z" fill="#fff"/>
      <path id="Path_3283" data-name="Path 3283" d="M308.25,420.09c-2.33.79-69.14,1-71.7-.58-1-.6-1.57-10.33-2-22.11l43.07-.27s25.62,11.35,28.24,13.41S310.58,419.3,308.25,420.09Z" fill="#a6a6a6"/>
      <path id="Path_3284" data-name="Path 3284" d="M307.28,417.42c-11.2-.24-56.4-.13-67.49.49-.09,0-.09.06,0,.07,11.1.47,56.3,0,67.49-.38C307.52,417.59,307.52,417.42,307.28,417.42Z" fill="#263238"/>
      <path id="Path_3285" data-name="Path 3285" d="M301.59,408.15a9,9,0,0,0-6.69,2.76,8.66,8.66,0,0,0-2.48,6c0,.07.12.07.13,0a10.4,10.4,0,0,1,9-8.6.082.082,0,0,0,.04-.16Z" fill="#263238"/>
      <path id="Path_3286" data-name="Path 3286" d="M282,398.23c-4.48-.05-9.67,1.55-12.45,5.23-.1.14.1.29.23.22a62.24,62.24,0,0,1,12.3-4.9.28.28,0,0,0-.08-.55Z" fill="#263238"/>
      <path id="Path_3287" data-name="Path 3287" d="M285.48,399.56c-4.49,0-9.68,1.56-12.45,5.23-.11.15.09.3.23.23a61.59,61.59,0,0,1,12.29-4.91.28.28,0,0,0-.07-.55Z" fill="#263238"/>
      <path id="Path_3288" data-name="Path 3288" d="M288.94,400.9c-4.48,0-9.67,1.55-12.45,5.23-.1.14.1.29.23.22a62.24,62.24,0,0,1,12.3-4.9.28.28,0,0,0-.08-.55Z" fill="#263238"/>
      <path id="Path_3289" data-name="Path 3289" d="M292.41,402.24c-4.49-.05-9.68,1.55-12.45,5.23-.11.14.1.29.23.22a62,62,0,0,1,12.3-4.9.28.28,0,0,0-.08-.55Z" fill="#263238"/>
      <path id="Path_3290" data-name="Path 3290" d="M242.61,407.26c-5,0-5,7.85,0,7.82S247.65,407.23,242.61,407.26Z" fill="#263238"/>
      <path id="Path_3291" data-name="Path 3291" d="M286.81,386.25c-2.27-1.88-5.13,0-6.52,1.93a23.58,23.58,0,0,0-4,11.48.128.128,0,0,0,.14.13.54.54,0,0,0,.81.35c3.18-2.21,6.86-4.19,9.27-7.32C287.88,391,289,388,286.81,386.25Zm-5.46,9.54c-1.54,1.13-3.13,2.18-4.63,3.37.8-2.24,1.49-4.5,2.51-6.66a25.055,25.055,0,0,1,1.62-3c1-1.49,5.36-5.25,5.82-.38C286.93,391.79,283.18,394.45,281.35,395.79Z" fill="#263238"/>
      <path id="Path_3292" data-name="Path 3292" d="M265.13,401.36c3.9.58,7.93-.54,11.76-1.15a.55.55,0,0,0,.33-.82.12.12,0,0,0,0-.19,23.5,23.5,0,0,0-10.86-5.47c-2.36-.45-5.7.2-6,3.13C260,399.62,262.85,401,265.13,401.36Zm-2.72-2.54c-3-3.84,2.73-4.17,4.45-3.77a25.578,25.578,0,0,1,3.28,1.06,69.565,69.565,0,0,1,6.41,3.05c-1.9.19-3.77.53-5.66.79-2.26.3-6.8.98-8.48-1.13Z" fill="#263238"/>
      <path id="Path_3293" data-name="Path 3293" d="M163.32,189.2s51.87,88.24,53.26,94.44C218.71,293.16,230,387.17,230,387.17l54-1s-9.3-82.89-18.11-110.2c-6.34-19.67-52.12-84.91-52.12-84.91Z" fill="#37474f"/>
      <path id="Path_3294" data-name="Path 3294" d="M279.09,377.93c-7.75-.06-35.22-.37-45.54.59-.08,0-.07.14,0,.15,3.55.51,37.78-.28,45.53-.53a.11.11,0,1,0,.01-.21Z" fill="#263238"/>
      <path id="Path_3295" data-name="Path 3295" d="M172.17,197.3c3.4,5.33,7,10.55,10.46,15.84S189.57,223.72,193,229q10.26,16,20,32.21A98.627,98.627,0,0,1,221.1,277a96.75,96.75,0,0,1,4.55,16.94c1.06,5.79,1.76,11.64,2.41,17.49q1,9.33,2.09,18.67,2.13,19.11,4.27,38.22c.17,1.56.34,3.12.5,4.69a.211.211,0,0,1-.42,0c-1.59-12.65-2.91-25.35-4.35-38q-1.08-9.47-2.15-18.93c-.67-5.87-1.31-11.75-2.22-17.58a115,115,0,0,0-3.8-17,81.647,81.647,0,0,0-7.46-16.5c-6.25-10.79-12.87-21.39-19.49-32s-13.42-21.31-20.4-31.79c-.86-1.29-1.73-2.58-2.63-3.85C171.93,197.29,172.11,197.2,172.17,197.3Z" fill="#263238"/>
      <path id="Path_3296" data-name="Path 3296" d="M180.32,425.29c-2.46-.15-66-25.89-67.76-28.33a.84.84,0,0,1-.1-.47c0-2.19,4.41-9.83,8.09-19.87.23-.64,1.87-3.62,4.14-7.63C131,358,142,339.07,142,339.07l41.53,16.5-19.88,29.75-3.09,7.2s19.49,20.15,21.13,23S182.77,425.43,180.32,425.29Z" fill="#eb9481"/>
      <path id="Path_3297" data-name="Path 3297" d="M180.32,425.29c-2.46-.15-66-25.89-67.76-28.33a.84.84,0,0,1-.1-.47c0-2.19,4.41-9.83,8.09-19.87.23-.64,1.87-3.62,4.14-7.63l39,16.33-3.09,7.2s19.49,20.15,21.13,23S182.77,425.43,180.32,425.29Z" fill="#fff"/>
      <path id="Path_3298" data-name="Path 3298" d="M180.32,425.29c-2.46-.15-66-25.89-67.76-28.33-.68-.93,2.16-9.6,8-20.34l40,15.91s19.49,20.13,21.14,23S182.77,425.43,180.32,425.29Z" fill="#a6a6a6"/>
      <path id="Path_3299" data-name="Path 3299" d="M180.42,422.45c-10.29-4.42-52.23-21.28-62.74-24.86-.09,0-.11,0,0,.06,10.11,4.6,52.18,21.12,62.7,25C180.58,422.7,180.64,422.54,180.42,422.45Z" fill="#263238"/>
      <path id="Path_3300" data-name="Path 3300" d="M178.62,411.72a9,9,0,0,0-7.24,0,8.7,8.7,0,0,0-4.54,4.62c0,.06.09.11.12.05a10.41,10.41,0,0,1,11.61-4.59.07.07,0,0,0,.05-.08Z" fill="#263238"/>
      <path id="Path_3301" data-name="Path 3301" d="M164.19,395.18c-4.13-1.73-9.55-2.19-13.5.18-.15.09,0,.3.13.29a62.341,62.341,0,0,1,13.24.07.28.28,0,0,0,.13-.54Z" fill="#263238"/>
      <path id="Path_3302" data-name="Path 3302" d="M166.9,397.72c-4.13-1.73-9.55-2.19-13.5.18-.15.09,0,.3.13.29a61.692,61.692,0,0,1,13.24.07.28.28,0,0,0,.13-.54Z" fill="#263238"/>
      <path id="Path_3303" data-name="Path 3303" d="M169.62,400.26c-4.14-1.73-9.56-2.19-13.5.18-.16.09,0,.3.12.29a61.69,61.69,0,0,1,13.24.07.28.28,0,0,0,.14-.54Z" fill="#263238"/>
      <path id="Path_3304" data-name="Path 3304" d="M172.33,402.8c-4.14-1.73-9.55-2.19-13.5.17-.16.1,0,.31.12.3a61.69,61.69,0,0,1,13.24.07.28.28,0,0,0,.14-.54Z" fill="#263238"/>
      <path id="Path_3305" data-name="Path 3305" d="M124.28,388.77c-4.67-1.86-7.57,5.41-2.88,7.27S129,390.63,124.28,388.77Z" fill="#263238"/>
      <path id="Path_3306" data-name="Path 3306" d="M173.14,385.88c-1.41-2.59-4.74-1.95-6.77-.66a23.52,23.52,0,0,0-8,9.13.12.12,0,0,0,.08.17c0,.33.22.72.61.64,3.79-.87,7.94-1.32,11.34-3.32C172.35,390.68,174.47,388.33,173.14,385.88Zm-8.65,6.79c-1.85.47-3.71.85-5.54,1.39a69.937,69.937,0,0,1,4.81-5.23,25.349,25.349,0,0,1,2.65-2.2c1.45-1,6.93-2.85,5.53,1.84C171.17,391.06,166.7,392.11,164.49,392.67Z" fill="#263238"/>
      <path id="Path_3307" data-name="Path 3307" d="M147.37,391.75c3.4,2,7.55,2.47,11.33,3.35.39.09.65-.3.62-.64a.11.11,0,0,0,.08-.17,23.52,23.52,0,0,0-8-9.15c-2-1.3-5.35-1.95-6.77.63S145.38,390.58,147.37,391.75Zm-1.56-3.38c-1.39-4.69,4.08-2.83,5.53-1.82a24.33,24.33,0,0,1,2.64,2.21,70,70,0,0,1,4.8,5.24c-1.83-.54-3.69-.93-5.54-1.4C151,392,146.57,391,145.81,388.37Z" fill="#263238"/>
      <path id="Path_3308" data-name="Path 3308" d="M166.88,383.66l-46.49-18.77s57.64-84.75,58.06-91.06c.38-5.58-24.94-54.2-25.93-68.37-1.08-15.3,6.28-27.13,14.38-34.48l47.95,20.39s-5.06,8.09-13,12.6c0,0,24.59,56.2,23.19,73.48S166.88,383.66,166.88,383.66Z" fill="#37474f"/>
      <path id="Path_3309" data-name="Path 3309" d="M168.94,374.82c-6.72-2.89-4.75-2.16-11.51-5-3.3-1.38-25-10.41-28.34-11.16-.07,0-.12.1-.05.14,2.89,1.77,24.77,10.42,28.1,11.74,6.81,2.68,4.88,1.84,11.72,4.44a.1.1,0,1,0,.08-.16Z" fill="#263238"/>
      <path id="Path_3310" data-name="Path 3310" d="M209.71,202.94a90.5,90.5,0,0,0-14.6,4.74.153.153,0,0,0,.1.29c4.9-1.43,9.88-2.77,14.7-4.46C210.28,203.38,210.09,202.86,209.71,202.94Z" fill="#263238"/>
      <path id="Path_3311" data-name="Path 3311" d="M204,201a21.651,21.651,0,0,0-1.23,2.57,5.911,5.911,0,0,0-.63,2.15c0,.15.2.18.29.09a7.51,7.51,0,0,0,1.2-2c.41-.79.83-1.57,1.22-2.38A.476.476,0,1,0,204,201Z" fill="#263238"/>
      <path id="Path_3312" data-name="Path 3312" d="M204.6,196.46c.3-.74.59-1.47.9-2.21s.7-1.5,1-2.28c0-.12.24,0,.19.09-.3.74-.49,1.52-.72,2.28s-.49,1.52-.74,2.28a37,37,0,0,1-1.65,4.18,5.3,5.3,0,0,0,2.3-.4,4.13,4.13,0,0,0,1.63-2c.42-.82.81-1.66,1.24-2.48a16.571,16.571,0,0,0,1.33-2.79c0-.12.24,0,.19.09a32.451,32.451,0,0,1-2.55,5.91c-.45.73-.8,1.5-1.62,1.78a6.78,6.78,0,0,1-2.73.19c-.12,0-.26,0-.22-.18q.614-2.265,1.45-4.46Z" fill="#263238"/>
      <path id="Path_3313" data-name="Path 3313" d="M202.56,205.8c1.71,3.61,3.21,7.21,4.8,10.81s3,7.08,4.43,10.66c2.86,7.22,5.42,14.58,7.67,22,1.11,3.68,2.14,7.39,3.06,11.13a80,80,0,0,1,2.22,11.36,30,30,0,0,1-1,11.4,66.679,66.679,0,0,1-4.23,10.63c-1.05,2.16-1.4,1.87-.9.78,1.43-3.1,5.18-12.49,4.91-20.38A58.822,58.822,0,0,0,221.78,263q-1.31-5.67-2.95-11.25c-2.13-7.34-4.66-14.53-7.26-21.71-1.46-4-3-8-4.5-12s-3-7.68-4.68-12.1C202.34,205.76,202.51,205.69,202.56,205.8Z" fill="#263238"/>
      <path id="Path_3314" data-name="Path 3314" d="M167.27,193.87c.83-.31,2,.2,2.84.34a24.28,24.28,0,0,0,3.29.33,23.783,23.783,0,0,0,3.27-.11,7,7,0,0,0,3.13-.83,15.93,15.93,0,0,0,4-4.23,24.611,24.611,0,0,0,3.11-5.46c0-.12.21,0,.17.08-.35,1.11-.61,2.23-1,3.32a20.154,20.154,0,0,1-1.54,2.95,12.61,12.61,0,0,1-4.14,4.7c-1.93,1.1-4.41,1-6.56.91a25.629,25.629,0,0,1-3.71-.49c-.88-.19-2.36-.33-2.92-1.1a.27.27,0,0,1,.06-.41Z" fill="#263238"/>
      <path id="Path_3315" data-name="Path 3315" d="M133.66,356q11.46-17.36,22.5-35t21.78-35.55c1.71-2.85,3.68-5.69,4.78-8.85,1.2-3.43.52-6.76-.56-10.12a171.626,171.626,0,0,0-7.14-18c-2.68-5.91-5.57-11.72-8.41-17.55a180.512,180.512,0,0,1-8-17.67c-2-5.81-2.81-11.83-1.25-17.85s4.92-11.34,8.43-16.35c.92-1.32,1.87-2.63,2.8-4,.07-.1.22,0,.15.12-3.87,5.22-7.64,10.75-9.91,16.88a29.15,29.15,0,0,0-1.92,9.45,30.591,30.591,0,0,0,1.51,9.67c1.88,6.08,4.85,11.83,7.62,17.55s5.73,11.64,8.46,17.53a187.642,187.642,0,0,1,7.5,18.19c.93,2.75,2,5.63,1.92,8.58-.07,3.23-1.61,6.14-3.21,8.86q-10.5,17.775-21.47,35.2c-7.3,11.64-14.81,23.28-22.41,34.8l-2.88,4.35C133.8,356.42,133.54,356.21,133.66,356Z" fill="#263238"/>
      <path id="Path_3316" data-name="Path 3316" d="M217.51,137.47c4.33,9.5,26.2,22.59,36.44,24,7.36,1,29.74,1.36,37.41.19,9-1.38,2.12-25.63-3.19-25-14.6,1.7-27,3.6-30.9,3.6-4.76,0-30.51-8.26-33.61-9.43C216.06,128,215.06,132.08,217.51,137.47Z" fill="#eb9481"/>
      <path id="Path_3317" data-name="Path 3317" d="M217.65,140c5.48,8.11,23.69,21.37,23.69,21.37l2.53-5.6,8.37-18.52S235.51,132,224.5,129.6a24.121,24.121,0,0,0-3.94-.56C213.53,128.66,212.92,133,217.65,140Z" fill="#407bff"/>
      <path id="Path_3318" data-name="Path 3318" d="M217.65,140c5.48,8.11,23.69,21.37,23.69,21.37l2.53-5.6c-6.79-7.89-17.28-19.84-23.31-26.71C213.53,128.66,212.92,133,217.65,140Z" fill="#263238"/>
      <path id="Path_3319" data-name="Path 3319" d="M238.06,157.61c1.39-3.41,7.57-17.14,9.11-20,.1-.2.26-.18.17,0a201.713,201.713,0,0,1-9.14,20C238.16,157.73,238,157.69,238.06,157.61Z" fill="#263238"/>
      <path id="Path_3320" data-name="Path 3320" d="M285.49,136.91c8.88-1.16,19.87-3.15,29.18.8a5,5,0,0,1,2.49,2.13c4.2,1.7,4.66,4.19,4.66,4.19,3.43,2.78,3.55,5.4,3.55,5.4s4.92,2,4.17,5.22c-.82,3.56-7.56,0-12.46.29-11.25.7-27,4.83-30.25,5.35Z" fill="#eb9481"/>
      <path id="Path_3321" data-name="Path 3321" d="M304.78,147.39a72.4,72.4,0,0,1,9.88,0,71.88,71.88,0,0,1,10.6,2.15.09.09,0,1,0,.06-.17,38.29,38.29,0,0,0-20.54-2.08C304.62,147.27,304.62,147.4,304.78,147.39Z" fill="#263238"/>
      <path id="Path_3322" data-name="Path 3322" d="M303.38,140.67c3.23,0,8.91.16,18.41,3.47v-.06a34.41,34.41,0,0,0-18.43-3.57C303.18,140.53,303.16,140.66,303.38,140.67Z" fill="#263238"/>
      <path id="Path_3323" data-name="Path 3323" d="M302.69,137c5.49.28,8.92,1.16,14.44,2.82v-.06c-6.08-2.54-8.57-2.78-14.47-3C302.47,136.84,302.48,137,302.69,137Z" fill="#263238"/>
      <path id="Path_3324" data-name="Path 3324" d="M303.58,156.64c-1.43.67-1.08,1.42,1.65,2.05s14.08.82,13.68,4.78-16.41,3.46-20.88,2.06-11.2-5.24-11.2-5.24C290,159.76,297.44,157.75,303.58,156.64Z" fill="#eb9481"/>
      <path id="Path_3325" data-name="Path 3325" d="M229.4,152.61c-.07,1.71-.23,3.45-.47,5.18a.21.21,0,0,1,.07-.19c.33-.9.66-1.82,1.06-2.69h.09a14.421,14.421,0,0,1-.86,2.78c-.18.43-.35.85-.54,1.27-.12.77-.26,1.53-.41,2.29-.3,1.43-1.65,7.51-2,8.54-.06.21-.32.16-.3-.08.07-1.12,1.2-7.45,1.43-8.89a77.712,77.712,0,0,1,1.79-8.25C229.31,152.52,229.41,152.56,229.4,152.61Z" fill="#263238"/>
      <path id="Path_3326" data-name="Path 3326" d="M219,198.08c-2.67,1.37-6.11,3.5-21.61.45-1-.2-1.94-.44-2.92-.73-14.53-4.36-32-21.45-32.95-22.66,0,0,23.09-37.43,52.62-49.2,3.65-1.45,9.69,1.35,13,4.84,1.19,1.25,3.78,10.44,2.79,17.88S221.66,196.71,219,198.08Z" fill="#407bff"/>
      <path id="Path_3327" data-name="Path 3327" d="M216.92,148.32a11.34,11.34,0,0,1-.65,4.66,10.85,10.85,0,0,1,.65-4.66Z" fill="#fff"/>
      <path id="Path_3328" data-name="Path 3328" d="M206.85,173.81a10.329,10.329,0,0,1-.08,2.36,9.8,9.8,0,0,1-.57,2.3,9.85,9.85,0,0,1,.08-2.37A10.369,10.369,0,0,1,206.85,173.81Z" fill="#fff"/>
      <path id="Path_3329" data-name="Path 3329" d="M189.74,154.54a11.35,11.35,0,0,1-.65,4.67,10.93,10.93,0,0,1,.65-4.67Z" fill="#fff"/>
      <path id="Path_3330" data-name="Path 3330" d="M223.51,172.51a10.391,10.391,0,0,1-.08,2.37,9.8,9.8,0,0,1-.57,2.3,9.851,9.851,0,0,1,.08-2.37,10.32,10.32,0,0,1,.57-2.3Z" fill="#fff"/>
      <path id="Path_3331" data-name="Path 3331" d="M201.54,151.24a10.33,10.33,0,0,1,2.36.07,9.83,9.83,0,0,1,2.3.58,11.27,11.27,0,0,1-4.66-.65Z" fill="#fff"/>
      <path id="Path_3332" data-name="Path 3332" d="M182.12,169.65a11.34,11.34,0,0,1,4.66.65,10.85,10.85,0,0,1-4.66-.65Z" fill="#fff"/>
      <path id="Path_3333" data-name="Path 3333" d="M205,189.58a11.27,11.27,0,0,1,4.66.65,10.91,10.91,0,0,1-4.66-.65Z" fill="#fff"/>
      <path id="Path_3334" data-name="Path 3334" d="M176.13,182.34a11.34,11.34,0,0,1,4.66.65,10.91,10.91,0,0,1-4.66-.65Z" fill="#fff"/>
      <path id="Path_3335" data-name="Path 3335" d="M216.77,130.4a11.34,11.34,0,0,1,4.66.65A11.34,11.34,0,0,1,216.77,130.4Z" fill="#fff"/>
      <path id="Path_3336" data-name="Path 3336" d="M211.12,136.78a9.749,9.749,0,0,1-1.72,1.62,10.621,10.621,0,0,1-2,1.22,10.171,10.171,0,0,1,1.7-1.62,10.54,10.54,0,0,1,2.02-1.22Z" fill="#fff"/>
      <path id="Path_3337" data-name="Path 3337" d="M180.33,154.91a10.11,10.11,0,0,1-1.73,1.61,9.43,9.43,0,0,1-2,1.22,10.53,10.53,0,0,1,1.73-1.61,9.68,9.68,0,0,1,2-1.22Z" fill="#fff"/>
      <path id="Path_3338" data-name="Path 3338" d="M218.78,163.09a10.169,10.169,0,0,1-1.73,1.62,9.681,9.681,0,0,1-2,1.22,10.17,10.17,0,0,1,1.73-1.62,10.32,10.32,0,0,1,2-1.22Z" fill="#fff"/>
      <path id="Path_3339" data-name="Path 3339" d="M193.88,178.77a10.168,10.168,0,0,1-1.73,1.62,9.859,9.859,0,0,1-2,1.22,10.17,10.17,0,0,1,1.73-1.62,10.319,10.319,0,0,1,2-1.22Z" fill="#fff"/>
      <path id="Path_3340" data-name="Path 3340" d="M228.32,141.67a10.17,10.17,0,0,1-1.73,1.62,10.621,10.621,0,0,1-2,1.22,10.171,10.171,0,0,1,1.73-1.62A9.861,9.861,0,0,1,228.32,141.67Z" fill="#fff"/>
      <path id="Path_3341" data-name="Path 3341" d="M227.8,159.84a10.171,10.171,0,0,1-1.62-1.73,9.609,9.609,0,0,1-1.22-2,9.75,9.75,0,0,1,1.62,1.72A10.93,10.93,0,0,1,227.8,159.84Z" fill="#fff"/>
      <path id="Path_3342" data-name="Path 3342" d="M172.3,172.36a10.171,10.171,0,0,1-1.62-1.73,10.321,10.321,0,0,1-1.22-2,10.169,10.169,0,0,1,1.62,1.73,9.86,9.86,0,0,1,1.22,2Z" fill="#fff"/>
      <path id="Path_3343" data-name="Path 3343" d="M221.05,187.25a9.75,9.75,0,0,1-1.62-1.72,10.62,10.62,0,0,1-1.22-2,10.17,10.17,0,0,1,1.62,1.73,10.05,10.05,0,0,1,1.22,1.99Z" fill="#fff"/>
      <path id="Path_3344" data-name="Path 3344" d="M196.62,144.8a10.11,10.11,0,0,1-1.62-1.72,10.931,10.931,0,0,1-1.22-2,9.749,9.749,0,0,1,1.62,1.72,10.932,10.932,0,0,1,1.22,2Z" fill="#fff"/>
      <path id="Path_3345" data-name="Path 3345" d="M197.05,195.73a10.171,10.171,0,0,1-1.62-1.73,10.541,10.541,0,0,1-1.22-2,9.751,9.751,0,0,1,1.62,1.72,10.421,10.421,0,0,1,1.22,2.01Z" fill="#fff"/>
      <path id="Path_3346" data-name="Path 3346" d="M201.2,165.69a10.53,10.53,0,0,1-1.61-1.73,9.43,9.43,0,0,1-1.22-2,10.11,10.11,0,0,1,1.61,1.73,9.68,9.68,0,0,1,1.22,2Z" fill="#fff"/>
      <path id="Path_3347" data-name="Path 3347" d="M221.73,140.75c-3.77-.7-7.31-8.49-7.76-13.73,0-.36,1.76-3.21,3.77-6.78,1.22-2.17,2.51-4.62,3.54-6.94.21-.47,1.44,1.12,1.44,1.12l2.68,2,8.85,6.79a40.341,40.341,0,0,0-5.33,8.27,5,5,0,0,0-.32,1,1.218,1.218,0,0,0,0,.17C228.05,134.63,225.36,141.42,221.73,140.75Z" fill="#eb9481"/>
      <path id="Path_3348" data-name="Path 3348" d="M228.6,132.53a1.22,1.22,0,0,0,0,.17,9.91,9.91,0,0,1-1.53-.59c-9.69-4.54-5.42-17.52-5.42-17.52l3.8,1.88,8.85,6.79a40.34,40.34,0,0,0-5.33,8.27A5,5,0,0,0,228.6,132.53Z" fill="#263238"/>
      <path id="Path_3349" data-name="Path 3349" d="M244.42,95.58s4.43,2.81,4.45,7.81-2,9.89-2.42,10.07S244.42,95.58,244.42,95.58Z" fill="#263238"/>
      <path id="Path_3350" data-name="Path 3350" d="M222.44,98.18c-2.66,5.25-2.52,21.8.8,26.06,4.82,6.18,14.1,8.31,19.71,2.2,5.43-5.92,4.87-27.48,1-31.5C238.32,89,226.38,90.41,222.44,98.18Z" fill="#eb9481"/>
      <path id="Path_3351" data-name="Path 3351" d="M222.87,124h0" fill="none" stroke="#f5a79e" stroke-linecap="round" stroke-linejoin="round" stroke-width="0"/>
      <path id="Path_3352" data-name="Path 3352" d="M236.56,111.43s-.09.06-.08.1c.06,1.13-.06,2.43-1.07,2.83v.06C236.66,114.22,236.8,112.49,236.56,111.43Z" fill="#263238"/>
      <path id="Path_3353" data-name="Path 3353" d="M235.53,110.28c-1.82-.1-1.88,3.54-.19,3.63S237.05,110.36,235.53,110.28Z" fill="#263238"/>
      <path id="Path_3354" data-name="Path 3354" d="M242.73,111.39a.092.092,0,0,1,.09.1c-.06,1.13.07,2.43,1.09,2.82v.06C242.65,114.18,242.5,112.45,242.73,111.39Z" fill="#263238"/>
      <path id="Path_3355" data-name="Path 3355" d="M243.76,110.23c1.81-.11,1.9,3.53.22,3.63S242.24,110.32,243.76,110.23Z" fill="#263238"/>
      <path id="Path_3356" data-name="Path 3356" d="M234.39,107.51a14.644,14.644,0,0,0,1.41-.48,2.4,2.4,0,0,0,1.36-.76.77.77,0,0,0-.11-.93,1.91,1.91,0,0,0-1.92-.23,2.83,2.83,0,0,0-1.64,1.19.83.83,0,0,0,.9,1.21Z" fill="#263238"/>
      <path id="Path_3357" data-name="Path 3357" d="M245,109.12a14.652,14.652,0,0,1-1.44-.4,2.4,2.4,0,0,1-1.39-.69.75.75,0,0,1,.06-.93,1.89,1.89,0,0,1,1.9-.33,2.8,2.8,0,0,1,1.7,1.1.82.82,0,0,1-.83,1.25Z" fill="#263238"/>
      <path id="Path_3358" data-name="Path 3358" d="M234,122.12c.27.27.53.63.94.67a3,3,0,0,0,1.22-.26s.07,0,0,.06a1.51,1.51,0,0,1-1.44.59,1.21,1.21,0,0,1-.88-1,.085.085,0,0,1,.16-.06Z" fill="#263238"/>
      <path id="Path_3359" data-name="Path 3359" d="M240.54,117.3s.05,1.68,0,2.47a16.481,16.481,0,0,0-4.61.16c-.36.08-.32-.21.09-.4a6.76,6.76,0,0,1,3.92-.52c.08-.21-.13-2.6,0-2.59a6.681,6.681,0,0,1,1.74.6c0-3.52-.56-7-.51-10.52a.105.105,0,0,1,.21,0,56.64,56.64,0,0,1,1,11.3C242.39,118.23,240.84,117.46,240.54,117.3Z" fill="#263238"/>
      <path id="Path_3360" data-name="Path 3360" d="M238.29,119.17a5,5,0,0,1-2.1,2.51c-1.51.61-2-.76-.48-2A4.88,4.88,0,0,1,238.29,119.17Z" fill="#263238"/>
      <path id="Path_3361" data-name="Path 3361" d="M236.72,121.37a2,2,0,0,1-.53.31c-1.39.56-1.94-.55-.82-1.67C236.13,120.07,237,120.35,236.72,121.37Z" fill="#ff99ba"/>
      <path id="Path_3362" data-name="Path 3362" d="M221.68,112.33c1.83.56,3.93-4.94,4.53-7,.52-1.86,1.12-7.77,1.21-8.18s8,5.23,12.58,3.89,7.69-5.49,7.76-7.42-5.66-6.83-10.61-7.08-11.66,6-11.66,6a23,23,0,0,0,2.2-2.94c-.08-.22-3.28,1.06-3.87,3.34,0,0,.64-2.87.4-2.92s-2.73,2.4-2.17,4.26c0,0-2.88,2.49-3.14,5.22S219.53,111.67,221.68,112.33Z" fill="#263238"/>
      <path id="Path_3363" data-name="Path 3363" d="M243.28,100a15.21,15.21,0,0,1-4.35,1.56,10.33,10.33,0,0,1-5-.8,15.36,15.36,0,0,1-4.36-2.58c-1.15-.94-2.18-2.09-3.41-2.93-.31-.22-.66.23-.47.51a16.52,16.52,0,0,0,8.36,6.16,9.53,9.53,0,0,0,9.22-1.88S243.3,100,243.28,100Z" fill="#263238"/>
      <path id="Path_3364" data-name="Path 3364" d="M223.59,111.84s-2.84-5.76-5.4-4.83-1,8.9,1.63,10.36a2.85,2.85,0,0,0,4-.94Z" fill="#eb9481"/>
      <path id="Path_3365" data-name="Path 3365" d="M218.7,109.28s-.06,0,0,.08c1.82,1.08,2.56,3,3,5a1.57,1.57,0,0,0-2.26-.78c-.06,0,0,.11,0,.11a1.75,1.75,0,0,1,1.81.9,8.45,8.45,0,0,1,.68,1.68c.06.19.39.14.36-.07h0C222.72,113.71,221.32,109.94,218.7,109.28Z" fill="#263238"/>
      <path id="Path_3366" data-name="Path 3366" d="M204.84,137.56c-2,11.33,10.28,49.5,18.15,56.63,11.71,10.6,33.36,17.57,41.21,19.84,3.42,1,12.88-23.07,9.42-24.66C266.21,186,243.19,178.8,241,177s-15.39-20.87-21.27-31.85C211.86,130.37,205.83,131.83,204.84,137.56Z" fill="#eb9481"/>
      <path id="Path_3367" data-name="Path 3367" d="M267.79,187.25s10.22,2.61,16.81,4.62c3.68,1.13,9.82,3.62,12.15,5.68,3.48,3.09,16.06,18.21,12.46,21.34-3.26,2.84-12.42-11.53-12.42-11.53s10.52,13.68,6,16.37S290,208.81,290,208.81s10.49,14.3,5.36,16.33c-3.88,1.53-12.2-14-12.2-14s8.94,12.35,5,14.1c-4.34,1.94-12.91-11.92-12.91-11.92-10.72,2.77-17-.3-21.13-3C253.15,209.66,267.79,187.25,267.79,187.25Z" fill="#eb9481"/>
      <path id="Path_3368" data-name="Path 3368" d="M293.45,202.39c1.3,1.56,2.62,3.14,3.77,4.81s2.24,3.39,3.23,5.16a34.619,34.619,0,0,1,3.2,7.26c-1.72-4.4-5.75-10.45-6.9-12.12s-2.22-3.4-3.36-5.07C293.36,202.39,293.42,202.35,293.45,202.39Z" fill="#263238"/>
      <path id="Path_3369" data-name="Path 3369" d="M287.34,206.44c2.22,1.76,6.87,8.3,8.66,12.69.08.18,0,.17-.13,0-1.4-2.17-7.08-10.57-8.58-12.66C287.26,206.44,287.31,206.41,287.34,206.44Z" fill="#263238"/>
      <path id="Path_3370" data-name="Path 3370" d="M281.47,209a31.33,31.33,0,0,1,6.42,10c.07.18-.07.15-.18,0-2.07-3.37-3.67-6-6.35-9.91C281.32,209,281.41,208.91,281.47,209Z" fill="#263238"/>
      <path id="Path_3371" data-name="Path 3371" d="M216,138.39c-9.13-12.91-14.59-8.13-12.76,5.89,1.72,13.11,6.31,28.73,6.31,28.73l23-11.16S221.81,146.66,216,138.39Z" fill="#407bff"/>
      <path id="Path_3372" data-name="Path 3372" d="M221.55,143.47a10.28,10.28,0,0,1,.65,2.27,10.389,10.389,0,0,1,.15,2.37,10.34,10.34,0,0,1-.64-2.28,9.769,9.769,0,0,1-.16-2.36Z" fill="#fff"/>
      <path id="Path_3373" data-name="Path 3373" d="M207.92,151.32a11,11,0,0,1,4.63-.8,10.259,10.259,0,0,1-2.27.64A9.8,9.8,0,0,1,207.92,151.32Z" fill="#fff"/>
      <path id="Path_3374" data-name="Path 3374" d="M208.51,131.24a11.16,11.16,0,0,1-2.71,3.85,11.16,11.16,0,0,1,2.71-3.85Z" fill="#fff"/>
      <path id="Path_3375" data-name="Path 3375" d="M228,157.35a10.439,10.439,0,0,1-1.15,2.07,10.11,10.11,0,0,1-1.56,1.78,11.16,11.16,0,0,1,2.71-3.85Z" fill="#fff"/>
      <path id="Path_3376" data-name="Path 3376" d="M212,165.18a11.161,11.161,0,0,1-3.85-2.71,11.16,11.16,0,0,1,3.85,2.71Z" fill="#fff"/>
      <path id="Path_3377" data-name="Path 3377" d="M219,142.28c1.23,1.69,2.5,3.34,3.76,5q-.48-1.26-.84-2.55h.06c.25.66.54,1.31.78,2l.36,1a1.8,1.8,0,0,1,.08.21c1,1.29,2,2.58,2.92,3.9,1.13,1.58,2.22,3.18,3.32,4.78s2.21,3.59,3.4,5.2c.11.14-2,1-2.23,1.11s-.35-.08-.13-.15,1.9-1.1,1.92-1.12c-1.1-1.62-2.37-3.11-3.52-4.68s-2.29-3.14-3.4-4.73c-2.25-3.24-4.31-6.6-6.55-9.85Z" fill="#263238"/>
      <path id="Path_3378" data-name="Path 3378" d="M203.78,153.56a21.511,21.511,0,0,1,1,2.05l.38.87c-.53-2.49-1-5-1.55-7.49h0c1.06,4,2.13,8.09,3.11,12.15.93,3.88,2.06,7.8,2.6,11.76a13.05,13.05,0,0,1,2.16-.73,10.661,10.661,0,0,1-2.38,1.15,124.819,124.819,0,0,1-3-12.24c-.25-1.12-.48-2.24-.72-3.36-.26-.68-.57-1.33-.88-2s-.59-1.42-.87-2.13C203.69,153.55,203.76,153.51,203.78,153.56Z" fill="#263238"/>
      <path id="Path_3379" data-name="Path 3379" d="M209.89,169.15c3.2-1.8,16.57-8.72,19.56-10,.21-.09.32,0,.11.14a201.566,201.566,0,0,1-19.6,10C209.88,169.31,209.8,169.2,209.89,169.15Z" fill="#263238"/>
    </g>
    <g id="freepik--Folder--inject-18">
      <path id="Path_3380" data-name="Path 3380" d="M576.32,432.05H271.64L315.69,182.2H620.37Z" fill="#407bff"/>
      <path id="Path_3381" data-name="Path 3381" d="M419.97,156.32H320.26l-4.57,25.88H422.4Z" fill="#407bff"/>
      <g id="Group_237" data-name="Group 237" opacity="0.1">
        <path id="Path_3382" data-name="Path 3382" d="M576.32,432.05H271.64L315.69,182.2H620.37Z"/>
        <path id="Path_3383" data-name="Path 3383" d="M419.97,156.32H320.26l-4.57,25.88H422.4Z"/>
      </g>
      <path id="Path_3384" data-name="Path 3384" d="M309.5,166.88a19.169,19.169,0,0,1,0-8.7,19.169,19.169,0,0,1,0,8.7Z" fill="#263238"/>
      <path id="Path_3385" data-name="Path 3385" d="M300.64,169.44a17,17,0,0,1-2.61-3.52,17.351,17.351,0,0,1-1.75-4,16.58,16.58,0,0,1,2.61,3.51A17.611,17.611,0,0,1,300.64,169.44Z" fill="#263238"/>
      <path id="Path_3386" data-name="Path 3386" d="M294.24,176.09a19.18,19.18,0,0,1-7.53-4.35,17.16,17.16,0,0,1,4,1.74,17.58,17.58,0,0,1,3.53,2.61Z" fill="#263238"/>
      <path id="Path_3387" data-name="Path 3387" d="M292,185.05a19.17,19.17,0,0,1-8.7,0A19.17,19.17,0,0,1,292,185.05Z" fill="#263238"/>
      <path id="Path_3388" data-name="Path 3388" d="M294.6,193.91a17.639,17.639,0,0,1-3.52,2.61,17.16,17.16,0,0,1-4,1.74,17,17,0,0,1,3.52-2.61,16.8,16.8,0,0,1,4-1.74Z" fill="#263238"/>
      <path id="Path_3389" data-name="Path 3389" d="M301.24,200.3a19.13,19.13,0,0,1-4.35,7.54,16.829,16.829,0,0,1,1.75-4A17.311,17.311,0,0,1,301.24,200.3Z" fill="#263238"/>
      <path id="Path_3390" data-name="Path 3390" d="M310.2,202.51a17.45,17.45,0,0,1,.5,4.35,17,17,0,0,1-.5,4.35,16.57,16.57,0,0,1-.5-4.35A17.45,17.45,0,0,1,310.2,202.51Z" fill="#263238"/>
      <path id="Path_3391" data-name="Path 3391" d="M319.06,200a17,17,0,0,1,2.61,3.52,16.8,16.8,0,0,1,1.74,4,19.13,19.13,0,0,1-4.35-7.54Z" fill="#263238"/>
      <path id="Path_3392" data-name="Path 3392" d="M325.45,193.3a16.8,16.8,0,0,1,4,1.74,17,17,0,0,1,3.52,2.61,16.8,16.8,0,0,1-4-1.74,17,17,0,0,1-3.52-2.61Z" fill="#263238"/>
      <path id="Path_3393" data-name="Path 3393" d="M327.66,184.34a19.22,19.22,0,0,1,8.71,0,19.22,19.22,0,0,1-8.71,0Z" fill="#263238"/>
      <path id="Path_3394" data-name="Path 3394" d="M325.1,175.48a17.309,17.309,0,0,1,3.52-2.6,16.439,16.439,0,0,1,4-1.75,19.13,19.13,0,0,1-7.54,4.35Z" fill="#263238"/>
      <path id="Path_3395" data-name="Path 3395" d="M318.45,169.09a17.578,17.578,0,0,1,1.74-4,17,17,0,0,1,2.61-3.52,16.8,16.8,0,0,1-1.74,4,17,17,0,0,1-2.61,3.52Z" fill="#263238"/>
      <path id="Path_3396" data-name="Path 3396" d="M575.87,432.05H270.54L227.18,191.27H532.52Z" fill="#407bff"/>
      <circle id="Ellipse_75" data-name="Ellipse 75" cx="12.69" cy="12.69" r="12.69" transform="translate(320.3 313.08)" fill="#263238"/>
      <circle id="Ellipse_76" data-name="Ellipse 76" cx="12.69" cy="12.69" r="12.69" transform="translate(420.62 313.08)" fill="#263238"/>
      <path id="Path_3397" data-name="Path 3397" d="M401.38,340.49l-.7-1.33c-.06-.12-6.62-12.24-19.81-12.24-12,0-15,11.41-15.08,11.9l-.36,1.45-2.91-.7.35-1.46c0-.14,3.58-14.19,18-14.19,15,0,22.17,13.28,22.47,13.85l.7,1.32Z" fill="#263238"/>
    </g>
    <g id="freepik--speech-bubble--inject-18">
      <path id="Path_3398" data-name="Path 3398" d="M314.31,95.32a24.92,24.92,0,0,1-41.64,15.77l-12.47,1.83,6.24-10.78a24.92,24.92,0,1,1,47.87-6.82Z" fill="#fff"/>
      <path id="Path_3399" data-name="Path 3399" d="M314.31,95.32a25,25,0,0,1-5,12.63,22.11,22.11,0,0,1-4.89,4.83,24.261,24.261,0,0,1-6,3.35,24.53,24.53,0,0,1-6.71,1.6,25,25,0,0,1-3.46.07,22.181,22.181,0,0,1-3.45-.36,25.16,25.16,0,0,1-12.33-6.09l.29.09-12.45,1.91-.91.14.46-.8,6.2-10.8v.43a25.18,25.18,0,0,1,1.54-22.21,25.047,25.047,0,0,1,39.32-5.42A25,25,0,0,1,314.31,95.32Zm0,0a24.65,24.65,0,0,0-28.26-27,24.38,24.38,0,0,0-10.29,4.06,25.69,25.69,0,0,0-7.46,8.14,24.621,24.621,0,0,0-3.17,10.54A24.87,24.87,0,0,0,266.89,102l.09.22-.12.21-6.28,10.76-.44-.66,12.48-1.75h.17l.12.11A24.56,24.56,0,0,0,284.85,117a21.231,21.231,0,0,0,3.38.41,24.26,24.26,0,0,0,3.41,0,25,25,0,0,0,6.66-1.47,23.441,23.441,0,0,0,6-3.24,22.781,22.781,0,0,0,4.9-4.77A25,25,0,0,0,314.31,95.32Z" fill="#263238"/>
      <path id="Path_3400" data-name="Path 3400" d="M277.34,104.35a2.42,2.42,0,0,1,2.44-2.56,2.56,2.56,0,0,1,0,5.12,2.42,2.42,0,0,1-2.44-2.56Zm1-5.91-.58-19.84h4l-.58,19.84Z" fill="#407bff"/>
      <path id="Path_3401" data-name="Path 3401" d="M286.85,104.35a2.42,2.42,0,0,1,2.43-2.56,2.56,2.56,0,0,1,0,5.12,2.42,2.42,0,0,1-2.43-2.56Zm1-5.91L287.3,78.6h4l-.58,19.84Z" fill="#407bff"/>
      <path id="Path_3402" data-name="Path 3402" d="M296.35,104.35a2.42,2.42,0,0,1,2.44-2.56,2.56,2.56,0,0,1,0,5.12,2.42,2.42,0,0,1-2.44-2.56Zm1-5.91-.58-19.84h4l-.57,19.84Z" fill="#407bff"/>
    </g>
  </g>
</svg>
