<svg xmlns="http://www.w3.org/2000/svg" width="560.618" height="529.586" viewBox="0 0 560.618 529.586">
  <g id="Having_fun-bro" data-name="Having fun-bro" transform="translate(-7.1 -26.889)">
    <g id="freepik--background-simple--inject-62" transform="translate(11.35 26.889)">
      <path id="Path_3403" data-name="Path 3403" d="M533.474,359.3c32.134-56.124,34.3-130.9,12.117-190.857-19.067-51.607-61.6-90.981-110.7-114.426-56.958-27.2-124.852-35.285-185.981-18.129-16.079,4.518-31.729,8.653-46.892,16.079-62.148,30.408-50.159,105.333-71.96,131.4-18.337,21.928-53.425,15.465-75.539,32.273C-5.181,261.014-5.308,375.6,63.558,411.432,136.607,449.439,453.88,498.311,533.474,359.3Z" transform="translate(-10.769 -26.889)" fill="#407bff"/>
      <path id="Path_3404" data-name="Path 3404" d="M533.474,359.3c32.134-56.124,34.3-130.9,12.117-190.857-19.067-51.607-61.6-90.981-110.7-114.426-56.958-27.2-124.852-35.285-185.981-18.129-16.079,4.518-31.729,8.653-46.892,16.079-62.148,30.408-50.159,105.333-71.96,131.4-18.337,21.928-53.425,15.465-75.539,32.273C-5.181,261.014-5.308,375.6,63.558,411.432,136.607,449.439,453.88,498.311,533.474,359.3Z" transform="translate(-10.769 -26.889)" fill="#fff" opacity="0.8"/>
    </g>
    <g id="freepik--Floor--inject-62" transform="translate(7.1 406.972)">
      <ellipse id="Ellipse_77" data-name="Ellipse 77" cx="280.309" cy="74.751" rx="280.309" ry="74.751" fill="#407bff"/>
      <ellipse id="Ellipse_78" data-name="Ellipse 78" cx="280.309" cy="74.751" rx="280.309" ry="74.751" fill="#fff" opacity="0.4"/>
    </g>
    <g id="freepik--Plant--inject-62" transform="translate(17.132 248.978)">
      <path id="Path_3405" data-name="Path 3405" d="M17.16,337.48c5.676,5.908,25.485,10.275,49.035,10.275s43.37-4.367,49.035-10.275" transform="translate(-15.538 -199.781)" fill="none" stroke="#263238" stroke-miterlimit="10" stroke-width="1"/>
      <path id="Path_3406" data-name="Path 3406" d="M101.82,337.955a5.016,5.016,0,0,0,1.633-3.475" transform="translate(-2.128 -200.257)" fill="none" stroke="#263238" stroke-miterlimit="10" stroke-width="1"/>
      <path id="Path_3407" data-name="Path 3407" d="M17.382,337.955a5.051,5.051,0,0,1-1.622-3.475" transform="translate(-15.76 -200.257)" fill="none" stroke="#263238" stroke-miterlimit="10" stroke-width="1"/>
      <path id="Path_3408" data-name="Path 3408" d="M117.085,336.367c0-7.587-22.681-13.727-50.668-13.727S15.76,328.779,15.76,336.367" transform="translate(-15.76 -202.132)" fill="none" stroke="#263238" stroke-miterlimit="10" stroke-width="1"/>
      <path id="Path_3409" data-name="Path 3409" d="M30.23,349.29A136.482,136.482,0,0,0,55.263,352.6" transform="translate(-13.468 -197.911)" fill="none" stroke="#263238" stroke-miterlimit="10" stroke-width="1"/>
      <path id="Path_3410" data-name="Path 3410" d="M85.81,350.181q3.869-.788,7.124-1.761" transform="translate(-4.664 -198.048)" fill="none" stroke="#263238" stroke-miterlimit="10" stroke-width="1"/>
      <path id="Path_3411" data-name="Path 3411" d="M64.107,352.329H60.7q-4.529,0-8.862-.209" transform="translate(-10.045 -197.462)" fill="none" stroke="#263238" stroke-miterlimit="10" stroke-width="1"/>
      <path id="Path_3412" data-name="Path 3412" d="M62.43,352.674a151.866,151.866,0,0,0,27.083-2.734" transform="translate(-8.368 -197.808)" fill="none" stroke="#263238" stroke-miterlimit="10" stroke-width="1"/>
      <path id="Path_3413" data-name="Path 3413" d="M25.56,348.589c-6.163-2.317-9.8-5.074-9.8-8.109" transform="translate(-15.76 -199.306)" fill="none" stroke="#263238" stroke-miterlimit="10" stroke-width="1"/>
      <path id="Path_3414" data-name="Path 3414" d="M105.015,340.48c0,3.475-4.946,6.765-13.055,9.2" transform="translate(-3.69 -199.306)" fill="none" stroke="#263238" stroke-miterlimit="10" stroke-width="1"/>
      <path id="Path_3415" data-name="Path 3415" d="M24.22,347.48a63.827,63.827,0,0,0,6.95,2.1" transform="translate(-14.42 -198.197)" fill="none" stroke="#263238" stroke-miterlimit="10" stroke-width="1"/>
      <line id="Line_1" data-name="Line 1" y2="6.939" transform="translate(0 134.235)" fill="none" stroke="#263238" stroke-miterlimit="10" stroke-width="1"/>
      <line id="Line_2" data-name="Line 2" y2="1.297" transform="translate(101.325 132.938)" fill="none" stroke="#263238" stroke-miterlimit="10" stroke-width="1"/>
      <line id="Line_3" data-name="Line 3" y2="6.939" transform="translate(101.325 134.235)" fill="none" stroke="#263238" stroke-miterlimit="10" stroke-width="1"/>
      <path id="Path_3416" data-name="Path 3416" d="M25.418,347.48l-8.7,76.57a9.592,9.592,0,0,0,9.534,10.68h0A9.6,9.6,0,0,0,35.844,424.7l-3.475-75.122" transform="translate(-15.618 -198.197)" fill="none" stroke="#263238" stroke-miterlimit="10" stroke-width="1"/>
      <path id="Path_3417" data-name="Path 3417" d="M86.287,350.181,82.812,424.55a9.6,9.6,0,1,0,19.125-.649L93.457,348.42" transform="translate(-5.141 -198.048)" fill="none" stroke="#263238" stroke-miterlimit="10" stroke-width="1"/>
      <path id="Path_3418" data-name="Path 3418" d="M64.383,352.324l4.854,40.81a9.6,9.6,0,1,1-19.125.637l2-41.621" transform="translate(-10.321 -197.458)" fill="none" stroke="#263238" stroke-miterlimit="10" stroke-width="1"/>
      <path id="Path_3419" data-name="Path 3419" d="M57.544,323s.521-18.419-.139-34.254.672-49.811.672-49.811" transform="translate(-9.193 -215.39)" fill="none" stroke="#263238" stroke-miterlimit="10" stroke-width="1"/>
      <line id="Line_4" data-name="Line 4" x1="7.194" y1="5.665" transform="translate(41.378 37.856)" fill="none" stroke="#263238" stroke-miterlimit="10" stroke-width="1"/>
      <line id="Line_5" data-name="Line 5" y1="4.147" x2="2.56" transform="translate(48.502 43.278)" fill="none" stroke="#263238" stroke-miterlimit="10" stroke-width="1"/>
      <line id="Line_6" data-name="Line 6" y1="5.282" x2="6.394" transform="translate(47.911 58.522)" fill="none" stroke="#263238" stroke-miterlimit="10" stroke-width="1"/>
      <line id="Line_7" data-name="Line 7" x1="3.371" y1="3.07" transform="translate(45.513 27.442)" fill="none" stroke="#263238" stroke-miterlimit="10" stroke-width="1"/>
      <line id="Line_8" data-name="Line 8" x1="4.217" y1="4.541" transform="translate(43.637 62.148)" fill="none" stroke="#263238" stroke-miterlimit="10" stroke-width="1"/>
      <line id="Line_9" data-name="Line 9" x1="8.792" y1="8.028" transform="translate(39.432 76.443)" fill="none" stroke="#263238" stroke-miterlimit="10" stroke-width="1"/>
      <path id="Path_3420" data-name="Path 3420" d="M57.59,300.465a52.367,52.367,0,0,0,6.51-3.035" transform="translate(-9.134 -206.125)" fill="none" stroke="#263238" stroke-miterlimit="10" stroke-width="1"/>
      <path id="Path_3421" data-name="Path 3421" d="M55.873,258.861c-3.475-2.734-15.372-2.247-17.654,3.417s4.923,14.9,11.908,14.248c2.734-.255,3.9-.44,4.97-1.969h0l-9.731-9.487,10.53,8.468a8.247,8.247,0,0,0,.73-1.738c.116-.417.232-.869.324-1.344C57.622,267.039,59.163,261.409,55.873,258.861Z" transform="translate(-12.271 -212.49)" fill="#407bff"/>
      <path id="Path_3422" data-name="Path 3422" d="M74.978,253v.2c-.95,4.228-5.792,6.614-9.846,6.267a9.652,9.652,0,0,1-1.668-.313A11.653,11.653,0,0,0,62.41,269.4a6.6,6.6,0,0,0,.7,1.332c1.158-1.019,14.005-11.943,14.005-11.943L63.777,271.6c4,4.286,13.414,3.7,16.681-4.251S79.6,254.089,74.978,253Z" transform="translate(-8.486 -213.163)" fill="#407bff"/>
      <path id="Path_3423" data-name="Path 3423" d="M69.31,240.261c-6.95-1.518-13.055,1.61-12.939,8.792A11.584,11.584,0,0,0,60.2,257.5l7.031-9.742-5.977,10.553a9.115,9.115,0,0,0,1.784.961,9.546,9.546,0,0,0,2.734.66c4.054.347,8.885-2.039,9.835-6.267C76.677,248.938,76.2,241.767,69.31,240.261Z" transform="translate(-9.328 -215.24)" fill="#407bff"/>
      <path id="Path_3424" data-name="Path 3424" d="M62.1,218.61s-.707.208-5.12,2.317-7.889,9.14-4.4,15.059a10.425,10.425,0,0,0,5.885,5.166L60.243,224.1l-.718,17.376a5.083,5.083,0,0,0,1.008,0c2.861-.3,7.4-3.73,7.831-10.75S62.1,218.61,62.1,218.61Z" transform="translate(-10.154 -218.61)" fill="#407bff"/>
      <path id="Path_3425" data-name="Path 3425" d="M43.56,232.345l13.287,10.634a3.765,3.765,0,0,0,.139-1.494c-.614-6.082-6.7-9.6-10.7-10.877s-6.788,1-4.2,6.823,9.337,8.607,12.36,7.761a3.568,3.568,0,0,0,1.842-1.158Z" transform="translate(-11.75 -216.764)" fill="#407bff"/>
      <path id="Path_3426" data-name="Path 3426" d="M53.353,244.64c-2.873.1-7.53-1.958-10.229-5.908a5.456,5.456,0,0,0-5.861,4.773c-1.355,6.348,3.232,12.986,9.846,12.175a8.827,8.827,0,0,0,5.526-2.317L40.8,242.521l12.661,9.638a3.88,3.88,0,0,0,.463-1.448,10.553,10.553,0,0,0-.568-6.07Z" transform="translate(-12.392 -215.426)" fill="#407bff"/>
      <path id="Path_3427" data-name="Path 3427" d="M53.764,275.13a10.078,10.078,0,0,1-3.406.811c-4.321.405-8.723-2.989-10.924-6.95-2.653.429-4.773,1.853-5.282,4.749-1.309,7.425,5.56,17.214,12.511,15.673a9.938,9.938,0,0,0,4.831-2.456l-15.175-14.6,16.055,13.6a8.526,8.526,0,0,0,1.714-4.054,9.36,9.36,0,0,0-.324-6.777Z" transform="translate(-12.872 -210.63)" fill="#407bff"/>
      <path id="Path_3428" data-name="Path 3428" d="M79.668,287.821c-5.1-5.9-11.179-.614-11.179-.614s-3.718,1.228-5.12,6.5a8.109,8.109,0,0,0,.185,4.865l15.337-8.943-14.966,9.777c1.4,2.653,4.448,4.263,8.618,3.093C79.3,300.61,84.765,293.729,79.668,287.821Z" transform="translate(-8.264 -208.089)" fill="#407bff"/>
      <path id="Path_3429" data-name="Path 3429" d="M69.323,306.71H48.09l2.919,28.751a2.989,2.989,0,0,0,2.977,2.7h9.441a3,3,0,0,0,2.989-2.7Z" transform="translate(-10.639 -204.655)" fill="#263238"/>
    </g>
    <g id="freepik--Windows--inject-62" transform="translate(58.718 31.443)">
      <path id="Path_3430" data-name="Path 3430" d="M51.66,30.82V268.8H173.118V30.82Zm63.364,5.792h53.657V89.145H115.024Zm0,58.325h53.657v52.012H115.024Zm0,57.781h53.657v53.113H115.024Zm-4.437,110.337h-54.5V211.576h54.5Zm0-57.225h-54.5V152.66h54.5Zm0-58.881h-54.5V94.914h54.5Zm0-57.781h-54.5V36.589h54.5Zm4.437,173.887V211.576h53.657v51.456Z" transform="translate(-51.66 -30.82)" fill="none" stroke="#b2b2b2" stroke-miterlimit="10" stroke-width="1"/>
      <path id="Path_3431" data-name="Path 3431" d="M375.29,30.82V268.8H496.748V30.82Zm63.376,5.792h53.645V89.145H438.666Zm0,58.325h53.645v52.012H438.666Zm0,57.723h53.645v53.113H438.666ZM434.229,263h-54.5V211.576h54.5Zm0-57.225h-54.5V152.66h54.5Zm0-58.881h-54.5V94.914h54.5Zm0-57.781h-54.5V36.589h54.5Zm4.437,173.922V211.576h53.645v51.456Z" transform="translate(-0.398 -30.82)" fill="none" stroke="#b2b2b2" stroke-miterlimit="10" stroke-width="1"/>
    </g>
    <g id="freepik--Picture--inject-62" transform="translate(231.748 33.435)">
      <rect id="Rectangle_112" data-name="Rectangle 112" width="150.29" height="177.976" fill="none" stroke="#b2b2b2" stroke-miterlimit="10" stroke-width="1"/>
      <line id="Line_10" data-name="Line 10" y2="26.099" transform="translate(145.344 58.673)" fill="none" stroke="#b2b2b2" stroke-miterlimit="10" stroke-width="1"/>
      <line id="Line_11" data-name="Line 11" y1="50.912" transform="translate(145.344 7.761)" fill="none" stroke="#b2b2b2" stroke-miterlimit="10" stroke-width="1"/>
      <line id="Line_12" data-name="Line 12" y2="65.183" transform="translate(145.344 84.771)" fill="none" stroke="#b2b2b2" stroke-miterlimit="10" stroke-width="1"/>
      <path id="Path_3432" data-name="Path 3432" d="M205.3,60.132V37.59h25.427" transform="translate(-200.354 -31.74)" fill="none" stroke="#b2b2b2" stroke-miterlimit="10" stroke-width="1"/>
      <path id="Path_3433" data-name="Path 3433" d="M303.95,37.59h26.122V39.5" transform="translate(-184.728 -31.74)" fill="none" stroke="#b2b2b2" stroke-miterlimit="10" stroke-width="1"/>
      <line id="Line_13" data-name="Line 13" x2="50.344" transform="translate(30.373 5.85)" fill="none" stroke="#b2b2b2" stroke-miterlimit="10" stroke-width="1"/>
      <path id="Path_3434" data-name="Path 3434" d="M329.842,161.99v22.16H305.4" transform="translate(-184.498 -12.036)" fill="none" stroke="#b2b2b2" stroke-miterlimit="10" stroke-width="1"/>
      <line id="Line_14" data-name="Line 14" x1="38.505" transform="translate(80.717 5.85)" fill="none" stroke="#b2b2b2" stroke-miterlimit="10" stroke-width="1"/>
      <line id="Line_15" data-name="Line 15" y2="21.291" transform="translate(4.946 77.925)" fill="none" stroke="#b2b2b2" stroke-miterlimit="10" stroke-width="1"/>
      <line id="Line_16" data-name="Line 16" y2="49.533" transform="translate(4.946 28.392)" fill="none" stroke="#b2b2b2" stroke-miterlimit="10" stroke-width="1"/>
      <path id="Path_3435" data-name="Path 3435" d="M205.3,177.99v3.626h98.58" transform="translate(-200.354 -9.501)" fill="none" stroke="#b2b2b2" stroke-miterlimit="10" stroke-width="1"/>
      <line id="Line_17" data-name="Line 17" y2="8.259" transform="translate(4.946 160.229)" fill="none" stroke="#b2b2b2" stroke-miterlimit="10" stroke-width="1"/>
      <line id="Line_18" data-name="Line 18" y2="61.013" transform="translate(4.946 99.217)" fill="none" stroke="#b2b2b2" stroke-miterlimit="10" stroke-width="1"/>
      <line id="Line_19" data-name="Line 19" x2="17.376" transform="translate(103.526 172.115)" fill="none" stroke="#b2b2b2" stroke-miterlimit="10" stroke-width="1"/>
      <path id="Path_3436" data-name="Path 3436" d="M329.842,162c-7.356,6.441-15.94,14.48-24.442,22.16" transform="translate(-184.498 -12.034)" fill="none" stroke="#b2b2b2" stroke-miterlimit="10" stroke-width="1"/>
      <path id="Path_3437" data-name="Path 3437" d="M290.4,193.063c8.433-20.608,27.709-57.271,41.818-87.343" transform="translate(-186.874 -20.949)" fill="none" stroke="#b2b2b2" stroke-miterlimit="10" stroke-width="1"/>
      <path id="Path_3438" data-name="Path 3438" d="M205.3,60.132a132.693,132.693,0,0,0,13.426-11.978,133.569,133.569,0,0,1,12-10.565" transform="translate(-200.354 -31.74)" fill="none" stroke="#b2b2b2" stroke-miterlimit="10" stroke-width="1"/>
      <path id="Path_3439" data-name="Path 3439" d="M205.3,193.016a6.337,6.337,0,0,0,2.421.649C232.5,196.1,314.56,107.318,345.7,83.2" transform="translate(-200.354 -24.516)" fill="none" stroke="#b2b2b2" stroke-miterlimit="10" stroke-width="1"/>
      <path id="Path_3440" data-name="Path 3440" d="M205.3,130.957c18.836-4.888,77.613-64.407,114.276-93.367" transform="translate(-200.354 -31.74)" fill="none" stroke="#b2b2b2" stroke-miterlimit="10" stroke-width="1"/>
      <path id="Path_3441" data-name="Path 3441" d="M205.3,109.665c15.21-23.446,55.441-51.491,75.771-72.075" transform="translate(-200.354 -31.74)" fill="none" stroke="#b2b2b2" stroke-miterlimit="10" stroke-width="1"/>
      <path id="Path_3442" data-name="Path 3442" d="M205.3,191.708c14.5-27.8,117.739-112.77,140.4-152.468" transform="translate(-200.354 -31.479)" fill="none" stroke="#b2b2b2" stroke-miterlimit="10" stroke-width="1"/>
    </g>
    <g id="freepik--Couch--inject-62" transform="translate(71.072 276.87)">
      <path id="Path_3443" data-name="Path 3443" d="M492.674,349.969s-2.317-88.664-33.594-98.6c-31.983-10.136-66.144-9.267-99.251-7.784-31.277,1.413-154.8.556-185.946,2.618-34.3,2.317-47,18.013-54.561,49.73a263.543,263.543,0,0,0-6.858,54.039l-7.645,22.936h395.5Z" transform="translate(-55.594 -242.688)" fill="#7a7a7a" stroke="#263238" stroke-linecap="round" stroke-linejoin="round" stroke-width="1"/>
      <path id="Path_3444" data-name="Path 3444" d="M144.691,349.458V329.58s-.765-14.515-17.573-16.044S64.437,347.929,65.2,355.575s9.174,61.916,14.515,64.21,19.114,12.986,31.346,6.881S144.691,349.458,144.691,349.458Z" transform="translate(-61.871 -231.473)" fill="#7a7a7a" stroke="#263238" stroke-linecap="round" stroke-linejoin="round" stroke-width="1"/>
      <path id="Path_3445" data-name="Path 3445" d="M411.93,349.458V329.58s.765-14.515,17.584-16.044,62.681,34.393,61.916,42.038-9.175,61.916-14.526,64.21-19.114,12.986-31.346,6.881S411.93,349.458,411.93,349.458Z" transform="translate(-6.949 -231.473)" fill="#7a7a7a" stroke="#263238" stroke-linecap="round" stroke-linejoin="round" stroke-width="1"/>
      <path id="Path_3446" data-name="Path 3446" d="M139.359,344.854a35.06,35.06,0,0,1-4.02,3.579c-10.275,8.479-36.49,28.52-36.49,28.52H503.559L461.521,342.56Z" transform="translate(-56.539 -226.868)" fill="#7a7a7a" stroke="#263238" stroke-linecap="round" stroke-linejoin="round" stroke-width="1"/>
      <path id="Path_3447" data-name="Path 3447" d="M98.85,372.25v31.6h404.5l.208-31.6Z" transform="translate(-56.539 -222.166)" fill="#4a4a4a" stroke="#263238" stroke-linecap="round" stroke-linejoin="round" stroke-width="1"/>
      <path id="Path_3448" data-name="Path 3448" d="M91.633,426.36l-9.777,30.663a4.043,4.043,0,0,0,3.846,5.271h0a4.031,4.031,0,0,0,3.313-1.738L112.276,427.1Z" transform="translate(-59.262 -213.595)" fill="#263238" stroke="#263238" stroke-linecap="round" stroke-linejoin="round" stroke-width="1"/>
      <path id="Path_3449" data-name="Path 3449" d="M459.585,426.36l9.777,30.663a4.043,4.043,0,0,1-3.846,5.271h0a4.066,4.066,0,0,1-3.325-1.738L439,427.1Z" transform="translate(-2.661 -213.595)" fill="#263238" stroke="#263238" stroke-linecap="round" stroke-linejoin="round" stroke-width="1"/>
      <path id="Path_3450" data-name="Path 3450" d="M539.034,342.337c-5.062-2.491-10.8-2.873-17.666.568C507.607,349.786,509.09,377.3,509.09,377.3v19.4a11.2,11.2,0,0,1-11.19,11.19H115.826a11.19,11.19,0,0,1-11.19-11.19V377.3S106.165,349.786,92.4,342.9c-6.881-3.475-12.615-3.058-17.677-.568A22.832,22.832,0,0,0,62.574,366c2.143,15.893,6.232,43.706,9.962,54.873,5.352,16.044,5.352,19.1,16.808,22.925,9.951,3.313,229.861.88,263.582.174,33.721.707,161.55,3.139,171.5-.174,11.457-3.823,11.457-6.881,16.808-22.925,3.73-11.167,7.819-38.98,9.962-54.873a22.82,22.82,0,0,0-12.163-23.666Z" transform="translate(-62.325 -227.213)" fill="#4a4a4a" stroke="#263238" stroke-linecap="round" stroke-linejoin="round" stroke-width="1"/>
    </g>
    <g id="freepik--character-2--inject-62" transform="translate(235.963 37.387)">
      <path id="Path_3451" data-name="Path 3451" d="M258.1,171.284s-12.152,37.555-13.669,64.87-2.653,42.49-2.653,42.49-9.87,19.357-13.275,36.049-9.441,52.985-11.341,58.673-14.793,21.257-12.117,22.728,12.9,1.158,16.322,0,5.305-13.275,7.588-22.763,31.057-62.843,36.756-72.713,7.205-21.627,10.622-28.833,18.21-59.576,18.21-59.576l2.653-1.158s.382,35.285,5.317,51.607,11,32.25,11,36.038,3.417,20.492,6.823,29.979,9.812,44.842,9.812,48.641-2.653,10.24.765,13.275,14.793,3.035,19.693,5.317,15.94,1.158,17.075-2.317-7.205-7.97-12.522-11.375-11.387-7.6-11.387-13.287,2.317-49.707-1.158-64.117-6.07-23.909-6.07-30.744,6.07-60.712,3.8-80.439-9.487-32.25-9.487-32.25Z" transform="translate(-204.666 -16.085)" fill="#263238" stroke="#263238" stroke-linecap="round" stroke-linejoin="round" stroke-width="1"/>
      <path id="Path_3452" data-name="Path 3452" d="M338.841,357.475c-5.317-3.417-11.387-7.6-11.387-13.287,0-2.676.51-13.831.683-26.388a50.158,50.158,0,0,1-19.948,3c2.861,13.368,5.607,29.261,5.607,31.74,0,3.788-2.653,10.24.765,13.275s14.793,3.035,19.693,5.317,15.94,1.158,17.075-2.317S344.158,360.892,338.841,357.475Z" transform="translate(-188.271 8.692)" fill="#fff" stroke="#263238" stroke-linecap="round" stroke-linejoin="round" stroke-width="1"/>
      <path id="Path_3453" data-name="Path 3453" d="M228.936,348.7c.869-3.626,5.479-14.885,11.387-25.149-8.051-2-14.063-3.2-16.889-6.348-3.047,13.9-5,27.72-6.267,31.5-1.888,5.688-14.793,21.245-12.117,22.716s12.9,1.158,16.322,0S226.654,358.184,228.936,348.7Z" transform="translate(-204.666 8.597)" fill="#fff" stroke="#263238" stroke-linecap="round" stroke-linejoin="round" stroke-width="1"/>
      <path id="Path_3454" data-name="Path 3454" d="M231.429,338.589a36.244,36.244,0,0,0-2.491,6.95c-2.317,9.487-4.17,21.627-7.588,22.762s-13.658,1.518-16.322,0,10.252-17.075,12.14-22.762c.487-1.436,1.263-4.39,2.2-8.259a15.059,15.059,0,0,0,12.059,1.309Z" transform="translate(-204.669 11.777)" fill="#fff" stroke="#263238" stroke-linecap="round" stroke-linejoin="round" stroke-width="1"/>
      <path id="Path_3455" data-name="Path 3455" d="M350.76,365.458c1.158-3.417-7.205-7.97-12.522-11.375s-11.387-7.6-11.387-13.287V339.22a37.776,37.776,0,0,1-14.851.9c.765,4.576,1.251,7.97,1.251,9.012,0,3.788-2.653,10.24.765,13.275s14.793,3.035,19.693,5.317S349.625,368.875,350.76,365.458Z" transform="translate(-187.668 12.085)" fill="#fff" stroke="#263238" stroke-linecap="round" stroke-linejoin="round" stroke-width="1"/>
      <path id="Path_3456" data-name="Path 3456" d="M335.07,365.758c5.143.371,11.2-.9,12.036-3.394.371-1.158-.278-2.317-1.483-3.614A19.392,19.392,0,0,0,335.07,365.758Z" transform="translate(-184.014 15.178)" fill="#a8a8a8" stroke="#263238" stroke-linecap="round" stroke-linejoin="round" stroke-width="1"/>
      <path id="Path_3457" data-name="Path 3457" d="M222.579,363.457c-5.607-2.687-13.9-1.483-17.747-.718-.255.834-.22,1.425.2,1.656,2.664,1.517,12.9,1.158,16.322,0a2.8,2.8,0,0,0,1.228-.938Z" transform="translate(-204.669 15.661)" fill="#a8a8a8" stroke="#263238" stroke-linecap="round" stroke-linejoin="round" stroke-width="1"/>
      <path id="Path_3458" data-name="Path 3458" d="M312.481,352.31c-.463,3.035-.649,6.174,1.448,8.039,1.274,1.158,3.661,1.842,6.418,2.409a14.631,14.631,0,0,0-7.866-10.449Z" transform="translate(-187.639 14.158)" fill="#a8a8a8" stroke="#263238" stroke-linecap="round" stroke-linejoin="round" stroke-width="1"/>
      <path id="Path_3459" data-name="Path 3459" d="M342.355,65.3s.672-6.51-3.823-15.719-19.982-15.708-31.647-13.02a30.118,30.118,0,0,0-18.407,11.9c-2.247,2.7-3.823,5.618-11.225,3.823a17.237,17.237,0,0,0-17.515,6.279c-2.919,4.274-2.467,11.677-3.139,13.9s-6.058,6.29-6.058,6.29L324.168,111.3s10.553-7.622,12.117-13.02-4.263-6.672-1.344-12.557,7.854-8.757,8.109-12.117A42.956,42.956,0,0,0,342.355,65.3Z" transform="translate(-197.403 -35.952)" fill="#263238" stroke="#263238" stroke-linecap="round" stroke-linejoin="round" stroke-width="1"/>
      <path id="Path_3460" data-name="Path 3460" d="M295.5,73.114s-2.479,8.978-6.07,12.349-13.24,3.139-21.094,2.467-13.472.892-17.063,5.387-32.1,31.879-36.142,36.594-.452,13.24,2.7,14.364,8.109-2.016,13.24-6.95,21.326-18.407,21.326-18.407,4.263,39.281,1.564,50.738-4.483,17.283-4.483,17.283,29.18,4.935,50.506.892a320.155,320.155,0,0,0,35.25-8.526s-8.306-25.137-9.881-34.346-1.344-10.1-1.344-10.1,24.685,19.079,29.4,19.079,11-1.8,6.07-9.429-24.7-31.659-28.52-39.084-7.4-7.4-15.256-10.321-4.286-12.557-4.286-12.557S302.446,72.443,295.5,73.114Z" transform="translate(-203.298 -30.071)" fill="#fff" stroke="#263238" stroke-linecap="round" stroke-linejoin="round" stroke-width="1"/>
      <path id="Path_3461" data-name="Path 3461" d="M284.288,73.11s-1.691,20.469,4.576,26.157S303.6,94.726,303.6,94.726Z" transform="translate(-192.09 -30.066)" fill="#263238" stroke="#263238" stroke-linecap="round" stroke-linejoin="round" stroke-width="1"/>
      <path id="Path_3462" data-name="Path 3462" d="M310.085,100.7c-.139-4.02-.2-6.591-.22-8.016a7.228,7.228,0,0,1-3.047-2.734,47.818,47.818,0,0,1-6.394,16.588c-5.155,7.854-19.531,4.043-22.009-2.919-1.819-5.132-2.908-13.414-3.348-17.376a79.6,79.6,0,0,1-10.877-.232,78.447,78.447,0,0,1-2.166,28.439c-3.243,11.526-9.893,15.059-13.333,16.148,1,12.476,1.969,30.014.313,37.069-2.687,11.445-4.483,17.283-4.483,17.283s29.18,4.935,50.506.892a320.142,320.142,0,0,0,35.25-8.526s-8.306-25.137-9.881-34.346-1.344-10.1-1.344-10.1S310.305,107.429,310.085,100.7Z" transform="translate(-198.357 -28.023)" fill="#407bff" stroke="#263238" stroke-linecap="round" stroke-linejoin="round" stroke-width="1"/>
      <path id="Path_3463" data-name="Path 3463" d="M268.373,131.93s-8.537,14.793-14.793,19.924" transform="translate(-196.921 -20.749)" fill="none" stroke="#263238" stroke-linecap="round" stroke-linejoin="round" stroke-width="1"/>
      <path id="Path_3464" data-name="Path 3464" d="M268.952,135.86s-9.093,21.013-15.372,29.029" transform="translate(-196.921 -20.127)" fill="none" stroke="#263238" stroke-linecap="round" stroke-linejoin="round" stroke-width="1"/>
      <path id="Path_3465" data-name="Path 3465" d="M321.085,60.791s-3.811,3.591-14.816,2.016a27.477,27.477,0,0,0-20.851,5.166l-2.687,2.016s1.8,20.2,6.51,25.149,12.569,4.483,18.627,2.236,13.692-8.978,16.391-15.488a62.231,62.231,0,0,1,7.182-12.349S331.186,57.42,321.085,60.791Z" transform="translate(-192.304 -32.111)" fill="#fff" stroke="#263238" stroke-linecap="round" stroke-linejoin="round" stroke-width="1"/>
      <path id="Path_3466" data-name="Path 3466" d="M317.768,57.119,312.15,69.247s7.854,3.591,12.128,5.166,10.773,4.263,10.773,4.263a16.148,16.148,0,0,0,4.726-11.2c0-6.95-13.692-11.225-13.692-11.225" transform="translate(-187.644 -32.737)" fill="#263238" stroke="#263238" stroke-linecap="round" stroke-linejoin="round" stroke-width="1"/>
      <path id="Path_3467" data-name="Path 3467" d="M312.966,76s-2.687,2.687-2.467,4.715-1.344,4.263-3.359,3.139a7.461,7.461,0,0,1-2.919-3.591" transform="translate(-188.9 -29.608)" fill="none" stroke="#263238" stroke-linecap="round" stroke-linejoin="round" stroke-width="1"/>
      <path id="Path_3468" data-name="Path 3468" d="M300.92,70.59a7.657,7.657,0,0,0,6.51,3.371" transform="translate(-189.423 -30.465)" fill="none" stroke="#263238" stroke-linecap="round" stroke-linejoin="round" stroke-width="1"/>
      <path id="Path_3469" data-name="Path 3469" d="M312.35,77.37a4.332,4.332,0,0,0,4.228,2.467" transform="translate(-187.612 -29.391)" fill="none" stroke="#263238" stroke-linecap="round" stroke-linejoin="round" stroke-width="1"/>
      <path id="Path_3470" data-name="Path 3470" d="M301.7,65.977s6.058-1.575,8.978,2.919" transform="translate(-189.299 -31.239)" fill="none" stroke="#263238" stroke-linecap="round" stroke-linejoin="round" stroke-width="1"/>
      <path id="Path_3471" data-name="Path 3471" d="M314.68,72.92s5.166,0,5.166,4.263" transform="translate(-187.243 -30.096)" fill="none" stroke="#263238" stroke-linecap="round" stroke-linejoin="round" stroke-width="1"/>
      <path id="Path_3472" data-name="Path 3472" d="M306.767,86.548a15.337,15.337,0,0,1-9.418-8.978s-3.823,8.526-1.355,10.541S306.767,86.548,306.767,86.548Z" transform="translate(-190.335 -29.36)" fill="#263238" stroke="#263238" stroke-linecap="round" stroke-linejoin="round" stroke-width="1"/>
      <path id="Path_3473" data-name="Path 3473" d="M297.216,77.57s-.637,1.413-1.216,3.209a15.4,15.4,0,0,0,6.568,7.194,36.812,36.812,0,0,0,4.066-1.425,15.337,15.337,0,0,1-9.418-8.978Z" transform="translate(-190.202 -29.36)" fill="#fff" stroke="#263238" stroke-linecap="round" stroke-linejoin="round" stroke-width="1"/>
      <path id="Path_3474" data-name="Path 3474" d="M254.423,77s14.816,5.166,13.9,7.194-4.483,8.746-5.387,10.541a3.209,3.209,0,0,1-2.908,1.958c-.672,0-1.344-1.575-1.344-1.575l-5.166-.672s-.672,4.043-3.591,5.792a21.755,21.755,0,0,1-6.279,2.467S232.876,129.51,230.4,134.92s-6.058,10.1-9.87,11-10.333-5.618-8.306-12.742,32.319-40.4,33.223-42.652S254.423,77,254.423,77Z" transform="translate(-203.533 -29.45)" fill="#fff" stroke="#263238" stroke-linecap="round" stroke-linejoin="round" stroke-width="1"/>
      <path id="Path_3475" data-name="Path 3475" d="M247.28,87.12s7.7.359,8.989,1.645,1.958,3.556,1.066,4.344" transform="translate(-197.919 -27.847)" fill="none" stroke="#263238" stroke-linecap="round" stroke-linejoin="round" stroke-width="1"/>
      <path id="Path_3476" data-name="Path 3476" d="M247.75,82.84s8.989.73,10.275,2.2a10.113,10.113,0,0,1,1.83,3.672" transform="translate(-197.845 -28.525)" fill="none" stroke="#263238" stroke-linecap="round" stroke-linejoin="round" stroke-width="1"/>
      <path id="Path_3477" data-name="Path 3477" d="M249.18,79.51s6.788.741,8.433,2.027,3.3,3.116,3.475,4.031" transform="translate(-197.618 -29.052)" fill="none" stroke="#263238" stroke-linecap="round" stroke-linejoin="round" stroke-width="1"/>
      <path id="Path_3478" data-name="Path 3478" d="M303.831,121.807s-3.116,0-3.475,1.286.185,7.344.741,7.7,2.572.185,2.931-.544a36.379,36.379,0,0,0,.915-4.958S305.487,121.262,303.831,121.807Z" transform="translate(-189.531 -22.361)" fill="#fff" stroke="#263238" stroke-linecap="round" stroke-linejoin="round" stroke-width="1"/>
      <path id="Path_3479" data-name="Path 3479" d="M316.187,143.442l-5.166,1.286-4.089-16.38L300.41,99.157l3.718-.927,7.97,28.832Z" transform="translate(-189.504 -26.087)" fill="#fff" stroke="#263238" stroke-linecap="round" stroke-linejoin="round" stroke-width="1"/>
      <rect id="Rectangle_113" data-name="Rectangle 113" width="15.048" height="20.179" transform="translate(105.822 76.249) rotate(-14.02)" fill="#263238" stroke="#263238" stroke-linecap="round" stroke-linejoin="round" stroke-width="1"/>
      <path id="Path_3480" data-name="Path 3480" d="M315.49,116.91c-.672,0-13.02,2.467-13.02,4.031s4.043,12.742,4.946,15.059,5.155,1.8,5.155,1.8a29.82,29.82,0,0,0,2.919,1.344c.672.185,3.591.9,3.591.9s15.059,13.692,23.573,14.816,8.306-10.785,5.166-15.268-24.245-6.742-25.589-8.306S315.49,116.91,315.49,116.91Z" transform="translate(-189.177 -23.128)" fill="#fff" stroke="#263238" stroke-linecap="round" stroke-linejoin="round" stroke-width="1"/>
      <line id="Line_20" data-name="Line 20" y1="3.301" x2="10.634" transform="translate(114.127 97.801)" fill="none" stroke="#263238" stroke-linecap="round" stroke-linejoin="round" stroke-width="1"/>
      <line id="Line_21" data-name="Line 21" y1="3.857" x2="10.46" transform="translate(115.957 101.647)" fill="none" stroke="#263238" stroke-linecap="round" stroke-linejoin="round" stroke-width="1"/>
      <line id="Line_22" data-name="Line 22" y1="2.942" x2="9.731" transform="translate(117.787 107.149)" fill="none" stroke="#263238" stroke-linecap="round" stroke-linejoin="round" stroke-width="1"/>
    </g>
    <g id="freepik--character-3--inject-62" transform="translate(353.526 131.018)">
      <path id="Path_3481" data-name="Path 3481" d="M311.223,215.11s-2.108-3.753-3.742-6.418c-2.143-3.475-1.344-6.406,0-7.483s8.016-3.742,8.283-1.6-2.942,1.066-3.475,2.409-2.143,1.332-1.332,3.742,2.664,7.483,2.664,9.082S311.223,215.11,311.223,215.11Z" transform="translate(-306.157 -103.788)" fill="#fff" stroke="#263238" stroke-linecap="round" stroke-linejoin="round" stroke-width="1"/>
      <path id="Path_3482" data-name="Path 3482" d="M322.44,223.957s-.382-4.552-.382-11.364S323.216,201.6,320.9,201.6s-3.035,1.517-3.035,4.552,1.158,2.838-.347,6.95-2.317,6.719-2.317,6.719,1.9,4.17,3.417,4.552A8.642,8.642,0,0,0,322.44,223.957Z" transform="translate(-304.724 -103.345)" fill="#fff" stroke="#263238" stroke-linecap="round" stroke-linejoin="round" stroke-width="1"/>
      <path id="Path_3483" data-name="Path 3483" d="M372.617,197.65s-3.475,5.085-4.275,20.052-8.294,35.818-8.294,35.818S338.954,242.295,332,237.754s-7.321-7.588-7.321-7.588.1-4.981-.973-7.391-1.865-4.541-1.865-4.541-1.344-1.332,1.6-1.066,5.885,2.4,5.352.266-2.676-2.143-4.286-3.475-4.008,0-4.807,1.066a15.448,15.448,0,0,0-1.332,2.143,6.1,6.1,0,0,1,0-3.475c.533-2.143,3.742-3.742,6.139-3.742s2.143-2.942,0-3.475-6.139,1.066-7.483,2.676a5.966,5.966,0,0,0-1.332,3.475,28.485,28.485,0,0,1-.8-6.95c.266-2.409,3.475-3.209,5.607-4.02s-.266-3.475-2.4-2.931a11.723,11.723,0,0,0-6.418,3.475c-1.877,2.131-1.877,5.873-1.332,9.348s3.2,17.376,5.074,21.65,36.617,36.084,44.1,40.637,8.827,2.931,12.036-1.344,12.569-22.45,12.569-22.45-1.332-25.658-5.074-34.752S372.617,197.65,372.617,197.65Z" transform="translate(-305.542 -103.97)" fill="#fff" stroke="#263238" stroke-linecap="round" stroke-linejoin="round" stroke-width="1"/>
      <path id="Path_3484" data-name="Path 3484" d="M375.6,239.2c-5.259-2.131-12.383-5.248-17.063-7.321a90.961,90.961,0,0,0,2.12-14.132c.8-14.966,4.275-20.052,4.275-20.052s2.676,8.561,6.418,17.642C373.483,220.476,374.839,231.063,375.6,239.2Z" transform="translate(-297.859 -103.964)" fill="#263238" stroke="#263238" stroke-linecap="round" stroke-linejoin="round" stroke-width="1"/>
      <path id="Path_3485" data-name="Path 3485" d="M448.91,353.45s4.888,19.751,7.831,26.122,9.267,18.268,10.426,31.682,6.325,56.622,7.483,58.858,8.572,9.7,15.65,16.032-3.348,8.2-9.684,7.819-13.8-5.213-17.515-7.078-4.854-7.448-5.224-11.931,0-14.526-2.977-23.851-14.932-29.447-18.291-41.413a123.613,123.613,0,0,1-4.1-21.627l-13.785-27.952C417.969,358.721,448.91,353.45,448.91,353.45Z" transform="translate(-288.329 -79.292)" fill="#fff" stroke="#263238" stroke-linecap="round" stroke-linejoin="round" stroke-width="1"/>
      <path id="Path_3486" data-name="Path 3486" d="M448.91,353.45s-30.941,5.213-30.188,6.707l4.414,8.954c7.541-.614,19.241-2.409,27.871-7.564C449.778,356.983,448.91,353.45,448.91,353.45Z" transform="translate(-288.329 -79.292)" fill="#263238" stroke="#263238" stroke-linecap="round" stroke-linejoin="round" stroke-width="1"/>
      <path id="Path_3487" data-name="Path 3487" d="M452.552,459.892c-.162-1.888-.185-4.8-.382-8.213a30.027,30.027,0,0,0,15.94-3.139,46,46,0,0,0,1.216,6.51c1.158,2.236,8.572,9.7,15.65,16.032s-3.348,8.2-9.684,7.819-13.8-5.213-17.515-7.078S452.923,464.375,452.552,459.892Z" transform="translate(-283.029 -64.23)" fill="#fff" stroke="#263238" stroke-linecap="round" stroke-linejoin="round" stroke-width="1"/>
      <path id="Path_3488" data-name="Path 3488" d="M459.166,468.419a16.382,16.382,0,0,1,.591,2.606c-.776-.429-1.483-.811-2.074-1.158-3.023-1.506-4.332-5.479-4.923-9.267C455.077,462.453,458.251,465.442,459.166,468.419Z" transform="translate(-282.935 -62.32)" fill="#a8a8a8" stroke="#263238" stroke-linecap="round" stroke-linejoin="round" stroke-width="1"/>
      <path id="Path_3489" data-name="Path 3489" d="M484.759,470c2.317,4.46-6.186,5.792-11.653,5.479a22.983,22.983,0,0,1-7.136-1.819C470.719,471.054,479.72,470.267,484.759,470Z" transform="translate(-280.843 -60.831)" fill="#a8a8a8" stroke="#263238" stroke-linecap="round" stroke-linejoin="round" stroke-width="1"/>
      <path id="Path_3490" data-name="Path 3490" d="M361.1,353.45s-4.842,19.751-7.819,26.087-9.325,18.268-10.426,31.682-6.336,56.657-7.46,58.893-8.572,9.7-15.65,16.032,3.348,8.2,9.684,7.819,13.8-5.213,17.527-7.078,4.842-7.448,5.213-11.931,0-14.526,2.977-23.851,14.92-29.446,18.268-41.366a123.614,123.614,0,0,0,4.1-21.627s13.044-26.458,13.8-27.952S361.1,353.45,361.1,353.45Z" transform="translate(-304.38 -79.292)" fill="#fff" stroke="#263238" stroke-linecap="round" stroke-linejoin="round" stroke-width="1"/>
      <path id="Path_3491" data-name="Path 3491" d="M385.673,360.157c.741-1.494-30.2-6.707-30.2-6.707s-1.1,4.518-2.583,9.927a65.774,65.774,0,0,0,27.083,8.306C382.8,365.961,385.348,360.794,385.673,360.157Z" transform="translate(-298.754 -79.292)" fill="#263238" stroke="#263238" stroke-linecap="round" stroke-linejoin="round" stroke-width="1"/>
      <path id="Path_3492" data-name="Path 3492" d="M352.153,459.892c.162-1.888.185-4.8.382-8.213a30.026,30.026,0,0,1-15.9-3.139,44.2,44.2,0,0,1-1.216,6.51c-1.158,2.236-8.572,9.7-15.65,16.032s3.348,8.2,9.684,7.819,13.8-5.213,17.527-7.078S351.782,464.375,352.153,459.892Z" transform="translate(-304.377 -64.23)" fill="#fff" stroke="#263238" stroke-linecap="round" stroke-linejoin="round" stroke-width="1"/>
      <path id="Path_3493" data-name="Path 3493" d="M341.691,468.419a16.388,16.388,0,0,0-.591,2.606c.776-.429,1.483-.811,2.085-1.158,3.023-1.506,4.321-5.479,4.912-9.267C345.791,462.453,342.606,465.442,341.691,468.419Z" transform="translate(-300.622 -62.32)" fill="#a8a8a8" stroke="#263238" stroke-linecap="round" stroke-linejoin="round" stroke-width="1"/>
      <path id="Path_3494" data-name="Path 3494" d="M317.763,470c-2.317,4.46,6.186,5.792,11.653,5.479a22.983,22.983,0,0,0,7.136-1.819C331.8,471.054,322.8,470.267,317.763,470Z" transform="translate(-304.38 -60.831)" fill="#a8a8a8" stroke="#263238" stroke-linecap="round" stroke-linejoin="round" stroke-width="1"/>
      <path id="Path_3495" data-name="Path 3495" d="M452.177,299.157l17.515,64.87a239.343,239.343,0,0,1-26.828,8.2,112.774,112.774,0,0,1-21.616,2.595l-11.584-43.243h-4.471l-7.46,44.019s-22.739.741-32.053-2.977-19.38-8.954-19.38-8.954l22.82-67.488,76.779.371Z" transform="translate(-299.798 -88.364)" fill="#407bff" stroke="#263238" stroke-linecap="round" stroke-linejoin="round" stroke-width="1"/>
      <line id="Line_23" data-name="Line 23" x1="6.684" y2="14.816" transform="translate(77.628 212.716)" fill="none" stroke="#263238" stroke-linecap="round" stroke-linejoin="round" stroke-width="1"/>
      <line id="Line_24" data-name="Line 24" x1="5.734" y2="22.936" transform="translate(86.223 211.28)" fill="none" stroke="#263238" stroke-linecap="round" stroke-linejoin="round" stroke-width="1"/>
      <line id="Line_25" data-name="Line 25" x2="2.386" y2="10.032" transform="translate(133.544 217.014)" fill="none" stroke="#263238" stroke-linecap="round" stroke-linejoin="round" stroke-width="1"/>
      <line id="Line_26" data-name="Line 26" x2="1.911" y2="10.032" transform="translate(125.898 214.628)" fill="none" stroke="#263238" stroke-linecap="round" stroke-linejoin="round" stroke-width="1"/>
      <path id="Path_3496" data-name="Path 3496" d="M410.151,181.755s36.084,11.491,38.76,13.9-.8,75.377-.533,78.319,4.541,46.776,4.541,46.776a330.73,330.73,0,0,1-41.7,3.209c-20.04,0-47.575-7.483-47.575-7.483s6.95-19.241,8.283-26.191-2.942-56.09-2.942-56.09-6.139-22.45-5.607-30.211,10.692-10.426,21.917-14.966S404.8,180.689,410.151,181.755Z" transform="translate(-297.099 -106.517)" fill="#263238" stroke="#263238" stroke-linecap="round" stroke-linejoin="round" stroke-width="1"/>
      <path id="Path_3497" data-name="Path 3497" d="M397.808,218.31l5.8,11.758,12.986,1.888-9.395,9.151,2.213,12.928-11.607-6.1-11.607,6.1,2.224-12.928-9.395-9.151L392,230.068Z" transform="translate(-294.614 -100.698)" fill="none" stroke="#407bff" stroke-linecap="round" stroke-linejoin="round" stroke-width="1"/>
      <path id="Path_3498" data-name="Path 3498" d="M408.179,170.19s2.409,17.909,4.008,26.736-5.873,20.052-15.766,18.442-12.3-13.9-12.3-16.843-1.6-14.434-1.6-14.434,13.368-.8,18.708-4.541A18.974,18.974,0,0,0,408.179,170.19Z" transform="translate(-294.061 -108.32)" fill="#fff" stroke="#263238" stroke-linecap="round" stroke-linejoin="round" stroke-width="1"/>
      <path id="Path_3499" data-name="Path 3499" d="M371.168,159.725s-3.2-3.8-4.4.405,2,9.8,4.4,11.4,3,2.2,3,1.6S371.168,159.725,371.168,159.725Z" transform="translate(-296.598 -110.227)" fill="none" stroke="#263238" stroke-linecap="round" stroke-linejoin="round" stroke-width="1"/>
      <path id="Path_3500" data-name="Path 3500" d="M406.2,157.137s2.792-6.6,6.394-3,.405,10.194-1.8,12.395-4.807,1.158-5.2-.394S406.2,157.137,406.2,157.137Z" transform="translate(-290.421 -111.033)" fill="#fff" stroke="#263238" stroke-linecap="round" stroke-linejoin="round" stroke-width="1"/>
      <path id="Path_3501" data-name="Path 3501" d="M393.93,129.777s-5.792-4.425.834-13" transform="translate(-292.625 -116.78)" fill="none" stroke="#263238" stroke-linecap="round" stroke-linejoin="round" stroke-width="1"/>
      <path id="Path_3502" data-name="Path 3502" d="M394.054,131.73a68.094,68.094,0,0,1-.394-8c0-5,11.584-7.6,19.994.8s4.552,17.538.961,18.141a11.063,11.063,0,0,1-7.472-1.158,17.167,17.167,0,0,1-4.888-3.834S397.865,137.916,394.054,131.73Z" transform="translate(-292.297 -116.416)" fill="#263238" stroke="#263238" stroke-linecap="round" stroke-linejoin="round" stroke-width="1"/>
      <path id="Path_3503" data-name="Path 3503" d="M403.518,132.8a23.967,23.967,0,0,1,8.584,12.673c1.8,7.6,0,24-.209,29.6s-.2,12.21-6.95,20.006-16.8,7.8-24-1.8-11.816-27.6-12.65-39.606,4.807-20.2,11.584-23.4a25.786,25.786,0,0,1,14.109-1.772,20.191,20.191,0,0,1,9.534,4.3Z" transform="translate(-296.328 -114.972)" fill="#263238" stroke="#263238" stroke-linecap="round" stroke-linejoin="round" stroke-width="1"/>
      <path id="Path_3504" data-name="Path 3504" d="M360,148.734c6.371-7.46,16.6-.544,16.6-.544s-9.406-3.6-14.387,8.016" transform="translate(-297.628 -112.267)" fill="none" stroke="#263238" stroke-linecap="round" stroke-linejoin="round" stroke-width="1"/>
      <path id="Path_3505" data-name="Path 3505" d="M384.51,175.761a11.283,11.283,0,0,0,6.8-.394,10.6,10.6,0,0,0,5-4.807" transform="translate(-293.746 -108.261)" fill="none" stroke="#fff" stroke-linecap="round" stroke-linejoin="round" stroke-width="1"/>
      <path id="Path_3506" data-name="Path 3506" d="M409.922,160.467a8.642,8.642,0,0,0-2-4.8c-1.992-2.595-3.2-4.2-3.591-7.8s-5.2-3.8-8.8-2.606-8.4,6-14.607,5-8.19-3-9.395-1.4,0,6-.8,8.2a41.934,41.934,0,0,0-1.4,5.6s4.2,13.009,5.792,15.21,1.6,2.595,2.4,2.595,3-2.2,4.634-4.2a14.26,14.26,0,0,1,9.406-4.193c3.394,0,6.394-.6,9.592.8s3.406,5.2,4.807,2.595,3-9.2,3.394-11.584S409.922,160.467,409.922,160.467Z" transform="translate(-296.152 -112.371)" fill="#fff" stroke="#263238" stroke-linecap="round" stroke-linejoin="round" stroke-width="1"/>
      <path id="Path_3507" data-name="Path 3507" d="M381.23,158.13a25.485,25.485,0,0,1,2,6.6c.405,3.2-.6,6.95,2.2,8s5.792-2,5.792-3.811" transform="translate(-294.265 -110.23)" fill="#fff" stroke="#263238" stroke-linecap="round" stroke-linejoin="round" stroke-width="1"/>
      <path id="Path_3508" data-name="Path 3508" d="M397.831,159.793s-5.792-2.8-9,2.4" transform="translate(-293.062 -110.086)" fill="none" stroke="#263238" stroke-linecap="round" stroke-linejoin="round" stroke-width="1"/>
      <path id="Path_3509" data-name="Path 3509" d="M381.742,164.03s-4.4-3-8.792-.405" transform="translate(-295.577 -109.527)" fill="none" stroke="#263238" stroke-linecap="round" stroke-linejoin="round" stroke-width="1"/>
      <path id="Path_3510" data-name="Path 3510" d="M397.656,155.207s-5.792-2.792-10.205-.8" transform="translate(-293.28 -110.933)" fill="none" stroke="#263238" stroke-linecap="round" stroke-linejoin="round" stroke-width="2"/>
      <path id="Path_3511" data-name="Path 3511" d="M379.815,156.591s-6.2-1.008-8.6,4.193" transform="translate(-295.851 -110.487)" fill="none" stroke="#263238" stroke-linecap="round" stroke-linejoin="round" stroke-width="2"/>
      <path id="Path_3512" data-name="Path 3512" d="M436.494,191.19s12.835,1.877,17.376,5.352,18.743,48.873,21.917,57.468,4.008,11.758,2.942,13.1-53.194,39.293-53.993,40.625-5.885,7.217-8.815,11.491a27.894,27.894,0,0,1-9.36,8.016c-1.61.811-6.95,3.209-7.75,4.008s-4.008,3.209-4.008.544,2.664-4.008,4.274-6.95a14.5,14.5,0,0,0,1.865-7.75c-.266-1.344-2.664.8-5.074,3.2s-5.885,6.95-6.95,6.684-1.877-1.865-.533-4.807,8.815-11.491,10.426-13.1l2.4-2.4s-5.607,1.6-7.75,1.332-2.664-2.942-2.942-4.275,2.942-.533,5.618-1.077,4.541-2.664,7.483-2.664,13.634-.8,18.175-4.008,13.634-12.337,19.542-19.785,13.9-18.975,13.9-18.975L437.05,213.107" transform="translate(-293.243 -104.994)" fill="#263238" stroke="#263238" stroke-linecap="round" stroke-linejoin="round" stroke-width="1"/>
      <path id="Path_3513" data-name="Path 3513" d="M398.809,304.536l2.4-2.4s-5.607,1.6-7.75,1.332-2.664-2.942-2.942-4.274,2.942-.533,5.618-1.077,4.541-2.664,7.483-2.664,13.634-.8,18.175-4.008,13.634-12.395,19.542-19.843,13.9-18.975,13.9-18.975l-9.846-23.9,20.446-8.561c4.344,12.43,8.433,25.126,9.974,29.25,3.209,8.549,4.008,11.758,2.942,13.1s-53.194,39.293-53.993,40.625-5.885,7.217-8.815,11.491a27.9,27.9,0,0,1-9.36,8.016c-1.61.811-6.95,3.209-7.75,4.008s-4.008,3.209-4.008.544,2.664-4.008,4.274-6.95a14.5,14.5,0,0,0,1.865-7.75c-.266-1.344-2.664.8-5.074,3.2s-5.885,6.95-6.95,6.684-1.877-1.865-.533-4.807S397.2,306.088,398.809,304.536Z" transform="translate(-293.24 -100.403)" fill="#fff" stroke="#263238" stroke-linecap="round" stroke-linejoin="round" stroke-width="1"/>
      <path id="Path_3514" data-name="Path 3514" d="M407.424,300.57s-1.077,4.807-3.209,7.483a23.621,23.621,0,0,1-5.085,4.541" transform="translate(-291.43 -87.668)" fill="none" stroke="#263238" stroke-linecap="round" stroke-linejoin="round" stroke-width="1"/>
      <path id="Path_3515" data-name="Path 3515" d="M410.262,302.41a48.507,48.507,0,0,1-3.742,5.618" transform="translate(-290.26 -87.377)" fill="none" stroke="#263238" stroke-linecap="round" stroke-linejoin="round" stroke-width="1"/>
    </g>
    <g id="freepik--character-1--inject-62" transform="translate(130.563 122.09)">
      <path id="Path_3516" data-name="Path 3516" d="M180.272,168.591s14.584,7.854,17.955,7.854,8.978-1.4,9.823-1.4,3.359,8.422,1.958,9.823-5.329,1.4-5.329,1.4a2.085,2.085,0,0,1-2.525,1.68c-2.247-.278-6.452-5.9-6.452-5.9s-19.079-.556-24.975-1.958-3.649-7.854-.846-10.1S180.272,168.591,180.272,168.591Z" transform="translate(-105.232 -99.67)" fill="#fff" stroke="#263238" stroke-linecap="round" stroke-linejoin="round" stroke-width="1"/>
      <path id="Path_3517" data-name="Path 3517" d="M200.029,184.636s-3.371-2.247-3.649-5.9" transform="translate(-100.581 -98.038)" fill="none" stroke="#263238" stroke-linecap="round" stroke-linejoin="round" stroke-width="1"/>
      <path id="Path_3518" data-name="Path 3518" d="M201.5,130.551s3.081,9.267,2.8,13.472-2.525,5.885-1.158,8.109,4.2,3.927,2.8,5.329-4.483,1.691-4.483,1.691-2.247,9.823-8.978,10.426-12.348-7.3-12.348-7.3a65.438,65.438,0,0,1-3.649-19.924c0-10.1,15.152-15.986,18.8-15.43a11.179,11.179,0,0,1,6.209,3.626Z" transform="translate(-103.732 -106.251)" fill="#fff" stroke="#263238" stroke-linecap="round" stroke-linejoin="round" stroke-width="1"/>
      <path id="Path_3519" data-name="Path 3519" d="M197.485,147.265a3.579,3.579,0,0,0-4.495-1.691" transform="translate(-101.118 -103.331)" fill="none" stroke="#263238" stroke-linecap="round" stroke-linejoin="round" stroke-width="1"/>
      <path id="Path_3520" data-name="Path 3520" d="M198.81,141.524a4.564,4.564,0,0,0-5.34.556" transform="translate(-101.042 -104.03)" fill="none" stroke="#263238" stroke-linecap="round" stroke-linejoin="round" stroke-width="1"/>
      <path id="Path_3521" data-name="Path 3521" d="M194.362,156.548s-4.182.7-6.522-4.008" transform="translate(-101.934 -102.188)" fill="none" stroke="#263238" stroke-linecap="round" stroke-linejoin="round" stroke-width="1"/>
      <path id="Path_3522" data-name="Path 3522" d="M167.154,238.1l12.9,12.627s-14.584,12.627-20.758,19.693-23.851,17.955-22.45,19.635,7.3,7.576,10.426,10.669a97.715,97.715,0,0,0,7.576,7.3c3.649,3.081,6.452,1.4,5.9-.846s-5.607-17.376-5.607-19.924,13.75-8.7,21.6-14.306,21.882-16.565,21.882-21.326-18.233-22.45-18.233-22.45Z" transform="translate(-110.023 -90.05)" fill="#fff" stroke="#263238" stroke-linecap="round" stroke-linejoin="round" stroke-width="1"/>
      <path id="Path_3523" data-name="Path 3523" d="M147.186,294.207c-3.081-3.093-8.978-8.978-10.426-10.669-1.031-1.24,8.283-7.495,15.731-13.519a19.693,19.693,0,0,0,5.213,7.9c-1.668,1.158-2.7,2.12-2.7,2.815,0,2.525,5.051,17.677,5.607,19.924s-2.247,3.927-5.9.846a97.733,97.733,0,0,1-7.53-7.3Z" transform="translate(-110.037 -83.579)" fill="#fff" stroke="#263238" stroke-linecap="round" stroke-linejoin="round" stroke-width="1"/>
      <path id="Path_3524" data-name="Path 3524" d="M188.295,232.345s14.6,12.349,12.638,16.843-30.593,55.279-31.149,56.4,9.823,13.472,12.349,16.832-5.618,3.939-9.823,1.969-15.719-10.669-16.843-13.472,3.093-5.9,5.329-10.1,19.09-51.352,19.09-51.352L165.567,238.52l17.677-8.7Z" transform="translate(-107.092 -89.947)" fill="#fff" stroke="#263238" stroke-linecap="round" stroke-linejoin="round" stroke-width="1"/>
      <path id="Path_3525" data-name="Path 3525" d="M155.467,302.182c-1.158-2.8,3.093-5.9,5.329-10.1.452-.834,1.471-3.371,2.826-6.881a24.014,24.014,0,0,0,9.186,6.209c-1.784,3.186-2.919,5.224-3.023,5.444-.568,1.158,9.823,13.472,12.348,16.832s-5.618,3.939-9.823,1.969S156.59,304.985,155.467,302.182Z" transform="translate(-107.093 -81.175)" fill="#fff" stroke="#263238" stroke-linecap="round" stroke-linejoin="round" stroke-width="1"/>
      <path id="Path_3526" data-name="Path 3526" d="M186.928,171.334s-11.781,19.357-13.472,27.8,1.158,23.3,2.815,27.222,19.044,17.052,19.044,17.052l-46.336,33.119s-12.916-15.152-21.894-28.068-4.958-30.86-1.4-39.559c8.561-20.921,22.172-30.593,27.8-37.88s14.6-13.472,22.45-10.113S188.017,164.314,186.928,171.334Z" transform="translate(-112.421 -101.011)" fill="#407bff" stroke="#263238" stroke-linecap="round" stroke-linejoin="round" stroke-width="1"/>
      <path id="Path_3527" data-name="Path 3527" d="M149.022,226.09c-.5.788-.961,1.6-1.4,2.433" transform="translate(-108.305 -90.538)" fill="none" stroke="#263238" stroke-linecap="round" stroke-linejoin="round" stroke-width="1"/>
      <path id="Path_3528" data-name="Path 3528" d="M167.356,211.28a58.616,58.616,0,0,0-16.136,13.31" transform="translate(-107.734 -92.884)" fill="none" stroke="#263238" stroke-linecap="round" stroke-linejoin="round" stroke-width="1"/>
      <path id="Path_3529" data-name="Path 3529" d="M164.907,211.48s-15.569,4.958-23.6,14.4" transform="translate(-109.304 -92.852)" fill="none" stroke="#263238" stroke-linecap="round" stroke-linejoin="round" stroke-width="1"/>
      <path id="Path_3530" data-name="Path 3530" d="M203.305,138.423S191.849,150.6,192.08,162.275c.278,14.306,4.217,27.5-.556,28.056s-6.174-9.267-6.174-9.267-12.9,12.9-19.693,10.426-.556-17.677-7.576-18.534-21.048,6.73-34.752,0-10.1-15.719-5.607-19.924,10.657-5.34,6.452-9.267-10.947-4.773-10.1-16.218,17.376-8.978,19.079-7.576-8.109-9.534-3.081-10.426,9.267-1.4,16.832,7.02,12.07,16.832,21.6,19.693S203.305,138.423,203.305,138.423Z" transform="translate(-113.681 -109.073)" fill="#263238" stroke="#263238" stroke-linecap="round" stroke-linejoin="round" stroke-width="1"/>
      <path id="Path_3531" data-name="Path 3531" d="M206.2,137.679s-11.225,6.73-22.728,8.978-24.407-.278-26.933-8.109,15.986-19.09,29.736-22.45,24.419,7.3,23.573,12.627S209.017,134.875,206.2,137.679Z" transform="translate(-106.928 -108.062)" fill="#407bff" stroke="#263238" stroke-linecap="round" stroke-linejoin="round" stroke-width="1"/>
      <path id="Path_3532" data-name="Path 3532" d="M136.673,178.556s20.48-18.233,24.975-19.693,12.071,3.927,8.422,10.1-17.677,17.677-17.677,17.677,30.3,9.534,35.076,10.1,2.8,1.68,9.267-.568,9.267-5.051,10.1-3.359,3.927,12.9,1.969,13.472-5.9-.568-5.9-.568-6.452,2.8-8.7,1.68-5.329-2.8-5.329-2.8-39-5.329-47.7-9.267S129.954,190,130.51,185.784,136.673,178.556,136.673,178.556Z" transform="translate(-111.026 -101.224)" fill="#fff" stroke="#263238" stroke-linecap="round" stroke-linejoin="round" stroke-width="1"/>
      <path id="Path_3533" data-name="Path 3533" d="M192.99,199.623l3.487-2.143.568,1.124" transform="translate(-101.118 -95.069)" fill="none" stroke="#263238" stroke-linecap="round" stroke-linejoin="round" stroke-width="1"/>
      <path id="Path_3534" data-name="Path 3534" d="M152.51,198.55a66.3,66.3,0,0,1-11.341-3.151c-8.7-3.927-11.225-5.329-10.669-9.545s6.174-7.3,6.174-7.3,20.48-18.233,24.975-19.693,12.07,3.927,8.422,10.1-17.677,17.677-17.677,17.677,3.2,1.008,7.68,2.386Z" transform="translate(-111.028 -101.224)" fill="#407bff" stroke="#263238" stroke-linecap="round" stroke-linejoin="round" stroke-width="1"/>
    </g>
  </g>
</svg>
