<svg xmlns="http://www.w3.org/2000/svg" xmlns:xlink="http://www.w3.org/1999/xlink" width="236.692" height="98.975" viewBox="0 0 236.692 98.975">
  <defs>
    <linearGradient id="linear-gradient" x1="0.179" y1="-0.179" x2="0.821" y2="1.179" gradientUnits="objectBoundingBox">
      <stop offset="0" stop-color="#8696d4"/>
      <stop offset="0.51" stop-color="#6f88eb"/>
      <stop offset="1" stop-color="#839cfb"/>
    </linearGradient>
  </defs>
  <g id="Group_111" data-name="Group 111" transform="translate(-14.806 -1887.315)">
    <g id="Group_105" data-name="Group 105" transform="translate(199.504 1986.836) rotate(-130)">
      <path id="Path_655" data-name="Path 655" d="M.269,0a19.03,19.03,0,0,0,0,6.205C.586,7.635,6.516,19.9,16.993,22.44s28.2,0,28.2,0Z" transform="translate(3.091 48.71) rotate(-5)" fill="#607ce6"/>
      <path id="Path_8" data-name="Path 8" d="M8.388,0,0,24.267,22.819,35.275l12.032-4.954-1.9-12.709Z" transform="translate(0 0.85)" fill="#607ce6" fill-rule="evenodd"/>
      <path id="Path_10" data-name="Path 10" d="M44.2,3.9,33.289,29.325,6.859,20.532,0,7.094,13.964,0Z" transform="translate(38.463 26.988)" fill="#607ce6" fill-rule="evenodd"/>
      <path id="Path_12" data-name="Path 12" d="M53.338,16.362s-6.624,22.527-6.031,22.407S2.6,29.282,2.6,29.282L0,20.034,4.969,0Z" transform="translate(3.4 28.263)" fill="#607ce6" fill-rule="evenodd"/>
      <path id="Path_22" data-name="Path 22" d="M47.141,0,.316.829,16.081,19.907l1.543,1.9h-.831a1.512,1.512,0,0,1-.712-.118h-3.2a20.721,20.721,0,0,0-7.348,1.422,8.648,8.648,0,0,0-4.386,3.318A6.9,6.9,0,0,0,.08,31.281a12.811,12.811,0,0,0,2.844,5.925,29.928,29.928,0,0,0,6.284,5.806,50.125,50.125,0,0,0,8.653,4.621,46.906,46.906,0,0,0,9.6,2.844,32.363,32.363,0,0,0,9.484.711A18.676,18.676,0,0,0,44.3,49.529a7.927,7.927,0,0,0,3.913-3.672A7,7,0,0,0,48.8,40.88a15.52,15.52,0,0,0-3.2-5.688c-.119-.118-.119-.238-.238-.238-.119-.119-.119-.238-.236-.238a.256.256,0,0,0-.238-.238.411.411,0,0,0-.119-.238A3.428,3.428,0,0,0,43.7,33.174c-.119-.119-.236-.238-.474-.474-.119-.119-.355-.238-.474-.474l2.727-.118,29.162-1.3Z" transform="translate(8.019 0)" fill-rule="evenodd" fill="url(#linear-gradient)"/>
      <path id="Path_23" data-name="Path 23" d="M33.988,49.3a31.642,31.642,0,0,1-7.325-.828,45.634,45.634,0,0,1-9.454-2.837,43.565,43.565,0,0,1-8.392-4.492,28.6,28.6,0,0,1-6.144-5.557,12.624,12.624,0,0,1-2.6-5.44A6.136,6.136,0,0,1,.9,26.009a9.108,9.108,0,0,1,4.016-3.074,22.893,22.893,0,0,1,6.972-1.3h2.363a1.5,1.5,0,0,1,.71.118h.71a1.746,1.746,0,0,1,.826.118l2.363.236-3.073-3.783L1.373.827,45.568,0,71.449,28.966,39.187,30.384l1.772,1.655c.238.118.355.238.593.355l.472.473.471.473c.119.118.474.591.474.591l.591.591.236.238a14.224,14.224,0,0,1,2.954,5.32,6.079,6.079,0,0,1-.472,4.374,7.878,7.878,0,0,1-3.545,3.192,19.02,19.02,0,0,1-6.972,1.537A8.972,8.972,0,0,1,33.988,49.3Z" transform="translate(9.089 1.063)" fill="#7786c2" fill-rule="evenodd"/>
    </g>
    <g id="Group_116" data-name="Group 116" transform="translate(14.806 1921.296)">
      <text id="_100_SURETY" data-name="100% SURETY" transform="translate(77.174 37.477)" fill="#f9f9ff" font-size="12" font-family="Poppins-SemiBold, Poppins" font-weight="600"><tspan x="-38.478" y="0">100% SURETY</tspan></text>
      <path id="Path_631" data-name="Path 631" d="M1024.4,562.744V556.7a.689.689,0,1,0-1.379,0v6.047a.689.689,0,1,0,1.379,0Zm-6.2,2.325a.7.7,0,0,0,.458-.233.71.71,0,0,0,0-.93l-4.136-4.186c-.458-.465-.917-.465-1.148,0a.711.711,0,0,0,0,.93l4.136,4.186A.837.837,0,0,0,1018.192,565.07Zm17.7,4.419h-5.746c-.458,0-.917.232-.917.7s.458.7.917.7h5.746c.462,0,.92-.233.92-.7S1036.351,569.489,1035.889,569.489Zm-25.279.7c0,.465.458.7.917.7h5.746a.7.7,0,0,0,0-1.4h-5.746C1011.068,569.489,1010.61,569.721,1010.61,570.186Zm18.616-4.884,4.136-4.186a.711.711,0,0,0,0-.93c-.231-.465-.689-.465-1.152,0l-4.136,4.186a.72.72,0,0,0,0,.93.841.841,0,0,0,.689.233A.713.713,0,0,0,1029.226,565.3ZM1009,578.326v13.024a1.492,1.492,0,0,0,1.379,1.395h4.367a1.63,1.63,0,0,0,1.379-.7,3.672,3.672,0,0,0,2.526,1.163h11.723c2.757,0,4.367-1.4,4.6-3.721l1.606-10.233v-.233a3.707,3.707,0,0,0-3.905-3.721h-5.746v-4.418a5.235,5.235,0,0,0-1.61-3.954c-1.61-1.163-3.905-.465-4.136-.465-.231.232-.458.465-.458.7v4.884c0,3.721-4.368,5.116-4.6,5.116a.227.227,0,0,0-.231.233,1.258,1.258,0,0,0-1.147-.7h-4.367A1.549,1.549,0,0,0,1009,578.326Zm7.355.233h.228c.231,0,5.519-1.628,5.519-6.512v-4.186a2.688,2.688,0,0,1,2.3.233,3.735,3.735,0,0,1,.92,2.791V576a.737.737,0,0,0,.689.7h6.667a2.71,2.71,0,0,1,2.526,2.325l-1.606,10.233h0c-.231,1.628-1.383,2.326-3.219,2.326h-11.723a2.182,2.182,0,0,1-2.3-2.326Zm-5.977-.233h4.367v13.024h-4.367Z" transform="translate(-1009 -556)" fill="#ffdf4f" fill-rule="evenodd"/>
      <path id="Path_28" data-name="Path 28" d="M862.862,539.5,829.5,551.013" transform="translate(-681.628 -529.966)" fill="none" stroke="#fff" stroke-miterlimit="8" stroke-width="1" fill-rule="evenodd"/>
      <path id="Path_29" data-name="Path 29" d="M0,.648H67.617V.741H0ZM67.617.137a.558.558,0,0,1,.558.558C68.175,1,108.7.445,108.7.137S67.309.137,67.617.137Z" transform="translate(147.872 21.832) rotate(180)" fill="#fff" stroke="#fff" stroke-width="1"/>
      <text id="Good_Quality_Textbooks_on" data-name="Good Quality Textbooks on" transform="translate(31.642 15.402)" fill="#5c7aea" font-size="8" font-family="Poppins-SemiBold, Poppins" font-weight="600"><tspan x="0" y="0">Good Quality Textbooks on</tspan></text>
    </g>
  </g>
</svg>
