<svg xmlns="http://www.w3.org/2000/svg" xmlns:xlink="http://www.w3.org/1999/xlink" width="292.824" height="98.975" viewBox="0 0 292.824 98.975">
  <defs>
    <linearGradient id="linear-gradient" x1="0.179" y1="-0.179" x2="0.821" y2="1.179" gradientUnits="objectBoundingBox">
      <stop offset="0" stop-color="#8696d4"/>
      <stop offset="0.51" stop-color="#6f88eb"/>
      <stop offset="1" stop-color="#839cfb"/>
    </linearGradient>
    <clipPath id="clip-path">
      <rect id="Rectangle_816" data-name="Rectangle 816" width="27.438" height="26.132" transform="translate(0)" fill="#20bdff"/>
    </clipPath>
  </defs>
  <g id="Group_318" data-name="Group 318" transform="translate(286.11 -1881.616)">
    <g id="Group_317" data-name="Group 317" transform="translate(-45.28 1981.138) rotate(-130)">
      <path id="Path_655" data-name="Path 655" d="M.269,0a19.03,19.03,0,0,0,0,6.205C.586,7.635,6.516,19.9,16.993,22.44s28.2,0,28.2,0Z" transform="translate(3.091 48.71) rotate(-5)" fill="#607ce6"/>
      <path id="Path_8" data-name="Path 8" d="M8.388,0,0,24.267,22.819,35.275l12.032-4.954-1.9-12.709Z" transform="translate(0 0.85)" fill="#607ce6" fill-rule="evenodd"/>
      <path id="Path_10" data-name="Path 10" d="M44.2,3.9,33.289,29.325,6.859,20.532,0,7.094,13.964,0Z" transform="translate(38.463 26.988)" fill="#607ce6" fill-rule="evenodd"/>
      <path id="Path_12" data-name="Path 12" d="M53.338,16.362s-6.624,22.527-6.031,22.407S2.6,29.282,2.6,29.282L0,20.034,4.969,0Z" transform="translate(3.4 28.263)" fill="#607ce6" fill-rule="evenodd"/>
      <path id="Path_22" data-name="Path 22" d="M47.141,0,.316.829,16.081,19.907l1.543,1.9h-.831a1.512,1.512,0,0,1-.712-.118h-3.2a20.721,20.721,0,0,0-7.348,1.422,8.648,8.648,0,0,0-4.386,3.318A6.9,6.9,0,0,0,.08,31.281a12.811,12.811,0,0,0,2.844,5.925,29.928,29.928,0,0,0,6.284,5.806,50.125,50.125,0,0,0,8.653,4.621,46.906,46.906,0,0,0,9.6,2.844,32.363,32.363,0,0,0,9.484.711A18.676,18.676,0,0,0,44.3,49.529a7.927,7.927,0,0,0,3.913-3.672A7,7,0,0,0,48.8,40.88a15.52,15.52,0,0,0-3.2-5.688c-.119-.118-.119-.238-.238-.238-.119-.119-.119-.238-.236-.238a.256.256,0,0,0-.238-.238.411.411,0,0,0-.119-.238A3.428,3.428,0,0,0,43.7,33.174c-.119-.119-.236-.238-.474-.474-.119-.119-.355-.238-.474-.474l2.727-.118,29.162-1.3Z" transform="translate(8.019 0)" fill-rule="evenodd" fill="url(#linear-gradient)"/>
      <path id="Path_23" data-name="Path 23" d="M33.988,49.3a31.642,31.642,0,0,1-7.325-.828,45.634,45.634,0,0,1-9.454-2.837,43.565,43.565,0,0,1-8.392-4.492,28.6,28.6,0,0,1-6.144-5.557,12.624,12.624,0,0,1-2.6-5.44A6.136,6.136,0,0,1,.9,26.009a9.108,9.108,0,0,1,4.016-3.074,22.893,22.893,0,0,1,6.972-1.3h2.363a1.5,1.5,0,0,1,.71.118h.71a1.746,1.746,0,0,1,.826.118l2.363.236-3.073-3.783L1.373.827,45.568,0,71.449,28.966,39.187,30.384l1.772,1.655c.238.118.355.238.593.355l.472.473.471.473c.119.118.474.591.474.591l.591.591.236.238a14.224,14.224,0,0,1,2.954,5.32,6.079,6.079,0,0,1-.472,4.374,7.878,7.878,0,0,1-3.545,3.192,19.02,19.02,0,0,1-6.972,1.537A8.972,8.972,0,0,1,33.988,49.3Z" transform="translate(9.089 1.063)" fill="#7786c2" fill-rule="evenodd"/>
    </g>
    <text id="Get_Real_Books" data-name="Get Real Books" transform="translate(-191.978 1956.075)" fill="#a5fecb" font-size="16" font-family="Josefin Sans" font-weight="700"><tspan x="-58.064" y="0">Get Real Books</tspan></text>
    <path id="Path_28" data-name="Path 28" d="M862.862,539.5,829.5,551.013" transform="translate(-925.65 1385.633)" fill="#fff" stroke="#fff" stroke-miterlimit="8" stroke-width="1" fill-rule="evenodd"/>
    <text id="Say_No_To_Ebooks" data-name="Say No To Ebooks" transform="translate(-249.978 1927.488)" fill="#f2f2f2" font-size="12" font-family="Josefin Sans"><tspan x="0" y="0">Say No To Ebooks</tspan></text>
    <line id="Line_2" data-name="Line 2" x1="157" transform="translate(-252.5 1936.646)" fill="none" stroke="#fff" stroke-width="1"/>
    <g id="book" transform="translate(-259.978 1920.956) rotate(90)" clip-path="url(#clip-path)">
      <path id="Path_2017" data-name="Path 2017" d="M1582.065,914.41h-3.83a1.212,1.212,0,0,1-1.236-1.093V895.093a1.212,1.212,0,0,1,1.236-1.093h3.83a1.134,1.134,0,0,1,1.236,1.093v18.224A1.134,1.134,0,0,1,1582.065,914.41Zm-3.83-19.56c-.123,0-.371.122-.371.243v18.224c0,.121.248.242.371.242h3.83c.247,0,.371-.122.371-.242V895.093c0-.121-.125-.243-.371-.243Z" transform="translate(-1575.224 -888.381)" fill="#20bdff" fill-rule="evenodd"/>
      <path id="Path_2018" data-name="Path 2018" d="M1622.164,891.972h-5.054a1.1,1.1,0,0,1-1.11-1.094V869.217a1.207,1.207,0,0,1,1.11-1.217h5.054a1.317,1.317,0,0,1,1.233,1.217v21.661A1.21,1.21,0,0,1,1622.164,891.972Zm-5.054-23a.263.263,0,0,0-.246.243v21.661a.263.263,0,0,0,.246.242h5.054a.264.264,0,0,0,.247-.242V869.217a.263.263,0,0,0-.247-.243Z" transform="translate(-1608.882 -865.943)" fill="#20bdff" fill-rule="evenodd"/>
      <path id="Path_2019" data-name="Path 2019" d="M1666.463,899.739h-2.269a1.187,1.187,0,0,1-1.195-1.094V878.216a1.208,1.208,0,0,1,1.195-1.216h2.269a1.207,1.207,0,0,1,1.194,1.216v20.429A1.186,1.186,0,0,1,1666.463,899.739Zm-2.269-21.888c-.119,0-.24.122-.24.365v20.429a.26.26,0,0,0,.24.244h2.269a.261.261,0,0,0,.24-.244V878.216c0-.243-.121-.365-.24-.365Z" transform="translate(-1649.444 -873.71)" fill="#20bdff" fill-rule="evenodd"/>
      <path id="Path_2020" data-name="Path 2020" d="M1695.479,882.479h-4.261a1.2,1.2,0,0,1-1.218-1.1V858.219a1.221,1.221,0,0,1,1.218-1.219h4.261a1.125,1.125,0,0,1,1.1,1.219v23.162A1.092,1.092,0,0,1,1695.479,882.479Zm-4.261-24.625c-.122,0-.244.122-.244.366v23.162a.262.262,0,0,0,.244.244h4.261a.262.262,0,0,0,.244-.244V858.219c0-.244-.122-.366-.244-.366Z" transform="translate(-1672.746 -856.45)" fill="#20bdff" fill-rule="evenodd"/>
      <path id="Path_2021" data-name="Path 2021" d="M1734.637,891.972H1733.2a1.113,1.113,0,0,1-1.2-1.094V869.217a1.211,1.211,0,0,1,1.2-1.217h1.438a1.211,1.211,0,0,1,1.2,1.217v2.434a.519.519,0,0,1-.479.487c-.24,0-.359-.243-.359-.487v-2.434c0-.122-.121-.243-.36-.243H1733.2c-.24,0-.36.122-.36.243v21.661c0,.12.121.242.36.242h1.438c.24,0,.36-.122.36-.242v-16.55a.32.32,0,0,1,.359-.365c.24,0,.479.122.479.365v16.55A1.113,1.113,0,0,1,1734.637,891.972Z" transform="translate(-1708.992 -865.943)" fill="#20bdff" fill-rule="evenodd"/>
      <path id="Path_2022" data-name="Path 2022" d="M1582.807,925.465h-5.312c-.248,0-.494-.123-.494-.37v-1.6a.53.53,0,0,1,.494-.493h5.312a.53.53,0,0,1,.495.493v1.6C1583.3,925.342,1583.055,925.465,1582.807,925.465Zm-4.942-.863h4.573v-.616h-4.573Z" transform="translate(-1575.224 -913.409)" fill="#20bdff" fill-rule="evenodd"/>
      <path id="Path_2023" data-name="Path 2023" d="M1582.807,947.329h-5.312c-.248,0-.494-.123-.494-.368v-1.593c0-.245.246-.368.494-.368h5.312c.248,0,.495.123.495.368v1.593C1583.3,947.206,1583.055,947.329,1582.807,947.329Zm-4.942-.858h4.573v-.613h-4.573Z" transform="translate(-1575.224 -932.395)" fill="#20bdff" fill-rule="evenodd"/>
      <path id="Path_2024" data-name="Path 2024" d="M1593.862,1008.822h-1.513c-.233,0-.349-.234-.349-.47a.31.31,0,0,1,.349-.352h1.513c.233,0,.466.118.466.352A.5.5,0,0,1,1593.862,1008.822Z" transform="translate(-1588.17 -986.766)" fill="#20bdff" fill-rule="evenodd"/>
      <path id="Path_2025" data-name="Path 2025" d="M1593.862,996.959h-1.513q-.349,0-.349-.411c0-.274.116-.548.349-.548h1.513a.551.551,0,0,1,.466.548A.425.425,0,0,1,1593.862,996.959Z" transform="translate(-1588.17 -976.409)" fill="#20bdff" fill-rule="evenodd"/>
      <path id="Path_2026" data-name="Path 2026" d="M1635.972,1008.822h-1.6c-.247,0-.37-.234-.37-.47s.123-.352.37-.352h1.6c.247,0,.493.118.493.352A.518.518,0,0,1,1635.972,1008.822Z" transform="translate(-1624.416 -986.766)" fill="#20bdff" fill-rule="evenodd"/>
      <path id="Path_2027" data-name="Path 2027" d="M1635.972,996.959h-1.6q-.37,0-.37-.411c0-.274.123-.548.37-.548h1.6a.562.562,0,0,1,.493.548A.442.442,0,0,1,1635.972,996.959Z" transform="translate(-1624.416 -976.409)" fill="#20bdff" fill-rule="evenodd"/>
      <path id="Path_2028" data-name="Path 2028" d="M1631.636,912.178H1630.2a1.214,1.214,0,0,1-1.2-1.224V904.1a1.116,1.116,0,0,1,1.2-1.1h1.438a1.192,1.192,0,0,1,1.2,1.1v6.853A1.3,1.3,0,0,1,1631.636,912.178Zm-1.438-8.321c-.24,0-.36.123-.36.245v6.853c0,.122.12.245.36.245h1.438a.261.261,0,0,0,.24-.245V904.1a.261.261,0,0,0-.24-.245Z" transform="translate(-1620.102 -896.148)" fill="#20bdff" fill-rule="evenodd"/>
      <path id="Path_2029" data-name="Path 2029" d="M1679.263,1003.822h-1.786c-.238,0-.477-.118-.477-.352a.508.508,0,0,1,.477-.47h1.786a.508.508,0,0,1,.477.47C1679.739,1003.7,1679.5,1003.822,1679.263,1003.822Z" transform="translate(-1661.526 -982.45)" fill="#20bdff" fill-rule="evenodd"/>
      <path id="Path_2030" data-name="Path 2030" d="M1678.4,907.822h-2.038c-.238,0-.359-.235-.359-.47a.315.315,0,0,1,.359-.352h2.038c.24,0,.48.118.48.352A.511.511,0,0,1,1678.4,907.822Z" transform="translate(-1660.663 -899.601)" fill="#20bdff" fill-rule="evenodd"/>
      <path id="Path_2031" data-name="Path 2031" d="M1696.209,885.329h-5.722a.526.526,0,0,1-.488-.49v-1.471c0-.245.244-.368.488-.368h5.722a.324.324,0,0,1,.365.368v1.471C1696.575,885.084,1696.453,885.329,1696.209,885.329Zm-5.236-.858h4.749v-.613h-4.749Z" transform="translate(-1672.746 -878.888)" fill="#20bdff" fill-rule="evenodd"/>
      <path id="Path_2032" data-name="Path 2032" d="M1696.209,937.329h-5.722c-.244,0-.488-.123-.488-.368V935.49a.526.526,0,0,1,.488-.491h5.722c.244,0,.365.245.365.491v1.471A.324.324,0,0,1,1696.209,937.329Zm-5.236-.858h4.749v-.613h-4.749Z" transform="translate(-1672.746 -923.765)" fill="#20bdff" fill-rule="evenodd"/>
      <path id="Path_2033" data-name="Path 2033" d="M1696.209,990.329h-5.722a.513.513,0,0,1-.488-.466v-1.4a.513.513,0,0,1,.488-.466h5.722c.244,0,.365.233.365.466v1.4C1696.575,990.1,1696.453,990.329,1696.209,990.329Zm-5.236-.932h4.749v-.466h-4.749Z" transform="translate(-1672.746 -969.505)" fill="#20bdff" fill-rule="evenodd"/>
      <path id="Path_2034" data-name="Path 2034" d="M1704.922,1019.959h-2.556c-.244,0-.366-.274-.366-.548s.122-.411.366-.411h2.556q.365,0,.365.411C1705.288,1019.685,1705.166,1019.959,1704.922,1019.959Z" transform="translate(-1683.102 -996.259)" fill="#20bdff" fill-rule="evenodd"/>
      <path id="Path_2035" data-name="Path 2035" d="M1742.48,1013.055a.518.518,0,0,1-.479-.484v-1.088a.479.479,0,1,1,.959,0v1.088A.517.517,0,0,1,1742.48,1013.055Z" transform="translate(-1717.623 -989.354)" fill="#20bdff" fill-rule="evenodd"/>
      <path id="Path_2036" data-name="Path 2036" d="M1742.48,979.109a.517.517,0,0,1-.479-.483v-3.143a.479.479,0,1,1,.959,0v3.143A.517.517,0,0,1,1742.48,979.109Z" transform="translate(-1717.623 -958.286)" fill="#20bdff" fill-rule="evenodd"/>
      <path id="Path_2037" data-name="Path 2037" d="M1742.48,889.15a.53.53,0,0,1-.479-.5v-2.268c0-.252.24-.378.479-.378s.479.126.479.378v2.268A.529.529,0,0,1,1742.48,889.15Z" transform="translate(-1717.623 -881.477)" fill="#20bdff" fill-rule="evenodd"/>
      <path id="Path_2038" data-name="Path 2038" d="M1595.773,1036.959h-26.287a.438.438,0,0,1-.486-.411.56.56,0,0,1,.486-.548h26.287a.56.56,0,0,1,.487.548A.438.438,0,0,1,1595.773,1036.959Z" transform="translate(-1568.32 -1010.93)" fill="#20bdff" fill-rule="evenodd"/>
    </g>
  </g>
</svg>
