<svg xmlns="http://www.w3.org/2000/svg" xmlns:xlink="http://www.w3.org/1999/xlink" width="287.197" height="72.749" viewBox="0 0 287.197 72.749">
  <defs>
    <linearGradient id="linear-gradient" x1="0.179" y1="-0.179" x2="0.821" y2="1.179" gradientUnits="objectBoundingBox">
      <stop offset="0" stop-color="#fcd8bd"/>
      <stop offset="0.51" stop-color="#fcab6d"/>
      <stop offset="1" stop-color="#ff6f00"/>
    </linearGradient>
    <clipPath id="clip-path">
      <rect id="Rectangle_24" data-name="Rectangle 24" width="24.837" height="23.457" fill="#f8f8f8"/>
    </clipPath>
  </defs>
  <g id="Group_117" data-name="Group 117" transform="translate(-104.445 -1836.55)">
    <g id="Group_228" data-name="Group 228">
      <g id="Group_109" data-name="Group 109" transform="translate(104.445 1841.119)">
        <g id="Group_104" data-name="Group 104">
          <path id="Path_8" data-name="Path 8" d="M1208.357,445,1200,469.178l22.735,10.967,11.988-4.935-1.89-12.663Z" transform="translate(-1200 -444.153)" fill="#9c4604" fill-rule="evenodd"/>
          <path id="Path_10" data-name="Path 10" d="M1425.039,571.882l-10.872,25.335-26.334-8.76L1381,575.068,1394.912,568Z" transform="translate(-1342.678 -540.945)" fill="#9c4604" fill-rule="evenodd"/>
          <path id="Path_12" data-name="Path 12" d="M1269.139,590.3s-6.6,22.444-6.009,22.325-44.542-9.452-44.542-9.452L1216,593.96l4.95-19.96Z" transform="translate(-1212.609 -545.601)" fill="#cc5900" fill-rule="evenodd"/>
          <path id="Path_630" data-name="Path 630" d="M10136.08,1787.112a13.339,13.339,0,0,0,0,5.333c.336,1.23,6.617,11.769,17.711,13.956s29.867,0,29.867,0Z" transform="translate(-10132.782 -1739.193)" fill="#cc5900"/>
          <path id="Path_22" data-name="Path 22" d="M1284.722,441l-46.653.826,15.708,19.007,1.537,1.889h-.828a1.507,1.507,0,0,1-.709-.118h-3.189a20.645,20.645,0,0,0-7.321,1.417,8.617,8.617,0,0,0-4.37,3.306,6.876,6.876,0,0,0-1.063,4.839,12.766,12.766,0,0,0,2.833,5.9,29.821,29.821,0,0,0,6.261,5.785,49.945,49.945,0,0,0,8.622,4.6,46.732,46.732,0,0,0,9.567,2.833,32.248,32.248,0,0,0,9.449.708,18.609,18.609,0,0,0,7.321-1.653,7.9,7.9,0,0,0,3.9-3.659,6.978,6.978,0,0,0,.591-4.958,15.464,15.464,0,0,0-3.188-5.667c-.119-.118-.119-.237-.237-.237-.118-.118-.118-.237-.235-.237a.255.255,0,0,0-.237-.237.41.41,0,0,0-.118-.237,3.415,3.415,0,0,0-1.063-1.062c-.118-.118-.235-.237-.472-.472-.119-.118-.354-.237-.472-.472l2.717-.118,29.055-1.3Z" transform="translate(-1229.765 -441)" fill-rule="evenodd" fill="url(#linear-gradient)"/>
          <path id="Path_23" data-name="Path 23" d="M1276.632,495.121a31.525,31.525,0,0,1-7.3-.825,45.466,45.466,0,0,1-9.42-2.827,43.4,43.4,0,0,1-8.361-4.476,28.5,28.5,0,0,1-6.121-5.536,12.578,12.578,0,0,1-2.592-5.42,6.114,6.114,0,0,1,.826-4.123,9.075,9.075,0,0,1,4-3.063,22.81,22.81,0,0,1,6.947-1.3h2.354a1.492,1.492,0,0,1,.707.118h.707a1.741,1.741,0,0,1,.823.118l2.354.235-3.062-3.769-14.363-17.433L1288.17,446l25.786,28.86-32.144,1.413,1.766,1.649c.237.118.354.237.591.353l.47.471.469.471c.119.117.472.589.472.589l.589.589.235.237a14.172,14.172,0,0,1,2.943,5.3,6.058,6.058,0,0,1-.47,4.358,7.849,7.849,0,0,1-3.532,3.181A18.949,18.949,0,0,1,1278.4,495,8.938,8.938,0,0,1,1276.632,495.121Z" transform="translate(-1233.713 -444.941)" fill="#ff6f00" fill-rule="evenodd"/>
        </g>
      </g>
      <path id="Path_28" data-name="Path 28" d="M829.5,551.013,862.862,539.5" transform="translate(-659.866 1315.139)" fill="none" stroke="#fff" stroke-miterlimit="8" stroke-width="1" fill-rule="evenodd"/>
      <path id="Path_29" data-name="Path 29" d="M0,.511H152.55V.6H0ZM152.55,0c.7,0,1.258.25,1.258.558s-.563.558-1.258.558-1.258-.25-1.258-.558S151.855,0,152.55,0Z" transform="translate(201.996 1854.639)" fill="#fff" stroke="#fff" stroke-width="1"/>
      <text id="Making_Pricey_Textbooks" data-name="Making Pricey Textbooks" transform="translate(260.805 1847.55)" fill="#f2f2f2" font-size="10" font-family="SegoeUI, Segoe UI"><tspan x="-54.478" y="0">Making Pricey Textbooks</tspan></text>
      <text id="Affordable" transform="translate(245.805 1873.396)" fill="#a5fecb" font-size="16" font-family="SegoeUI, Segoe UI"><tspan x="-37.242" y="0">Affordable</tspan></text>
      <g id="affordable-2" data-name="affordable" transform="translate(366.805 1838.822)" clip-path="url(#clip-path)">
        <path id="Path_466" data-name="Path 466" d="M2336.633,276.049h0V275.9h-.145v-.146h-.143l-5.176-2.623h0a6.811,6.811,0,0,0-4.023,0l-3.74,1.457h-.142a1.8,1.8,0,0,0-.721,1.457,1.264,1.264,0,0,0,1.294,1.02h0s.145,0,1.87-.146a14.954,14.954,0,0,0,1.726-.146c.145,0,.287-.146.287-.437.145-.146-.143-.437-.287-.437s-.145,0-1.726.146c-.862,0-1.725.146-1.87.146a.533.533,0,0,1-.431-.291c0-.291,0-.437.289-.583l3.882-1.311v-.146c1.292-.583,3.017,0,3.306,0l2.3,1.166-1.293,3.06a2.494,2.494,0,0,0-2.012-.292l-5.177,1.6a2.694,2.694,0,0,1-1.867-.146l-8.2-4.517a.321.321,0,0,1-.142-.437c0-.146.142-.291.432-.291l6.325,2.186a.737.737,0,0,0,.573-.291.757.757,0,0,0-.286-.583l-6.326-2.186h0a1.154,1.154,0,0,0-1.439.875,1.07,1.07,0,0,0,.576,1.457l8.051,4.517a2.923,2.923,0,0,0,2.443.291l5.176-1.6a1.626,1.626,0,0,1,1.436.146l2.589,1.749h.576v-.146h.141l1.871-4.08h0V276.2h0Zm-1.007.291-1.436,3.206-1.581-1.02,1.291-3.06Zm-14.805-9.909h1.149c.574,0,1,.291,1,.874a.966.966,0,0,1-1,.874h-2.012a.437.437,0,0,0,0,.875h1v.874a.656.656,0,0,0,.431.437.461.461,0,0,0,.431-.437v-.874h.287a1.868,1.868,0,0,0,1.725-1.749,1.76,1.76,0,0,0-1.725-1.749h-1.292a.934.934,0,0,1-.862-.874.97.97,0,0,1,.862-1.02h2.154a.383.383,0,0,0,.432-.437c0-.146-.142-.292-.432-.292h-1.149v-.874a.383.383,0,0,0-.431-.437.463.463,0,0,0-.431.437v.874h-.143a1.76,1.76,0,0,0-1.725,1.749A1.868,1.868,0,0,0,2320.82,266.432Zm.574,6.412a6.924,6.924,0,1,0-6.757-6.849A6.827,6.827,0,0,0,2321.394,272.844Zm0-12.969a6.118,6.118,0,0,1,6.039,6.12,5.993,5.993,0,0,1-6.039,5.974,5.87,5.87,0,0,1-5.894-5.974A6,6,0,0,1,2321.394,259.874Z" transform="translate(-2312.33 -258.03)" fill="#20bdff" fill-rule="evenodd"/>
      </g>
    </g>
  </g>
</svg>
