<svg id="Group_62" data-name="Group 62" xmlns="http://www.w3.org/2000/svg" xmlns:xlink="http://www.w3.org/1999/xlink" width="265.496" height="220.547" viewBox="0 0 265.496 220.547">
  <defs>
    <linearGradient id="linear-gradient" x1="0.5" y1="0.977" x2="0.74" gradientUnits="objectBoundingBox">
      <stop offset="0" stop-color="#cb0b0b"/>
      <stop offset="1" stop-color="#1f1f1f"/>
    </linearGradient>
  </defs>
  <g id="Group_60" data-name="Group 60">
    <g id="Group_59" data-name="Group 59" transform="translate(13.923 0.175)">
      <path id="Path_369" data-name="Path 369" d="M431.335,323.7a4.085,4.085,0,0,1-2.409-.8l-5.805-4.218a2.819,2.819,0,0,0-3.318,0L414,322.9a4.1,4.1,0,0,1-6.306-4.581l2.217-6.824a2.816,2.816,0,0,0-1.025-3.156l-5.805-4.218a4.1,4.1,0,0,1,2.409-7.413h7.175a2.816,2.816,0,0,0,2.685-1.95l2.217-6.824a4.1,4.1,0,0,1,7.8,0l2.217,6.824a2.816,2.816,0,0,0,2.684,1.95h7.175a4.1,4.1,0,0,1,2.409,7.413l-5.805,4.218a2.816,2.816,0,0,0-1.025,3.156l2.217,6.824a4.037,4.037,0,0,1-1.489,4.581A4.087,4.087,0,0,1,431.335,323.7Z" transform="translate(-315.56 -285.104)" fill="gold"/>
      <path id="Path_400" data-name="Path 400" d="M431.335,323.7a4.085,4.085,0,0,1-2.409-.8l-5.805-4.218a2.819,2.819,0,0,0-3.318,0L414,322.9a4.1,4.1,0,0,1-6.306-4.581l2.217-6.824a2.816,2.816,0,0,0-1.025-3.156l-5.805-4.218a4.1,4.1,0,0,1,2.409-7.413h7.175a2.816,2.816,0,0,0,2.685-1.95l2.217-6.824a4.1,4.1,0,0,1,7.8,0l2.217,6.824a2.816,2.816,0,0,0,2.684,1.95h7.175a4.1,4.1,0,0,1,2.409,7.413l-5.805,4.218a2.816,2.816,0,0,0-1.025,3.156l2.217,6.824a4.037,4.037,0,0,1-1.489,4.581A4.087,4.087,0,0,1,431.335,323.7Z" transform="translate(-358.475 -285.104)" fill="gold"/>
      <path id="Path_401" data-name="Path 401" d="M431.335,323.7a4.085,4.085,0,0,1-2.409-.8l-5.805-4.218a2.819,2.819,0,0,0-3.318,0L414,322.9a4.1,4.1,0,0,1-6.306-4.581l2.217-6.824a2.816,2.816,0,0,0-1.025-3.156l-5.805-4.218a4.1,4.1,0,0,1,2.409-7.413h7.175a2.816,2.816,0,0,0,2.685-1.95l2.217-6.824a4.1,4.1,0,0,1,7.8,0l2.217,6.824a2.816,2.816,0,0,0,2.684,1.95h7.175a4.1,4.1,0,0,1,2.409,7.413l-5.805,4.218a2.816,2.816,0,0,0-1.025,3.156l2.217,6.824a4.037,4.037,0,0,1-1.489,4.581A4.087,4.087,0,0,1,431.335,323.7Z" transform="translate(-401.389 -285.104)" fill="gold"/>
      <path id="Path_399" data-name="Path 399" d="M431.335,323.7a4.085,4.085,0,0,1-2.409-.8l-5.805-4.218a2.819,2.819,0,0,0-3.318,0L414,322.9a4.1,4.1,0,0,1-6.306-4.581l2.217-6.824a2.816,2.816,0,0,0-1.025-3.156l-5.805-4.218a4.1,4.1,0,0,1,2.409-7.413h7.175a2.816,2.816,0,0,0,2.685-1.95l2.217-6.824a4.1,4.1,0,0,1,7.8,0l2.217,6.824a2.816,2.816,0,0,0,2.684,1.95h7.175a4.1,4.1,0,0,1,2.409,7.413l-5.805,4.218a2.816,2.816,0,0,0-1.025,3.156l2.217,6.824a4.037,4.037,0,0,1-1.489,4.581A4.087,4.087,0,0,1,431.335,323.7Z" transform="translate(-272.646 -285.104)" fill="gold"/>
      <path id="Path_402" data-name="Path 402" d="M431.335,323.7a4.085,4.085,0,0,1-2.409-.8l-5.805-4.218a2.819,2.819,0,0,0-3.318,0L414,322.9a4.1,4.1,0,0,1-6.306-4.581l2.217-6.824a2.816,2.816,0,0,0-1.025-3.156l-5.805-4.218a4.1,4.1,0,0,1,2.409-7.413h7.175a2.816,2.816,0,0,0,2.685-1.95l2.217-6.824a4.1,4.1,0,0,1,7.8,0l2.217,6.824a2.816,2.816,0,0,0,2.684,1.95h7.175a4.1,4.1,0,0,1,2.409,7.413l-5.805,4.218a2.816,2.816,0,0,0-1.025,3.156l2.217,6.824a4.037,4.037,0,0,1-1.489,4.581A4.087,4.087,0,0,1,431.335,323.7Z" transform="translate(-229.731 -285.104)" fill="gold"/>
    </g>
    <rect id="Rectangle_39" data-name="Rectangle 39" width="265.496" height="0.847" transform="translate(0 217.387)" fill="#3f3d56"/>
    <path id="Path_389" data-name="Path 389" d="M325.545,336.907s9.726,2.083,11.178,1.115a2.732,2.732,0,0,1,2.9,0c8.228-3.146-.075-12.74-.317-16.612s-5.082-9.2-5.082-9.2Z" transform="translate(-280.313 -305.885)" fill="#2f2e41"/>
    <path id="Path_390" data-name="Path 390" d="M290.282,349.151c0,5.307-10.613,16.981-10.613,16.981l20.165,31.308s7.96-31.839,3.184-33.431.531-9.021.531-9.021Z" transform="translate(-237.348 -327.178)" fill="#cd5f6f"/>
    <path id="Path_391" data-name="Path 391" d="M227.383,460.906l14.328,9.021L238,475.764s-3.184-2.653-3.184-3.184-21.226-10.613-23.349-12.205,4.776-8.49,4.776-8.49Z" transform="translate(-197.797 -386.398)" fill="#ec8594"/>
    <path id="Path_392" data-name="Path 392" d="M364.436,455.143s-14.139,9.2-14.669,10.259,3.715,13.266,6.428,12.8-.061-9.085-.061-9.085,12.736-10.082,16.981-13.8-1.061-12.2-1.061-12.2Z" transform="translate(-297.416 -381.342)" fill="#e18592"/>
    <path id="Path_393" data-name="Path 393" d="M217.932,670.459l3.2,11.619,7.614-.317-3.919-14.485Z" transform="translate(-149.827 -475.818)" fill="#ea7a8a"/>
    <path id="Path_394" data-name="Path 394" d="M106.183,669.291l2.653,11.674h5.307V669.291Z" transform="translate(-61.208 -476.979)" fill="#a0616a"/>
    <circle id="Ellipse_61" data-name="Ellipse 61" cx="11.674" cy="11.674" r="11.674" transform="translate(50.812 7.645)" fill="#e37383"/>
    <path id="Path_395" data-name="Path 395" d="M245.966,380.473s-1.557,2.122-7.394,3.714-22.287,16.981-22.818,28.125,13.8,7.96,13.8,7.96,13.266,2.123,13.266,2.653-.531,3.715-.531,3.715c-8.49,10.613-9.552,28.655-9.552,28.655s-5.307,79.067-4.245,85.435,26.533,2.653,26.533,2.653l1.061-71.108s10.613,63.679,12.736,68.985,32.37-1.592,32.37-1.592-24.941-105.6-24.941-112.5,7.96-8.49,7.96-8.49,8.49,1.592,9.021-1.592,3.715-7.96,3.715-7.96-6.368-13.8-12.2-21.226-18.573-5.837-18.573-5.837l-6.9,23.879Z" transform="translate(-200.496 -345.234)" fill="url(#linear-gradient)"/>
    <path id="Path_396" data-name="Path 396" d="M400.989,775.841s-1.095,11.807-1.061,13.485c.03,1.5,10.619,1.909,11.68.317s4.776,0,4.776,1.061,10.613.312,10.613.312c13.8-6.368-1.975-8.125-1.975-8.125s-9.4-4.436-13.643-6.028-2.538-.634-2.538-.634C407.78,779.944,400.989,775.841,400.989,775.841Z" transform="translate(-332.778 -573.141)" fill="#2f2e41"/>
    <path id="Path_397" data-name="Path 397" d="M282.047,781.568c-.531.531,1.061,7.429,8.49,6.368s5.307-9.021,5.307-10.082a112.026,112.026,0,0,0-1.592-11.144c-.531-2.123-9.552,1.592-9.552,1.592S282.578,781.037,282.047,781.568Z" transform="translate(-238.665 -567.499)" fill="#2f2e41"/>
    <path id="Path_398" data-name="Path 398" d="M304.286,305.779a39.452,39.452,0,0,0-1.21,5.082c-.242,1.936-4.84,2.42-4.84,2.42.484,0,.484-2.9.484-2.9,0,1.694-2.662,3.388-2.662,3.388a28.585,28.585,0,0,0-6.534,5.324c-3.388,3.63.968,4.114.968,4.114-.326,5.834-12.27,8.2-12.27,8.2-13.794-4.84-3.286-21.4-3.286-21.4,10.406-19.36,18.822-10.877,18.822-10.877C302.834,297.794,304.286,305.779,304.286,305.779Z" transform="translate(-232.412 -297.274)" fill="#2f2e41"/>
  </g>
  <g id="Group_61" data-name="Group 61" transform="translate(91.595 62.643)">
    <path id="Path_407" data-name="Path 407" d="M254.57,293.138a25.033,25.033,0,0,1-6.205-.8l-.4-.111-.371-.186A102.8,102.8,0,0,1,214,265.668a99.831,99.831,0,0,1-16.962-30.119,115.926,115.926,0,0,1-6.556-40.838c.006-.292.01-.517.01-.672a16.081,16.081,0,0,1,9.552-15.1c4.441-1.85,44.763-18.412,47.676-19.609,5.487-2.749,11.34-.455,12.277-.053,2.1.859,39.376,16.105,47.432,19.941,8.3,3.953,10.517,11.055,10.517,14.628a119.122,119.122,0,0,1-8.327,44.933,104.044,104.044,0,0,1-18.7,30.133c-15.263,17.177-30.531,23.266-30.678,23.32A16.682,16.682,0,0,1,254.57,293.138Zm-3.59-8.894c1.324.3,4.371.742,6.357.017,2.523-.92,15.3-7.547,27.243-20.985,16.5-18.567,24.87-41.906,24.882-69.371-.029-.556-.425-4.525-5.68-7.028-7.9-3.761-46.643-19.6-47.034-19.763l-.107-.045c-.812-.34-3.4-1.057-5.177-.124l-.357.166c-.432.177-43.234,17.757-47.8,19.659-3.193,1.331-4.331,4.627-4.331,7.268,0,.193,0,.474-.012.837-.365,18.792,3.984,65.035,52.014,89.369Z" transform="translate(-190.459 -157.999)" fill="#080808"/>
    <path id="Path_408" data-name="Path 408" d="M257.985,171.7s-43.191,17.739-47.819,19.668-6.941,6.556-6.941,11.183-3.471,65.012,54.76,94.208c0,0,5.285,1.462,9.295,0s54.914-26.143,54.914-94.4c0,0,0-6.941-8.1-10.8s-47.253-19.86-47.253-19.86S262.034,169.576,257.985,171.7Z" transform="translate(-198.949 -166.508)" fill="#7587e3"/>
    <path id="Path_409" data-name="Path 409" d="M295.14,215.286v94.633s-43.577-20.976-43.191-76.122Z" transform="translate(-231.476 -196.214)" fill="#080808" opacity="0.1"/>
  </g>
</svg>
