<svg xmlns="http://www.w3.org/2000/svg" width="63.526" height="85" viewBox="0 0 63.526 85">
  <path id="Path_465" data-name="Path 465" d="M1044.172,571.406V557.594a1.575,1.575,0,1,0-3.149,0v13.813a1.575,1.575,0,1,0,3.149,0ZM1030,576.719a1.6,1.6,0,0,0,1.047-.531,1.623,1.623,0,0,0,0-2.124L1021.6,564.5c-1.047-1.063-2.094-1.063-2.622,0a1.624,1.624,0,0,0,0,2.125l9.448,9.562A1.913,1.913,0,0,0,1030,576.719Zm40.424,10.094H1057.3c-1.047,0-2.094.531-2.094,1.594S1056.251,590,1057.3,590h13.126c1.056,0,2.1-.531,2.1-1.594S1071.479,586.813,1070.424,586.813Zm-57.746,1.594c0,1.062,1.047,1.594,2.094,1.594H1027.9a1.594,1.594,0,0,0,0-3.187h-13.126C1013.724,586.813,1012.677,587.344,1012.677,588.406ZM1055.2,577.25l9.448-9.563a1.622,1.622,0,0,0,0-2.124c-.528-1.063-1.575-1.063-2.63,0l-9.448,9.562a1.645,1.645,0,0,0,0,2.125,1.922,1.922,0,0,0,1.575.531A1.63,1.63,0,0,0,1055.2,577.25ZM1009,607v29.75a3.407,3.407,0,0,0,3.149,3.187h9.976c1.575,0,2.1-.531,3.149-1.594a8.391,8.391,0,0,0,5.771,2.656h26.779c6.3,0,9.976-3.187,10.5-8.5L1072,609.125v-.531c0-4.781-3.668-8.5-8.921-8.5h-13.126V590a11.961,11.961,0,0,0-3.677-9.031c-3.677-2.656-8.921-1.062-9.448-1.062-.528.531-1.047,1.062-1.047,1.594v11.156c0,8.5-9.976,11.687-10.5,11.687a.518.518,0,0,0-.528.531,2.875,2.875,0,0,0-2.622-1.594h-9.976A3.537,3.537,0,0,0,1009,607Zm16.8.531h.519c.528,0,12.607-3.719,12.607-14.875v-9.563a6.137,6.137,0,0,1,5.243.531c1.575,1.594,2.1,3.719,2.1,6.375v11.687a1.683,1.683,0,0,0,1.575,1.594h15.228c3.149,0,5.252,2.656,5.771,5.312l-3.668,23.375h0c-.528,3.719-3.159,5.313-7.355,5.313h-26.779a4.985,4.985,0,0,1-5.243-5.313ZM1012.149,607h9.976v29.75h-9.976Z" transform="translate(-1009 -556)" fill="#20bdff" fill-rule="evenodd"/>
</svg>
