<svg xmlns="http://www.w3.org/2000/svg" width="40.087" height="40.158" viewBox="0 0 40.087 40.158">
  <path id="Icon_feather-phone-call" data-name="Icon feather-phone-call" d="M26.041,8.571a8.839,8.839,0,0,1,6.983,6.983M26.041,1.5A15.911,15.911,0,0,1,40.1,15.537M38.327,29.644v5.3a3.536,3.536,0,0,1-3.854,3.536,34.986,34.986,0,0,1-15.257-5.427A34.473,34.473,0,0,1,8.61,22.449,34.986,34.986,0,0,1,3.182,7.122,3.536,3.536,0,0,1,6.7,3.268H12A3.536,3.536,0,0,1,15.54,6.309a22.7,22.7,0,0,0,1.238,4.968,3.536,3.536,0,0,1-.8,3.73l-2.245,2.245A28.286,28.286,0,0,0,24.344,27.859l2.245-2.245a3.536,3.536,0,0,1,3.73-.8,22.7,22.7,0,0,0,4.968,1.238A3.536,3.536,0,0,1,38.327,29.644Z" transform="translate(-1.667 0.156)" fill="none" stroke="#5433ff" stroke-linecap="round" stroke-linejoin="round" stroke-width="3"/>
</svg>
