<svg xmlns="http://www.w3.org/2000/svg" width="37.125" height="37.125" viewBox="0 0 37.125 37.125">
  <path id="Icon_awesome-linkedin" data-name="Icon awesome-linkedin" d="M34.473,2.25H2.644A2.663,2.663,0,0,0,0,4.927V36.7a2.663,2.663,0,0,0,2.644,2.677h31.83A2.67,2.67,0,0,0,37.125,36.7V4.927A2.67,2.67,0,0,0,34.473,2.25ZM11.22,34.072h-5.5V16.354h5.511V34.072ZM8.469,13.935a3.19,3.19,0,1,1,3.19-3.19A3.192,3.192,0,0,1,8.469,13.935ZM31.847,34.072h-5.5V25.453c0-2.055-.041-4.7-2.859-4.7-2.867,0-3.306,2.237-3.306,4.55v8.768h-5.5V16.354h5.279v2.42h.075a5.8,5.8,0,0,1,5.212-2.859c5.569,0,6.6,3.671,6.6,8.444Z" transform="translate(0 -2.25)" fill="#5433ff"/>
</svg>
