<svg xmlns="http://www.w3.org/2000/svg" width="45.258" height="31.822" viewBox="0 0 45.258 31.822">
  <path id="Icon_awesome-youtube" data-name="Icon awesome-youtube" d="M45.362,9.479a5.687,5.687,0,0,0-4-4.027C37.831,4.5,23.679,4.5,23.679,4.5S9.526,4.5,6,5.452A5.687,5.687,0,0,0,2,9.479C1.05,13.031,1.05,20.443,1.05,20.443s0,7.412.946,10.964A5.6,5.6,0,0,0,6,35.37c3.529.952,17.682.952,17.682.952s14.152,0,17.682-.952a5.6,5.6,0,0,0,4-3.963c.946-3.552.946-10.964.946-10.964s0-7.412-.946-10.964ZM19.05,27.172V13.714l11.829,6.729L19.05,27.172Z" transform="translate(-1.05 -4.5)" fill="#5433ff"/>
</svg>
