<svg xmlns="http://www.w3.org/2000/svg" width="37.146" height="37.138" viewBox="0 0 37.146 37.138">
  <path id="Icon_awesome-instagram" data-name="Icon awesome-instagram" d="M18.572,11.285a9.522,9.522,0,1,0,9.522,9.522A9.507,9.507,0,0,0,18.572,11.285Zm0,15.712a6.19,6.19,0,1,1,6.19-6.19A6.2,6.2,0,0,1,18.572,27ZM30.7,10.9a2.221,2.221,0,1,1-2.221-2.221A2.216,2.216,0,0,1,30.7,10.9Zm6.306,2.254c-.141-2.975-.82-5.61-3-7.781s-4.806-2.851-7.781-3c-3.066-.174-12.256-.174-15.322,0-2.967.141-5.6.82-7.781,2.992s-2.851,4.806-3,7.781c-.174,3.066-.174,12.256,0,15.322.141,2.975.82,5.61,3,7.781s4.806,2.851,7.781,3c3.066.174,12.256.174,15.322,0,2.975-.141,5.61-.82,7.781-3s2.851-4.806,3-7.781c.174-3.066.174-12.248,0-15.314Zm-3.961,18.6a6.267,6.267,0,0,1-3.53,3.53c-2.445.97-8.245.746-10.947.746s-8.511.215-10.947-.746a6.267,6.267,0,0,1-3.53-3.53c-.97-2.445-.746-8.245-.746-10.947S3.133,12.3,4.095,9.86a6.267,6.267,0,0,1,3.53-3.53c2.445-.97,8.245-.746,10.947-.746s8.511-.215,10.947.746a6.267,6.267,0,0,1,3.53,3.53c.97,2.445.746,8.245.746,10.947S34.019,29.317,33.049,31.754Z" transform="translate(0.005 -2.238)" fill="#5433ff"/>
</svg>
