<svg xmlns="http://www.w3.org/2000/svg" width="42.429" height="34.46" viewBox="0 0 42.429 34.46">
  <path id="Icon_awesome-twitter" data-name="Icon awesome-twitter" d="M38.067,11.969c.027.377.027.754.027,1.131,0,11.5-8.75,24.741-24.741,24.741A24.573,24.573,0,0,1,0,33.937a17.989,17.989,0,0,0,2.1.108A17.415,17.415,0,0,0,12.9,30.33,8.711,8.711,0,0,1,4.765,24.3a10.966,10.966,0,0,0,1.642.135,9.2,9.2,0,0,0,2.288-.3A8.7,8.7,0,0,1,1.723,15.6V15.5a8.758,8.758,0,0,0,3.931,1.1A8.709,8.709,0,0,1,2.961,4.969a24.717,24.717,0,0,0,17.93,9.1,9.816,9.816,0,0,1-.215-1.992,8.7,8.7,0,0,1,15.049-5.95,17.12,17.12,0,0,0,5.519-2.1,8.672,8.672,0,0,1-3.823,4.792,17.432,17.432,0,0,0,5.007-1.346,18.692,18.692,0,0,1-4.361,4.5Z" transform="translate(0 -3.381)" fill="#5433ff"/>
</svg>
